Russolo-24ptExtraBold.ufo
<glyph name="exclam" format="2">
  <advance width="572"/>
  <unicode hex="0021"/>
  <note>
exclam
</note>
  <outline>
    <contour>
      <point x="233" y="324" type="curve"/>
      <point x="339" y="324" type="line"/>
      <point x="339" y="790"/>
      <point x="442" y="1092"/>
      <point x="442" y="1230" type="curve" smooth="yes"/>
      <point x="442" y="1282"/>
      <point x="326" y="1338"/>
      <point x="339" y="1477" type="curve"/>
      <point x="233" y="1477" type="line"/>
      <point x="246" y="1338"/>
      <point x="130" y="1282"/>
      <point x="130" y="1230" type="curve" smooth="yes"/>
      <point x="130" y="1092"/>
      <point x="233" y="790"/>
    </contour>
    <contour>
      <point x="286" y="-27" type="curve" smooth="yes"/>
      <point x="360" y="-27"/>
      <point x="419" y="32"/>
      <point x="419" y="106" type="curve" smooth="yes"/>
      <point x="419" y="179"/>
      <point x="360" y="238"/>
      <point x="286" y="238" type="curve" smooth="yes"/>
      <point x="212" y="238"/>
      <point x="153" y="179"/>
      <point x="153" y="106" type="curve" smooth="yes"/>
      <point x="153" y="32"/>
      <point x="212" y="-27"/>
    </contour>
  </outline>
</glyph>
<glyph name="numbersign" format="2">
  <advance width="1437"/>
  <unicode hex="0023"/>
  <note>
numbersign
</note>
  <outline>
    <contour>
      <point x="732" y="-1" type="line"/>
      <point x="951" y="-1" type="line"/>
      <point x="1246" y="1445" type="line"/>
      <point x="1027" y="1445" type="line"/>
    </contour>
    <contour>
      <point x="95" y="470" type="line"/>
      <point x="1281" y="470" type="line"/>
      <point x="1281" y="540" type="line"/>
      <point x="95" y="540" type="line"/>
    </contour>
    <contour>
      <point x="178" y="-1" type="line"/>
      <point x="397" y="-1" type="line"/>
      <point x="693" y="1445" type="line"/>
      <point x="474" y="1445" type="line"/>
    </contour>
    <contour>
      <point x="158" y="920" type="line"/>
      <point x="1345" y="920" type="line"/>
      <point x="1345" y="990" type="line"/>
      <point x="158" y="990" type="line"/>
    </contour>
  </outline>
</glyph>
<glyph name="percent" format="2">
  <advance width="1557"/>
  <unicode hex="0025"/>
  <note>
percent
</note>
  <outline>
    <contour>
      <point x="219" y="-15" type="line"/>
      <point x="411" y="-15" type="line"/>
      <point x="1333" y="1445" type="line"/>
      <point x="1141" y="1445" type="line"/>
    </contour>
    <contour>
      <point x="1120" y="-35" type="curve" smooth="yes"/>
      <point x="1323" y="-35"/>
      <point x="1439" y="130"/>
      <point x="1439" y="354" type="curve" smooth="yes"/>
      <point x="1439" y="566"/>
      <point x="1316" y="743"/>
      <point x="1120" y="743" type="curve" smooth="yes"/>
      <point x="927" y="743"/>
      <point x="799" y="566"/>
      <point x="799" y="354" type="curve" smooth="yes"/>
      <point x="799" y="140"/>
      <point x="908" y="-35"/>
    </contour>
    <contour>
      <point x="1120" y="29" type="curve" smooth="yes"/>
      <point x="1077" y="29"/>
      <point x="1033" y="164"/>
      <point x="1033" y="354" type="curve" smooth="yes"/>
      <point x="1033" y="545"/>
      <point x="1076" y="679"/>
      <point x="1120" y="679" type="curve" smooth="yes"/>
      <point x="1162" y="679"/>
      <point x="1207" y="543"/>
      <point x="1207" y="354" type="curve" smooth="yes"/>
      <point x="1207" y="167"/>
      <point x="1162" y="29"/>
    </contour>
    <contour>
      <point x="440" y="685" type="curve" smooth="yes"/>
      <point x="643" y="685"/>
      <point x="759" y="850"/>
      <point x="759" y="1074" type="curve" smooth="yes"/>
      <point x="759" y="1286"/>
      <point x="636" y="1463"/>
      <point x="440" y="1463" type="curve" smooth="yes"/>
      <point x="247" y="1463"/>
      <point x="119" y="1286"/>
      <point x="119" y="1074" type="curve" smooth="yes"/>
      <point x="119" y="860"/>
      <point x="228" y="685"/>
    </contour>
    <contour>
      <point x="440" y="749" type="curve" smooth="yes"/>
      <point x="397" y="749"/>
      <point x="353" y="884"/>
      <point x="353" y="1074" type="curve" smooth="yes"/>
      <point x="353" y="1265"/>
      <point x="396" y="1399"/>
      <point x="440" y="1399" type="curve" smooth="yes"/>
      <point x="482" y="1399"/>
      <point x="527" y="1263"/>
      <point x="527" y="1074" type="curve" smooth="yes"/>
      <point x="527" y="887"/>
      <point x="482" y="749"/>
    </contour>
  </outline>
</glyph>
<glyph name="parenleft" format="2">
  <advance width="610"/>
  <unicode hex="0028"/>
  <note>
parenleft
</note>
  <outline>
    <contour>
      <point x="451" y="-428" type="curve"/>
      <point x="544" y="-382" type="line"/>
      <point x="400" y="-71"/>
      <point x="319" y="251"/>
      <point x="319" y="586" type="curve" smooth="yes"/>
      <point x="319" y="913"/>
      <point x="395" y="1227"/>
      <point x="544" y="1568" type="curve"/>
      <point x="449" y="1603" type="line"/>
      <point x="200" y="1279"/>
      <point x="89" y="963"/>
      <point x="89" y="596" type="curve" smooth="yes"/>
      <point x="89" y="235"/>
      <point x="196" y="-74"/>
    </contour>
  </outline>
</glyph>
<glyph name="parenright" format="2">
  <advance width="610"/>
  <unicode hex="0029"/>
  <note>
parenright
</note>
  <outline>
    <contour>
      <point x="159" y="-428" type="line"/>
      <point x="414" y="-74"/>
      <point x="521" y="235"/>
      <point x="521" y="596" type="curve" smooth="yes"/>
      <point x="521" y="963"/>
      <point x="410" y="1279"/>
      <point x="161" y="1603" type="curve"/>
      <point x="66" y="1568" type="line"/>
      <point x="215" y="1227"/>
      <point x="291" y="913"/>
      <point x="291" y="586" type="curve" smooth="yes"/>
      <point x="291" y="251"/>
      <point x="210" y="-71"/>
      <point x="66" y="-382" type="curve"/>
    </contour>
  </outline>
</glyph>
<glyph name="asterisk" format="2">
  <advance width="824"/>
  <unicode hex="002A"/>
  <note>
asterisk
</note>
  <outline>
    <contour>
      <point x="425" y="1132" type="line"/>
      <point x="560" y="1210"/>
      <point x="603" y="1181"/>
      <point x="669" y="1220" type="curve" smooth="yes"/>
      <point x="693" y="1234"/>
      <point x="679" y="1269"/>
      <point x="707" y="1286" type="curve"/>
      <point x="674" y="1343" type="line"/>
      <point x="646" y="1327"/>
      <point x="605" y="1345"/>
      <point x="599" y="1341" type="curve" smooth="yes"/>
      <point x="533" y="1302"/>
      <point x="535" y="1253"/>
      <point x="400" y="1175" type="curve"/>
    </contour>
    <contour>
      <point x="150" y="964" type="line"/>
      <point x="178" y="980"/>
      <point x="223" y="962"/>
      <point x="226" y="964" type="curve" smooth="yes"/>
      <point x="293" y="1002"/>
      <point x="290" y="1054"/>
      <point x="425" y="1132" type="curve"/>
      <point x="400" y="1175" type="line"/>
      <point x="265" y="1097"/>
      <point x="203" y="1112"/>
      <point x="156" y="1085" type="curve" smooth="yes"/>
      <point x="133" y="1071"/>
      <point x="145" y="1037"/>
      <point x="117" y="1021" type="curve"/>
    </contour>
    <contour>
      <point x="379" y="831" type="curve"/>
      <point x="445" y="831" type="line"/>
      <point x="445" y="863"/>
      <point x="483" y="881"/>
      <point x="483" y="896" type="curve" smooth="yes"/>
      <point x="483" y="961"/>
      <point x="436" y="996"/>
      <point x="436" y="1152" type="curve"/>
      <point x="387" y="1152" type="line"/>
      <point x="387" y="996"/>
      <point x="343" y="961"/>
      <point x="343" y="896" type="curve" smooth="yes"/>
      <point x="343" y="881"/>
      <point x="379" y="863"/>
    </contour>
    <contour>
      <point x="401" y="1132" type="curve"/>
      <point x="425" y="1174" type="line"/>
      <point x="290" y="1252"/>
      <point x="282" y="1308"/>
      <point x="226" y="1340" type="curve" smooth="yes"/>
      <point x="226" y="1340"/>
      <point x="179" y="1326"/>
      <point x="151" y="1342" type="curve"/>
      <point x="118" y="1285" type="line"/>
      <point x="146" y="1269"/>
      <point x="142" y="1227"/>
      <point x="156" y="1219" type="curve" smooth="yes"/>
      <point x="212" y="1187"/>
      <point x="266" y="1210"/>
    </contour>
    <contour>
      <point x="599" y="963" type="curve" smooth="yes"/>
      <point x="607" y="958"/>
      <point x="647" y="980"/>
      <point x="675" y="964" type="curve"/>
      <point x="708" y="1021" type="line"/>
      <point x="680" y="1037"/>
      <point x="672" y="1083"/>
      <point x="669" y="1085" type="curve" smooth="yes"/>
      <point x="602" y="1123"/>
      <point x="560" y="1096"/>
      <point x="425" y="1174" type="curve"/>
      <point x="401" y="1132" type="line"/>
      <point x="535" y="1054"/>
      <point x="542" y="996"/>
    </contour>
    <contour>
      <point x="387" y="1152" type="curve"/>
      <point x="436" y="1152" type="line"/>
      <point x="436" y="1308"/>
      <point x="483" y="1343"/>
      <point x="483" y="1408" type="curve" smooth="yes"/>
      <point x="483" y="1424"/>
      <point x="445" y="1442"/>
      <point x="445" y="1474" type="curve"/>
      <point x="379" y="1474" type="line"/>
      <point x="379" y="1442"/>
      <point x="343" y="1424"/>
      <point x="343" y="1408" type="curve" smooth="yes"/>
      <point x="343" y="1343"/>
      <point x="387" y="1308"/>
    </contour>
  </outline>
</glyph>
<glyph name="slash" format="2">
  <advance width="708"/>
  <unicode hex="002F"/>
  <note>
slash
</note>
  <outline>
    <contour>
      <point x="29" y="-419" type="line"/>
      <point x="197" y="-419" type="line"/>
      <point x="679" y="1511" type="line"/>
      <point x="511" y="1511" type="line"/>
    </contour>
  </outline>
</glyph>
<glyph name="zero" format="2">
  <advance width="1422"/>
  <unicode hex="0030"/>
  <note>
zero
</note>
  <anchor x="691" y="718" name="center"/>
  <outline>
    <contour>
      <point x="711" y="-36" type="curve" smooth="yes"/>
      <point x="1091" y="-36"/>
      <point x="1346" y="312"/>
      <point x="1346" y="718" type="curve" smooth="yes"/>
      <point x="1346" y="1093"/>
      <point x="1076" y="1475"/>
      <point x="711" y="1475" type="curve" smooth="yes"/>
      <point x="351" y="1475"/>
      <point x="76" y="1106"/>
      <point x="76" y="718" type="curve" smooth="yes"/>
      <point x="76" y="325"/>
      <point x="331" y="-36"/>
    </contour>
    <contour>
      <point x="711" y="33" type="curve" smooth="yes"/>
      <point x="574" y="33"/>
      <point x="412" y="288"/>
      <point x="412" y="718" type="curve" smooth="yes"/>
      <point x="412" y="1146"/>
      <point x="572" y="1406"/>
      <point x="711" y="1406" type="curve" smooth="yes"/>
      <point x="849" y="1406"/>
      <point x="1010" y="1145"/>
      <point x="1010" y="718" type="curve" smooth="yes"/>
      <point x="1010" y="292"/>
      <point x="850" y="33"/>
    </contour>
  </outline>
</glyph>
<glyph name="one" format="2">
  <advance width="712"/>
  <unicode hex="0031"/>
  <note>
one
</note>
  <outline>
    <contour>
      <point x="228" y="0" type="line"/>
      <point x="546" y="0" type="line"/>
      <point x="546" y="1431" type="line"/>
      <point x="385" y="1431" type="line"/>
      <point x="24" y="914" type="line"/>
      <point x="122" y="851" type="line"/>
      <point x="260" y="1046" type="line"/>
      <point x="228" y="1058" type="line"/>
    </contour>
  </outline>
</glyph>
<glyph name="two" format="2">
  <advance width="1188"/>
  <unicode hex="0032"/>
  <note>
two
</note>
  <outline>
    <contour>
      <point x="46" y="0" type="line"/>
      <point x="1081" y="0" type="line"/>
      <point x="1081" y="199" type="line"/>
      <point x="322" y="199" type="line"/>
      <point x="319" y="151" type="line"/>
      <point x="566" y="334"/>
      <point x="754" y="494"/>
      <point x="880" y="630" type="curve" smooth="yes"/>
      <point x="994" y="754"/>
      <point x="1102" y="865"/>
      <point x="1102" y="1036" type="curve" smooth="yes"/>
      <point x="1102" y="1340"/>
      <point x="914" y="1475"/>
      <point x="617" y="1475" type="curve" smooth="yes"/>
      <point x="300" y="1475"/>
      <point x="96" y="1301"/>
      <point x="96" y="1037" type="curve" smooth="yes"/>
      <point x="96" y="1032"/>
      <point x="96" y="1010"/>
      <point x="100" y="984" type="curve"/>
      <point x="405" y="990" type="line"/>
      <point x="405" y="1021" type="line" smooth="yes"/>
      <point x="405" y="1217"/>
      <point x="486" y="1424"/>
      <point x="599" y="1424" type="curve" smooth="yes"/>
      <point x="702" y="1424"/>
      <point x="788" y="1294"/>
      <point x="788" y="1114" type="curve" smooth="yes"/>
      <point x="788" y="854"/>
      <point x="615" y="608"/>
      <point x="422" y="402" type="curve" smooth="yes"/>
    </contour>
  </outline>
</glyph>
<glyph name="three" format="2">
  <advance width="1190"/>
  <unicode hex="0033"/>
  <note>
three
</note>
  <outline>
    <contour>
      <point x="563" y="-26" type="curve" smooth="yes"/>
      <point x="878" y="-26"/>
      <point x="1108" y="123"/>
      <point x="1108" y="387" type="curve" smooth="yes"/>
      <point x="1108" y="588"/>
      <point x="972" y="720"/>
      <point x="779" y="768" type="curve"/>
      <point x="778" y="749" type="line"/>
      <point x="963" y="794"/>
      <point x="1070" y="940"/>
      <point x="1070" y="1107" type="curve" smooth="yes"/>
      <point x="1070" y="1333"/>
      <point x="885" y="1475"/>
      <point x="597" y="1475" type="curve" smooth="yes"/>
      <point x="295" y="1475"/>
      <point x="93" y="1317"/>
      <point x="90" y="1067" type="curve"/>
      <point x="372" y="1073" type="line"/>
      <point x="376" y="1238"/>
      <point x="467" y="1422"/>
      <point x="593" y="1422" type="curve" smooth="yes"/>
      <point x="707" y="1422"/>
      <point x="778" y="1278"/>
      <point x="778" y="1092" type="curve" smooth="yes"/>
      <point x="778" y="889"/>
      <point x="688" y="783"/>
      <point x="549" y="783" type="curve" smooth="yes"/>
      <point x="318" y="783" type="line"/>
      <point x="318" y="729" type="line"/>
      <point x="553" y="729" type="line" smooth="yes"/>
      <point x="679" y="729"/>
      <point x="787" y="617"/>
      <point x="787" y="393" type="curve" smooth="yes"/>
      <point x="787" y="209"/>
      <point x="710" y="20"/>
      <point x="569" y="20" type="curve" smooth="yes"/>
      <point x="439" y="20"/>
      <point x="356" y="186"/>
      <point x="356" y="352" type="curve" smooth="yes"/>
      <point x="356" y="383" type="line"/>
      <point x="64" y="389" type="line"/>
      <point x="64" y="348" type="line" smooth="yes"/>
      <point x="64" y="116"/>
      <point x="256" y="-26"/>
    </contour>
  </outline>
</glyph>
<glyph name="four" format="2">
  <advance width="1118"/>
  <unicode hex="0034"/>
  <note>
four
</note>
  <outline>
    <contour>
      <point x="631" y="0" type="line"/>
      <point x="914" y="0" type="line"/>
      <point x="914" y="429" type="line"/>
      <point x="835" y="349" type="line"/>
      <point x="1082" y="349" type="line"/>
      <point x="1082" y="475" type="line"/>
      <point x="835" y="475" type="line"/>
      <point x="914" y="444" type="line"/>
      <point x="914" y="769" type="line"/>
      <point x="631" y="769" type="line"/>
      <point x="631" y="444" type="line"/>
      <point x="710" y="475" type="line"/>
      <point x="209" y="475" type="line"/>
      <point x="241" y="468" type="line"/>
      <point x="468" y="787"/>
      <point x="703" y="1125"/>
      <point x="819" y="1469" type="curve"/>
      <point x="625" y="1469" type="line"/>
      <point x="486" y="1079"/>
      <point x="259" y="718"/>
      <point x="26" y="349" type="curve"/>
      <point x="710" y="349" type="line"/>
      <point x="631" y="429" type="line"/>
    </contour>
  </outline>
</glyph>
<glyph name="five" format="2">
  <advance width="1070"/>
  <unicode hex="0035"/>
  <note>
five
</note>
  <outline>
    <contour>
      <point x="470" y="-36" type="curve" smooth="yes"/>
      <point x="829" y="-36"/>
      <point x="995" y="222"/>
      <point x="995" y="489" type="curve" smooth="yes"/>
      <point x="995" y="824"/>
      <point x="666" y="868"/>
      <point x="477" y="868" type="curve" smooth="yes"/>
      <point x="433" y="868"/>
      <point x="293" y="854"/>
      <point x="212" y="760" type="curve"/>
      <point x="227" y="768" type="line"/>
      <point x="345" y="1356" type="line"/>
      <point x="265" y="1218" type="line"/>
      <point x="919" y="1218" type="line"/>
      <point x="919" y="1444" type="line"/>
      <point x="233" y="1444" type="line"/>
      <point x="100" y="734" type="line"/>
      <point x="219" y="711" type="line"/>
      <point x="299" y="801"/>
      <point x="387" y="812"/>
      <point x="435" y="812" type="curve" smooth="yes"/>
      <point x="620" y="812"/>
      <point x="689" y="710"/>
      <point x="689" y="461" type="curve" smooth="yes"/>
      <point x="689" y="282"/>
      <point x="671" y="18"/>
      <point x="464" y="18" type="curve" smooth="yes"/>
      <point x="342" y="18"/>
      <point x="167" y="108"/>
      <point x="90" y="200" type="curve"/>
      <point x="56" y="152" type="line"/>
      <point x="131" y="72"/>
      <point x="244" y="-36"/>
    </contour>
  </outline>
</glyph>
<glyph name="seven" format="2">
  <advance width="1044"/>
  <unicode hex="0037"/>
  <note>
seven
</note>
  <outline>
    <contour>
      <point x="274" y="0" type="curve"/>
      <point x="497" y="0" type="line"/>
      <point x="555" y="570"/>
      <point x="805" y="1049"/>
      <point x="1016" y="1431" type="curve"/>
      <point x="46" y="1431" type="line"/>
      <point x="46" y="1180" type="line"/>
      <point x="821" y="1180" type="line"/>
      <point x="807" y="1288" type="line"/>
      <point x="618" y="1014"/>
      <point x="369" y="572"/>
    </contour>
  </outline>
</glyph>
<glyph name="eight" format="2">
  <advance width="1156"/>
  <unicode hex="0038"/>
  <note>
eight
</note>
  <outline>
    <contour>
      <point x="562" y="-35" type="curve" smooth="yes"/>
      <point x="883" y="-35"/>
      <point x="1093" y="129"/>
      <point x="1093" y="379" type="curve" smooth="yes"/>
      <point x="1093" y="593"/>
      <point x="941" y="757"/>
      <point x="620" y="871" type="curve" smooth="yes"/>
      <point x="511" y="910"/>
      <point x="424" y="982"/>
      <point x="424" y="1103" type="curve" smooth="yes"/>
      <point x="424" y="1300"/>
      <point x="495" y="1408"/>
      <point x="630" y="1408" type="curve" smooth="yes"/>
      <point x="770" y="1408"/>
      <point x="897" y="1298"/>
      <point x="897" y="1141" type="curve" smooth="yes"/>
      <point x="897" y="983"/>
      <point x="808" y="874"/>
      <point x="664" y="822" type="curve"/>
      <point x="732" y="804" type="line"/>
      <point x="901" y="869"/>
      <point x="989" y="988"/>
      <point x="989" y="1137" type="curve" smooth="yes"/>
      <point x="989" y="1325"/>
      <point x="822" y="1462"/>
      <point x="588" y="1461" type="curve" smooth="yes"/>
      <point x="328" y="1460"/>
      <point x="140" y="1316"/>
      <point x="140" y="1105" type="curve" smooth="yes"/>
      <point x="140" y="914"/>
      <point x="271" y="766"/>
      <point x="492" y="687" type="curve" smooth="yes"/>
      <point x="738" y="599"/>
      <point x="796" y="540"/>
      <point x="796" y="359" type="curve" smooth="yes"/>
      <point x="796" y="147"/>
      <point x="709" y="21"/>
      <point x="535" y="21" type="curve" smooth="yes"/>
      <point x="353" y="21"/>
      <point x="202" y="159"/>
      <point x="201" y="347" type="curve" smooth="yes"/>
      <point x="200" y="507"/>
      <point x="310" y="655"/>
      <point x="437" y="734" type="curve"/>
      <point x="377" y="758" type="line"/>
      <point x="179" y="676"/>
      <point x="74" y="529"/>
      <point x="74" y="347" type="curve" smooth="yes"/>
      <point x="74" y="110"/>
      <point x="258" y="-35"/>
    </contour>
  </outline>
</glyph>
<glyph name="nine" format="2">
  <advance width="1158"/>
  <unicode hex="0039"/>
  <note>
nine
</note>
  <outline>
    <contour>
      <point x="223" y="-46" type="line"/>
      <point x="453" y="-12"/>
      <point x="613" y="69"/>
      <point x="732" y="158" type="curve" smooth="yes"/>
      <point x="826" y="229"/>
      <point x="873" y="288"/>
      <point x="940" y="405" type="curve" smooth="yes"/>
      <point x="1029" y="561"/>
      <point x="1089" y="774"/>
      <point x="1089" y="965" type="curve" smooth="yes"/>
      <point x="1089" y="1301"/>
      <point x="898" y="1477"/>
      <point x="583" y="1477" type="curve" smooth="yes"/>
      <point x="269" y="1477"/>
      <point x="53" y="1293"/>
      <point x="53" y="1012" type="curve" smooth="yes"/>
      <point x="53" y="739"/>
      <point x="272" y="553"/>
      <point x="555" y="553" type="curve" smooth="yes"/>
      <point x="692" y="553"/>
      <point x="749" y="597"/>
      <point x="804" y="665" type="curve"/>
      <point x="788" y="664" type="line"/>
      <point x="751" y="525"/>
      <point x="747" y="444"/>
      <point x="669" y="337" type="curve" smooth="yes"/>
      <point x="581" y="215"/>
      <point x="411" y="78"/>
      <point x="223" y="43" type="curve"/>
    </contour>
    <contour>
      <point x="554" y="608" type="curve" smooth="yes"/>
      <point x="428" y="608"/>
      <point x="344" y="798"/>
      <point x="344" y="1019" type="curve" smooth="yes"/>
      <point x="344" y="1263"/>
      <point x="448" y="1424"/>
      <point x="568" y="1424" type="curve" smooth="yes"/>
      <point x="694" y="1424"/>
      <point x="803" y="1243"/>
      <point x="803" y="1013" type="curve" smooth="yes"/>
      <point x="803" y="765"/>
      <point x="668" y="608"/>
    </contour>
  </outline>
</glyph>
<glyph name="greater" format="2">
  <advance width="1088"/>
  <unicode hex="003E"/>
  <note>
greater
</note>
  <outline>
    <contour>
      <point x="121" y="194" type="line"/>
      <point x="1019" y="614" type="line"/>
      <point x="1019" y="752" type="line"/>
      <point x="121" y="1172" type="line"/>
      <point x="121" y="1012" type="line"/>
      <point x="826" y="684" type="line"/>
      <point x="121" y="354" type="line"/>
    </contour>
  </outline>
</glyph>
<glyph name="at" format="2">
  <advance width="1781"/>
  <unicode hex="0040"/>
  <note>
at
</note>
  <outline>
    <contour>
      <point x="936" y="-45" type="curve" smooth="yes"/>
      <point x="1241" y="-45"/>
      <point x="1516" y="126"/>
      <point x="1649" y="357" type="curve"/>
      <point x="1487" y="357" type="line"/>
      <point x="1352" y="137"/>
      <point x="1161" y="21"/>
      <point x="936" y="21" type="curve" smooth="yes"/>
      <point x="580" y="21"/>
      <point x="291" y="332"/>
      <point x="291" y="716" type="curve" smooth="yes"/>
      <point x="291" y="1098"/>
      <point x="580" y="1409"/>
      <point x="936" y="1409" type="curve" smooth="yes"/>
      <point x="1256" y="1409"/>
      <point x="1475" y="1163"/>
      <point x="1475" y="842" type="curve" smooth="yes"/>
      <point x="1475" y="735"/>
      <point x="1442" y="610"/>
      <point x="1398" y="546" type="curve" smooth="yes"/>
      <point x="1352" y="479"/>
      <point x="1247" y="365"/>
      <point x="1244" y="365" type="curve" smooth="yes"/>
      <point x="1219" y="365"/>
      <point x="1231" y="375"/>
      <point x="1224" y="415" type="curve"/>
      <point x="1394" y="1095" type="line"/>
      <point x="1096" y="1095" type="line"/>
      <point x="1092" y="1080" type="line"/>
      <point x="1052" y="1105"/>
      <point x="999" y="1117"/>
      <point x="932" y="1117" type="curve" smooth="yes"/>
      <point x="650" y="1117"/>
      <point x="395" y="849"/>
      <point x="395" y="556" type="curve" smooth="yes"/>
      <point x="395" y="373"/>
      <point x="527" y="259"/>
      <point x="732" y="259" type="curve" smooth="yes"/>
      <point x="835" y="259"/>
      <point x="914" y="288"/>
      <point x="983" y="354" type="curve"/>
      <point x="1022" y="301"/>
      <point x="1083" y="273"/>
      <point x="1162" y="273" type="curve" smooth="yes"/>
      <point x="1238" y="273"/>
      <point x="1328" y="307"/>
      <point x="1393" y="357" type="curve" smooth="yes"/>
      <point x="1473" y="420"/>
      <point x="1531" y="483"/>
      <point x="1568" y="553" type="curve" smooth="yes"/>
      <point x="1621" y="654"/>
      <point x="1641" y="731"/>
      <point x="1641" y="838" type="curve" smooth="yes"/>
      <point x="1641" y="1228"/>
      <point x="1334" y="1475"/>
      <point x="936" y="1475" type="curve" smooth="yes"/>
      <point x="489" y="1475"/>
      <point x="125" y="1134"/>
      <point x="125" y="716" type="curve" smooth="yes"/>
      <point x="125" y="295"/>
      <point x="488" y="-45"/>
    </contour>
    <contour>
      <point x="770" y="329" type="curve" smooth="yes"/>
      <point x="733" y="329"/>
      <point x="699" y="419"/>
      <point x="699" y="538" type="curve" smooth="yes"/>
      <point x="699" y="775"/>
      <point x="841" y="1051"/>
      <point x="952" y="1051" type="curve" smooth="yes"/>
      <point x="988" y="1051"/>
      <point x="1019" y="970"/>
      <point x="1019" y="860" type="curve" smooth="yes"/>
      <point x="1019" y="623"/>
      <point x="875" y="329"/>
    </contour>
  </outline>
</glyph>
<glyph name="A" format="2">
  <advance width="1452"/>
  <unicode hex="0041"/>
  <note>
A
</note>
  <anchor x="700" y="-80" name="bottom"/>
  <anchor x="1106" y="0" name="ogonek"/>
  <anchor x="724" y="1350" name="top"/>
  <outline>
    <contour>
      <point x="63" y="0" type="line"/>
      <point x="172" y="0" type="line"/>
      <point x="647" y="1072" type="line"/>
      <point x="604" y="1012" type="line"/>
      <point x="1056" y="0" type="line"/>
      <point x="1390" y="0" type="line"/>
      <point x="724" y="1500" type="line"/>
    </contour>
    <contour>
      <point x="275" y="391" type="line"/>
      <point x="993" y="391" type="line"/>
      <point x="967" y="457" type="line"/>
      <point x="303" y="457" type="line"/>
    </contour>
  </outline>
</glyph>
<glyph name="B" format="2">
  <advance width="1373"/>
  <unicode hex="0042"/>
  <note>
B
</note>
  <anchor x="711" y="0" name="bottom"/>
  <anchor x="711" y="1430" name="top"/>
  <outline>
    <contour>
      <point x="167" y="0" type="line"/>
      <point x="624" y="0" type="line" smooth="yes"/>
      <point x="1057" y="0"/>
      <point x="1285" y="121"/>
      <point x="1285" y="415" type="curve" smooth="yes"/>
      <point x="1285" y="618"/>
      <point x="1161" y="725"/>
      <point x="941" y="769" type="curve"/>
      <point x="941" y="767" type="line"/>
      <point x="1123" y="827"/>
      <point x="1213" y="912"/>
      <point x="1213" y="1059" type="curve" smooth="yes"/>
      <point x="1213" y="1315"/>
      <point x="982" y="1445"/>
      <point x="624" y="1445" type="curve" smooth="yes"/>
      <point x="167" y="1445" type="line"/>
    </contour>
    <contour>
      <point x="503" y="14" type="line"/>
      <point x="503" y="757" type="line"/>
      <point x="391" y="732" type="line"/>
      <point x="674" y="732" type="line" smooth="yes"/>
      <point x="834" y="732"/>
      <point x="917" y="583"/>
      <point x="917" y="415" type="curve" smooth="yes"/>
      <point x="917" y="204"/>
      <point x="791" y="66"/>
      <point x="624" y="66" type="curve" smooth="yes"/>
      <point x="210" y="66" type="line"/>
    </contour>
    <contour>
      <point x="503" y="773" type="line"/>
      <point x="503" y="1421" type="line"/>
      <point x="210" y="1379" type="line"/>
      <point x="624" y="1379" type="line" smooth="yes"/>
      <point x="817" y="1379"/>
      <point x="855" y="1166"/>
      <point x="855" y="1039" type="curve" smooth="yes"/>
      <point x="855" y="862"/>
      <point x="790" y="798"/>
      <point x="624" y="798" type="curve" smooth="yes"/>
      <point x="429" y="798" type="line"/>
    </contour>
  </outline>
</glyph>
<glyph name="C" format="2">
  <advance width="1575"/>
  <unicode hex="0043"/>
  <note>
C
</note>
  <anchor x="800" y="-20" name="bottom"/>
  <anchor x="844" y="1430" name="top"/>
  <outline>
    <contour>
      <point x="849" y="-41" type="curve" smooth="yes"/>
      <point x="1132" y="-41"/>
      <point x="1384" y="109"/>
      <point x="1504" y="343" type="curve"/>
      <point x="1194" y="343" type="line"/>
      <point x="1110" y="134"/>
      <point x="991" y="29"/>
      <point x="843" y="29" type="curve" smooth="yes"/>
      <point x="602" y="29"/>
      <point x="433" y="308"/>
      <point x="433" y="715" type="curve" smooth="yes"/>
      <point x="433" y="1125"/>
      <point x="605" y="1405"/>
      <point x="844" y="1405" type="curve" smooth="yes"/>
      <point x="991" y="1405"/>
      <point x="1109" y="1300"/>
      <point x="1189" y="1093" type="curve"/>
      <point x="1498" y="1093" type="line"/>
      <point x="1409" y="1293"/>
      <point x="1136" y="1475"/>
      <point x="842" y="1475" type="curve" smooth="yes"/>
      <point x="451" y="1475"/>
      <point x="91" y="1153"/>
      <point x="91" y="718" type="curve" smooth="yes"/>
      <point x="91" y="300"/>
      <point x="422" y="-41"/>
    </contour>
  </outline>
</glyph>
<glyph name="E" format="2">
  <advance width="1241"/>
  <unicode hex="0045"/>
  <note>
E
</note>
  <anchor x="621" y="0" name="bottom"/>
  <anchor x="1099" y="0" name="ogonek"/>
  <anchor x="661" y="1445" name="top"/>
  <anchor x="44" y="1445" name="topleft"/>
  <outline>
    <contour>
      <point x="168" y="0" type="line"/>
      <point x="1148" y="0" type="line"/>
      <point x="1148" y="66" type="line"/>
      <point x="323" y="66" type="line"/>
      <point x="504" y="13" type="line"/>
      <point x="504" y="752" type="line"/>
      <point x="351" y="695" type="line"/>
      <point x="1148" y="695" type="line"/>
      <point x="1148" y="761" type="line"/>
      <point x="323" y="761" type="line"/>
      <point x="504" y="708" type="line"/>
      <point x="504" y="1431" type="line"/>
      <point x="211" y="1379" type="line"/>
      <point x="1148" y="1379" type="line"/>
      <point x="1148" y="1445" type="line"/>
      <point x="168" y="1445" type="line"/>
    </contour>
  </outline>
</glyph>
<glyph name="F" format="2">
  <advance width="1164"/>
  <unicode hex="0046"/>
  <note>
F
</note>
  <anchor x="591" y="0" name="bottom"/>
  <anchor x="591" y="1430" name="top"/>
  <outline>
    <contour>
      <point x="168" y="0" type="line"/>
      <point x="504" y="0" type="line"/>
      <point x="504" y="749" type="line"/>
      <point x="211" y="697" type="line"/>
      <point x="1088" y="697" type="line"/>
      <point x="1088" y="761" type="line"/>
      <point x="211" y="761" type="line"/>
      <point x="504" y="702" type="line"/>
      <point x="504" y="1421" type="line"/>
      <point x="211" y="1379" type="line"/>
      <point x="1088" y="1379" type="line"/>
      <point x="1088" y="1445" type="line"/>
      <point x="168" y="1445" type="line"/>
    </contour>
  </outline>
</glyph>
<glyph name="J" format="2">
  <advance width="994"/>
  <unicode hex="004A"/>
  <note>
J
</note>
  <anchor x="526" y="0" name="bottom"/>
  <anchor x="526" y="1430" name="top"/>
  <outline>
    <contour>
      <point x="76" y="-10" type="line"/>
      <point x="107" y="-90"/>
      <point x="280" y="-167"/>
      <point x="436" y="-167" type="curve" smooth="yes"/>
      <point x="684" y="-167"/>
      <point x="836" y="27"/>
      <point x="836" y="374" type="curve" smooth="yes"/>
      <point x="836" y="1445" type="line"/>
      <point x="500" y="1445" type="line"/>
      <point x="500" y="336" type="line" smooth="yes"/>
      <point x="500" y="-15"/>
      <point x="461" y="-83"/>
      <point x="397" y="-83" type="curve" smooth="yes"/>
      <point x="347" y="-83"/>
      <point x="207" y="-42"/>
      <point x="76" y="249" type="curve"/>
    </contour>
  </outline>
</glyph>
<glyph name="K" format="2">
  <advance width="1474"/>
  <unicode hex="004B"/>
  <note>
K
</note>
  <guideline x="963" y="1108" angle="50.0776"/>
  <anchor x="739" y="0" name="bottom"/>
  <anchor x="739" y="1430" name="top"/>
  <outline>
    <contour>
      <point x="168" y="0" type="line"/>
      <point x="504" y="0" type="line"/>
      <point x="504" y="1445" type="line"/>
      <point x="168" y="1445" type="line"/>
    </contour>
    <contour>
      <point x="418" y="483" type="line"/>
      <point x="1285" y="1445" type="line"/>
      <point x="1135" y="1445" type="line"/>
      <point x="329" y="549" type="line"/>
    </contour>
    <contour>
      <point x="1040" y="0" type="line"/>
      <point x="1417" y="0" type="line"/>
      <point x="683" y="932" type="line"/>
      <point x="490" y="702" type="line"/>
    </contour>
  </outline>
</glyph>
<glyph name="L" format="2">
  <advance width="1177"/>
  <unicode hex="004C"/>
  <note>
L
</note>
  <anchor x="591" y="0" name="bottom"/>
  <anchor x="341" y="715" name="center"/>
  <anchor x="895" y="744" name="dot"/>
  <anchor x="1064" y="10" name="ogonek"/>
  <anchor x="411" y="1430" name="top"/>
  <anchor x="6" y="1430" name="topleft"/>
  <anchor x="840" y="1430" name="topright"/>
  <outline>
    <contour>
      <point x="168" y="0" type="line"/>
      <point x="1118" y="0" type="line"/>
      <point x="1118" y="51" type="line"/>
      <point x="211" y="51" type="line"/>
      <point x="504" y="24" type="line"/>
      <point x="504" y="1445" type="line"/>
      <point x="168" y="1445" type="line"/>
    </contour>
  </outline>
</glyph>
<glyph name="N" format="2">
  <advance width="1550"/>
  <unicode hex="004E"/>
  <note>
N
</note>
  <anchor x="775" y="0" name="bottom"/>
  <anchor x="775" y="1430" name="top"/>
  <outline>
    <contour>
      <point x="178" y="0" type="line"/>
      <point x="260" y="0" type="line"/>
      <point x="260" y="1310" type="line"/>
      <point x="194" y="1091" type="line"/>
      <point x="1366" y="0" type="line"/>
      <point x="1382" y="0" type="line"/>
      <point x="1382" y="1445" type="line"/>
      <point x="1300" y="1445" type="line"/>
      <point x="1300" y="109" type="line"/>
      <point x="1369" y="346" type="line"/>
      <point x="188" y="1445" type="line"/>
      <point x="168" y="1445" type="line"/>
    </contour>
  </outline>
</glyph>
<glyph name="O" format="2">
  <advance width="1688"/>
  <unicode hex="004F"/>
  <note>
O
</note>
  <anchor x="844" y="0" name="bottom"/>
  <anchor x="844" y="715" name="center"/>
  <anchor x="990" y="0" name="ogonek"/>
  <anchor x="844" y="1430" name="top"/>
  <anchor x="42" y="1430" name="topleft"/>
  <anchor x="1456" y="1430" name="topright"/>
  <outline>
    <contour>
      <point x="845" y="-41" type="curve" smooth="yes"/>
      <point x="1273" y="-41"/>
      <point x="1596" y="287"/>
      <point x="1596" y="712" type="curve" smooth="yes"/>
      <point x="1596" y="1143"/>
      <point x="1262" y="1475"/>
      <point x="845" y="1475" type="curve" smooth="yes"/>
      <point x="423" y="1475"/>
      <point x="92" y="1139"/>
      <point x="92" y="712" type="curve" smooth="yes"/>
      <point x="92" y="288"/>
      <point x="416" y="-41"/>
    </contour>
    <contour>
      <point x="845" y="19" type="curve" smooth="yes"/>
      <point x="608" y="19"/>
      <point x="434" y="302"/>
      <point x="434" y="712" type="curve" smooth="yes"/>
      <point x="434" y="1121"/>
      <point x="607" y="1415"/>
      <point x="845" y="1415" type="curve" smooth="yes"/>
      <point x="1082" y="1415"/>
      <point x="1254" y="1121"/>
      <point x="1254" y="712" type="curve" smooth="yes"/>
      <point x="1254" y="303"/>
      <point x="1083" y="19"/>
    </contour>
  </outline>
</glyph>
<glyph name="Q" format="2">
  <advance width="1688"/>
  <unicode hex="0051"/>
  <note>
Q
</note>
  <anchor x="825" y="0" name="bottom"/>
  <anchor x="825" y="1430" name="top"/>
  <anchor x="844" y="715" name="center"/>
  <anchor x="990" y="0" name="ogonek"/>
  <anchor x="42" y="1430" name="topleft"/>
  <anchor x="1646" y="1430" name="topright"/>
  <outline>
    <contour>
      <point x="1103" y="-423" type="curve" smooth="yes"/>
      <point x="1237" y="-423"/>
      <point x="1289" y="-412"/>
      <point x="1289" y="-335" type="curve"/>
      <point x="1235" y="-335"/>
      <point x="1180" y="-335"/>
      <point x="1126" y="-335" type="curve" smooth="yes"/>
      <point x="1030" y="-335"/>
      <point x="977" y="-286"/>
      <point x="977" y="-196" type="curve" smooth="yes"/>
      <point x="977" y="7" type="line"/>
      <point x="653" y="7" type="line"/>
      <point x="653" y="-182" type="line" smooth="yes"/>
      <point x="653" y="-280"/>
      <point x="742" y="-349"/>
      <point x="841" y="-385" type="curve" smooth="yes"/>
      <point x="934" y="-419"/>
      <point x="1022" y="-423"/>
    </contour>
    <component base="O"/>
  </outline>
</glyph>
<glyph name="R" format="2">
  <advance width="1347"/>
  <unicode hex="0052"/>
  <note>
R
</note>
  <anchor x="674" y="0" name="bottom"/>
  <anchor x="674" y="1430" name="top"/>
  <outline>
    <contour>
      <point x="168" y="0" type="line"/>
      <point x="504" y="0" type="line"/>
      <point x="504" y="758" type="line"/>
      <point x="323" y="705" type="line"/>
      <point x="575" y="705" type="line"/>
      <point x="847" y="706" type="line"/>
      <point x="1048" y="718"/>
      <point x="1194" y="865"/>
      <point x="1194" y="1072" type="curve" smooth="yes"/>
      <point x="1194" y="1315"/>
      <point x="995" y="1445"/>
      <point x="625" y="1445" type="curve" smooth="yes"/>
      <point x="168" y="1445" type="line"/>
    </contour>
    <contour>
      <point x="323" y="771" type="line"/>
      <point x="504" y="718" type="line"/>
      <point x="504" y="1432" type="line"/>
      <point x="323" y="1379" type="line"/>
      <point x="625" y="1379" type="line" smooth="yes"/>
      <point x="781" y="1379"/>
      <point x="846" y="1289"/>
      <point x="846" y="1076" type="curve" smooth="yes"/>
      <point x="846" y="857"/>
      <point x="784" y="771"/>
      <point x="625" y="771" type="curve" smooth="yes"/>
    </contour>
    <contour>
      <point x="575" y="705" type="line"/>
      <point x="691" y="705"/>
      <point x="712" y="705"/>
      <point x="765" y="591" type="curve" smooth="yes"/>
      <point x="783" y="553"/>
      <point x="793" y="514"/>
      <point x="860" y="215" type="curve" smooth="yes"/>
      <point x="880" y="126"/>
      <point x="892" y="84"/>
      <point x="913" y="0" type="curve"/>
      <point x="1263" y="0" type="line"/>
      <point x="1242" y="74"/>
      <point x="1220" y="147"/>
      <point x="1193" y="271" type="curve" smooth="yes"/>
      <point x="1121" y="599"/>
      <point x="1117" y="610"/>
      <point x="1044" y="685" type="curve" smooth="yes"/>
      <point x="1013" y="717"/>
      <point x="919" y="752"/>
      <point x="864" y="752" type="curve"/>
    </contour>
  </outline>
</glyph>
<glyph name="S" format="2">
  <advance width="1277"/>
  <unicode hex="0053"/>
  <note>
S
</note>
  <anchor x="639" y="0" name="bottom"/>
  <anchor x="639" y="1430" name="top"/>
  <outline>
    <contour>
      <point x="643" y="-41" type="curve" smooth="yes"/>
      <point x="1030" y="-41"/>
      <point x="1190" y="93"/>
      <point x="1190" y="416" type="curve" smooth="yes"/>
      <point x="1190" y="646"/>
      <point x="1011" y="788"/>
      <point x="685" y="890" type="curve" smooth="yes"/>
      <point x="485" y="952"/>
      <point x="416" y="1019"/>
      <point x="416" y="1147" type="curve" smooth="yes"/>
      <point x="416" y="1286"/>
      <point x="510" y="1419"/>
      <point x="608" y="1419" type="curve" smooth="yes"/>
      <point x="717" y="1419"/>
      <point x="836" y="1259"/>
      <point x="841" y="1105" type="curve"/>
      <point x="1124" y="1105" type="line"/>
      <point x="1091" y="1335"/>
      <point x="899" y="1479"/>
      <point x="625" y="1479" type="curve" smooth="yes"/>
      <point x="282" y="1479"/>
      <point x="128" y="1349"/>
      <point x="128" y="1060" type="curve" smooth="yes"/>
      <point x="128" y="891"/>
      <point x="250" y="786"/>
      <point x="585" y="668" type="curve" smooth="yes"/>
      <point x="819" y="585"/>
      <point x="916" y="494"/>
      <point x="916" y="358" type="curve" smooth="yes"/>
      <point x="916" y="175"/>
      <point x="799" y="25"/>
      <point x="657" y="25" type="curve" smooth="yes"/>
      <point x="511" y="25"/>
      <point x="401" y="187"/>
      <point x="380" y="435" type="curve"/>
      <point x="89" y="435" type="line"/>
      <point x="111" y="123"/>
      <point x="301" y="-41"/>
    </contour>
  </outline>
</glyph>
<glyph name="T" format="2">
  <advance width="1310"/>
  <unicode hex="0054"/>
  <note>
T
</note>
  <anchor x="655" y="0" name="bottom"/>
  <anchor x="655" y="715" name="center"/>
  <anchor x="655" y="1430" name="top"/>
  <outline>
    <contour>
      <point x="489" y="0" type="line"/>
      <point x="825" y="0" type="line"/>
      <point x="825" y="1411" type="line"/>
      <point x="532" y="1379" type="line"/>
      <point x="1249" y="1379" type="line"/>
      <point x="1249" y="1445" type="line"/>
      <point x="61" y="1445" type="line"/>
      <point x="61" y="1379" type="line"/>
      <point x="782" y="1379" type="line"/>
      <point x="489" y="1411" type="line"/>
    </contour>
  </outline>
</glyph>
<glyph name="U" format="2">
  <advance width="1580"/>
  <unicode hex="0055"/>
  <note>
U
</note>
  <anchor x="788" y="13" name="bottom"/>
  <anchor x="919" y="0" name="ogonek"/>
  <anchor x="788" y="1443" name="top"/>
  <anchor x="1480" y="1443" name="topright"/>
  <outline>
    <contour>
      <point x="790" y="-41" type="curve" smooth="yes"/>
      <point x="1149" y="-41"/>
      <point x="1441" y="228"/>
      <point x="1441" y="539" type="curve" smooth="yes"/>
      <point x="1441" y="1445" type="line"/>
      <point x="1275" y="1445" type="line"/>
      <point x="1275" y="522" type="line" smooth="yes"/>
      <point x="1275" y="214"/>
      <point x="1023" y="25"/>
      <point x="792" y="25" type="curve" smooth="yes"/>
      <point x="561" y="25"/>
      <point x="475" y="213"/>
      <point x="475" y="552" type="curve" smooth="yes"/>
      <point x="475" y="1445" type="line"/>
      <point x="139" y="1445" type="line"/>
      <point x="139" y="560" type="line" smooth="yes"/>
      <point x="139" y="228"/>
      <point x="431" y="-41"/>
    </contour>
  </outline>
</glyph>
<glyph name="V" format="2">
  <advance width="1336"/>
  <unicode hex="0056"/>
  <note>
V
</note>
  <anchor x="668" y="0" name="bottom"/>
  <anchor x="668" y="1430" name="top"/>
  <outline>
    <contour>
      <point x="669" y="-40" type="line"/>
      <point x="1272" y="1445" type="line"/>
      <point x="1113" y="1445" type="line"/>
      <point x="631" y="257" type="line"/>
      <point x="838" y="415" type="line"/>
      <point x="427" y="1445" type="line"/>
      <point x="64" y="1445" type="line"/>
    </contour>
  </outline>
</glyph>
<glyph name="W" format="2">
  <advance width="1898"/>
  <unicode hex="0057"/>
  <note>
W
</note>
  <anchor x="956" y="0" name="bottom"/>
  <anchor x="956" y="1430" name="top"/>
  <outline>
    <contour>
      <point x="1296" y="-29" type="line"/>
      <point x="1833" y="1445" type="line"/>
      <point x="1675" y="1445" type="line"/>
      <point x="1298" y="376" type="line"/>
      <point x="1459" y="441" type="line"/>
      <point x="1060" y="1445" type="line"/>
      <point x="691" y="1445" type="line"/>
    </contour>
    <contour>
      <point x="664" y="-29" type="line"/>
      <point x="1004" y="903" type="line"/>
      <point x="922" y="1105" type="line"/>
      <point x="666" y="376" type="line"/>
      <point x="827" y="441" type="line"/>
      <point x="426" y="1445" type="line"/>
      <point x="64" y="1445" type="line"/>
    </contour>
    <contour>
      <point x="1040" y="903" type="line"/>
      <point x="1238" y="1445" type="line"/>
      <point x="1078" y="1445" type="line"/>
      <point x="958" y="1105" type="line"/>
    </contour>
  </outline>
</glyph>
<glyph name="Y" format="2">
  <advance width="1214"/>
  <unicode hex="0059"/>
  <note>
Y
</note>
  <anchor x="607" y="0" name="bottom"/>
  <anchor x="607" y="1430" name="top"/>
  <anchor x="38" y="1430" name="topleft"/>
  <outline>
    <contour>
      <point x="440" y="0" type="line"/>
      <point x="776" y="0" type="line"/>
      <point x="776" y="617" type="line"/>
      <point x="1152" y="1445" type="line"/>
      <point x="986" y="1445" type="line"/>
      <point x="526" y="436" type="line"/>
      <point x="785" y="671" type="line"/>
      <point x="428" y="1445" type="line"/>
      <point x="62" y="1445" type="line"/>
      <point x="440" y="615" type="line"/>
    </contour>
  </outline>
</glyph>
<glyph name="bracketleft" format="2">
  <advance width="677"/>
  <unicode hex="005B"/>
  <note>
bracketleft
</note>
  <outline>
    <contour>
      <point x="164" y="-417" type="line"/>
      <point x="610" y="-417" type="line"/>
      <point x="610" y="-317" type="line"/>
      <point x="364" y="-317" type="line"/>
      <point x="364" y="1377" type="line"/>
      <point x="610" y="1377" type="line"/>
      <point x="610" y="1477" type="line"/>
      <point x="164" y="1477" type="line"/>
    </contour>
  </outline>
</glyph>
<glyph name="bracketright" format="2">
  <advance width="677"/>
  <unicode hex="005D"/>
  <note>
bracketright
</note>
  <outline>
    <contour>
      <point x="67" y="-417" type="line"/>
      <point x="513" y="-417" type="line"/>
      <point x="513" y="1477" type="line"/>
      <point x="67" y="1477" type="line"/>
      <point x="67" y="1377" type="line"/>
      <point x="313" y="1377" type="line"/>
      <point x="313" y="-317" type="line"/>
      <point x="67" y="-317" type="line"/>
    </contour>
  </outline>
</glyph>
<glyph name="asciicircum" format="2">
  <advance width="1132"/>
  <unicode hex="005E"/>
  <note>
asciicircum
</note>
  <outline>
    <contour>
      <point x="110" y="831" type="line"/>
      <point x="321" y="831" type="line"/>
      <point x="587" y="1303" type="line"/>
      <point x="543" y="1303" type="line"/>
      <point x="811" y="831" type="line"/>
      <point x="1022" y="831" type="line"/>
      <point x="677" y="1445" type="line"/>
      <point x="455" y="1445" type="line"/>
    </contour>
  </outline>
</glyph>
<glyph name="underscore" format="2">
  <advance width="1690"/>
  <unicode hex="005F"/>
  <note>
underscore
</note>
  <outline>
    <contour>
      <point x="80" y="-449" type="line"/>
      <point x="1610" y="-449" type="line"/>
      <point x="1610" y="-349" type="line"/>
      <point x="80" y="-349" type="line"/>
    </contour>
  </outline>
</glyph>
<glyph name="a" format="2">
  <advance width="1322"/>
  <unicode hex="0061"/>
  <note>
a
</note>
  <anchor x="571" y="0" name="bottom"/>
  <anchor x="1070" y="0" name="ogonek"/>
  <anchor x="571" y="949" name="top"/>
  <outline>
    <contour>
      <point x="546" y="-36" type="curve"/>
      <point x="759" y="-36"/>
      <point x="904" y="72"/>
      <point x="953" y="266" type="curve"/>
      <point x="865" y="320" type="line"/>
      <point x="865" y="0" type="line"/>
      <point x="1197" y="0" type="line"/>
      <point x="1197" y="944" type="line"/>
      <point x="861" y="944" type="line"/>
      <point x="861" y="604" type="line"/>
      <point x="949" y="659" type="line"/>
      <point x="904" y="855"/>
      <point x="755" y="970"/>
      <point x="540" y="970" type="curve"/>
      <point x="252" y="970"/>
      <point x="63" y="768"/>
      <point x="63" y="460" type="curve"/>
      <point x="63" y="162"/>
      <point x="253" y="-36"/>
    </contour>
    <contour>
      <point x="577" y="36" type="curve"/>
      <point x="470" y="36"/>
      <point x="399" y="205"/>
      <point x="399" y="465" type="curve"/>
      <point x="399" y="731"/>
      <point x="469" y="898"/>
      <point x="572" y="898" type="curve"/>
      <point x="693" y="898"/>
      <point x="805" y="692"/>
      <point x="805" y="457" type="curve"/>
      <point x="805" y="234"/>
      <point x="698" y="36"/>
    </contour>
  </outline>
</glyph>
<glyph name="b" format="2">
  <advance width="1259"/>
  <unicode hex="0062"/>
  <note>
b
</note>
  <anchor x="647" y="0" name="bottom"/>
  <anchor x="647" y="1524" name="top"/>
  <outline>
    <contour>
      <point x="733" y="-36" type="curve"/>
      <point x="1024" y="-36"/>
      <point x="1196" y="161"/>
      <point x="1196" y="460" type="curve"/>
      <point x="1196" y="777"/>
      <point x="1000" y="960"/>
      <point x="719" y="960" type="curve"/>
      <point x="497" y="960"/>
      <point x="425" y="845"/>
      <point x="380" y="649" type="curve"/>
      <point x="468" y="594" type="line"/>
      <point x="468" y="1524" type="line"/>
      <point x="136" y="1524" type="line"/>
      <point x="136" y="0" type="line"/>
      <point x="464" y="0" type="line"/>
      <point x="464" y="310" type="line"/>
      <point x="366" y="266" type="line"/>
      <point x="415" y="72"/>
      <point x="518" y="-36"/>
    </contour>
    <contour>
      <point x="682" y="36" type="curve"/>
      <point x="565" y="36"/>
      <point x="454" y="216"/>
      <point x="454" y="447" type="curve"/>
      <point x="454" y="684"/>
      <point x="567" y="888"/>
      <point x="687" y="888" type="curve"/>
      <point x="791" y="888"/>
      <point x="860" y="733"/>
      <point x="860" y="465" type="curve"/>
      <point x="860" y="197"/>
      <point x="793" y="36"/>
    </contour>
  </outline>
</glyph>
<glyph name="d" format="2">
  <advance width="1259"/>
  <unicode hex="0064"/>
  <note>
d
</note>
  <anchor x="543" y="0" name="bottom"/>
  <anchor x="952" y="1291" name="center"/>
  <anchor x="613" y="1524" name="top"/>
  <anchor x="1282" y="1519" name="topright"/>
  <outline>
    <contour>
      <point x="526" y="-36" type="curve"/>
      <point x="741" y="-36"/>
      <point x="844" y="72"/>
      <point x="893" y="266" type="curve"/>
      <point x="795" y="310" type="line"/>
      <point x="795" y="0" type="line"/>
      <point x="1123" y="0" type="line"/>
      <point x="1123" y="1524" type="line"/>
      <point x="791" y="1524" type="line"/>
      <point x="791" y="594" type="line"/>
      <point x="879" y="649" type="line"/>
      <point x="834" y="845"/>
      <point x="762" y="960"/>
      <point x="540" y="960" type="curve"/>
      <point x="259" y="960"/>
      <point x="63" y="779"/>
      <point x="63" y="460" type="curve"/>
      <point x="63" y="163"/>
      <point x="235" y="-36"/>
    </contour>
    <contour>
      <point x="577" y="36" type="curve"/>
      <point x="467" y="36"/>
      <point x="399" y="195"/>
      <point x="399" y="465" type="curve"/>
      <point x="399" y="731"/>
      <point x="467" y="888"/>
      <point x="572" y="888" type="curve"/>
      <point x="691" y="888"/>
      <point x="805" y="684"/>
      <point x="805" y="447" type="curve"/>
      <point x="805" y="216"/>
      <point x="695" y="36"/>
    </contour>
  </outline>
</glyph>
<glyph name="e" format="2">
  <advance width="1146"/>
  <unicode hex="0065"/>
  <note>
e
</note>
  <anchor x="564" y="-10" name="bottom"/>
  <anchor x="719" y="10" name="ogonek"/>
  <anchor x="584" y="939" name="top"/>
  <outline>
    <contour>
      <point x="588" y="-31" type="curve"/>
      <point x="826" y="-31"/>
      <point x="987" y="80"/>
      <point x="1070" y="305" type="curve"/>
      <point x="865" y="305" type="line"/>
      <point x="840" y="167"/>
      <point x="693" y="40"/>
      <point x="597" y="40" type="curve"/>
      <point x="479" y="40"/>
      <point x="397" y="228"/>
      <point x="397" y="457" type="curve"/>
      <point x="397" y="618"/>
      <point x="482" y="884"/>
      <point x="588" y="884" type="curve"/>
      <point x="663" y="884"/>
      <point x="735" y="735"/>
      <point x="760" y="504" type="curve"/>
      <point x="1094" y="504" type="line"/>
      <point x="1049" y="794"/>
      <point x="874" y="955"/>
      <point x="582" y="955" type="curve"/>
      <point x="275" y="955"/>
      <point x="61" y="755"/>
      <point x="61" y="459" type="curve"/>
      <point x="61" y="164"/>
      <point x="274" y="-31"/>
    </contour>
    <contour>
      <point x="370" y="503" type="line"/>
      <point x="1030" y="504" type="line"/>
      <point x="1030" y="567" type="line"/>
      <point x="348" y="567" type="line"/>
    </contour>
  </outline>
</glyph>
<glyph name="f" format="2">
  <advance width="752"/>
  <unicode hex="0066"/>
  <note>
f
</note>
  <anchor x="376" y="0" name="bottom"/>
  <anchor x="376" y="1524" name="top"/>
  <outline>
    <contour>
      <point x="204" y="0" type="line"/>
      <point x="536" y="0" type="line"/>
      <point x="536" y="1052" type="line"/>
      <point x="536" y="1185"/>
      <point x="470" y="1435"/>
      <point x="558" y="1488" type="curve"/>
      <point x="632" y="1472"/>
      <point x="609" y="1447"/>
      <point x="609" y="1399" type="curve"/>
      <point x="609" y="1371"/>
      <point x="601" y="1314"/>
      <point x="591" y="1274" type="curve"/>
      <point x="808" y="1274" type="line"/>
      <point x="816" y="1326"/>
      <point x="819" y="1357"/>
      <point x="819" y="1376" type="curve"/>
      <point x="819" y="1504"/>
      <point x="687" y="1579"/>
      <point x="508" y="1579" type="curve"/>
      <point x="290" y="1579"/>
      <point x="204" y="1468"/>
      <point x="204" y="1152" type="curve"/>
    </contour>
    <contour>
      <point x="30" y="874" type="line"/>
      <point x="722" y="874" type="line"/>
      <point x="722" y="944" type="line"/>
      <point x="30" y="944" type="line"/>
    </contour>
  </outline>
</glyph>
<glyph name="h" format="2">
  <advance width="1239"/>
  <unicode hex="0068"/>
  <note>
h
</note>
  <anchor x="620" y="0" name="bottom"/>
  <anchor x="314" y="1331" name="center"/>
  <anchor x="620" y="1524" name="top"/>
  <outline>
    <contour>
      <point x="136" y="0" type="line"/>
      <point x="470" y="0" type="line"/>
      <point x="470" y="462" type="line"/>
      <point x="470" y="702"/>
      <point x="594" y="883"/>
      <point x="705" y="883" type="curve"/>
      <point x="788" y="883"/>
      <point x="804" y="781"/>
      <point x="804" y="526" type="curve"/>
      <point x="804" y="0" type="line"/>
      <point x="1136" y="0" type="line"/>
      <point x="1136" y="608" type="line"/>
      <point x="1136" y="818"/>
      <point x="969" y="955"/>
      <point x="730" y="955" type="curve"/>
      <point x="524" y="955"/>
      <point x="375" y="854"/>
      <point x="317" y="685" type="curve"/>
      <point x="468" y="471" type="line"/>
      <point x="468" y="1529" type="line"/>
      <point x="136" y="1529" type="line"/>
    </contour>
  </outline>
</glyph>
<glyph name="k" format="2">
  <advance width="1169"/>
  <unicode hex="006B"/>
  <note>
k
</note>
  <guideline x="831" y="680" angle="49.4556"/>
  <anchor x="586" y="0" name="bottom"/>
  <anchor x="586" y="1524" name="top"/>
  <outline>
    <contour>
      <point x="136" y="0" type="line"/>
      <point x="468" y="0" type="line"/>
      <point x="468" y="1529" type="line"/>
      <point x="136" y="1529" type="line"/>
    </contour>
    <contour>
      <point x="813" y="0" type="line"/>
      <point x="1143" y="0" type="line"/>
      <point x="661" y="586" type="line"/>
      <point x="497" y="377" type="line"/>
    </contour>
    <contour>
      <point x="410" y="188" type="line"/>
      <point x="1059" y="945" type="line"/>
      <point x="873" y="945" type="line"/>
      <point x="433" y="432" type="line"/>
    </contour>
  </outline>
</glyph>
<glyph name="l" format="2">
  <advance width="604"/>
  <unicode hex="006C"/>
  <note>
l
</note>
  <anchor x="272" y="0" name="bottom"/>
  <anchor x="302" y="782" name="center"/>
  <anchor x="775" y="783" name="dot"/>
  <anchor x="392" y="1529" name="top"/>
  <anchor x="587" y="1504" name="topright"/>
  <outline>
    <contour>
      <point x="136" y="0" type="line"/>
      <point x="468" y="0" type="line"/>
      <point x="468" y="1529" type="line"/>
      <point x="136" y="1529" type="line"/>
    </contour>
  </outline>
</glyph>
<glyph name="o" format="2">
  <advance width="1181"/>
  <unicode hex="006F"/>
  <note>
o
</note>
  <anchor x="591" y="0" name="bottom"/>
  <anchor x="591" y="460" name="center"/>
  <anchor x="722" y="0" name="ogonek"/>
  <anchor x="591" y="949" name="top"/>
  <anchor x="1143" y="919" name="topright"/>
  <outline>
    <contour>
      <point x="591" y="-36" type="curve"/>
      <point x="906" y="-36"/>
      <point x="1118" y="154"/>
      <point x="1118" y="461" type="curve"/>
      <point x="1118" y="768"/>
      <point x="906" y="969"/>
      <point x="591" y="969" type="curve"/>
      <point x="274" y="969"/>
      <point x="63" y="766"/>
      <point x="63" y="461" type="curve"/>
      <point x="63" y="154"/>
      <point x="276" y="-36"/>
    </contour>
    <contour>
      <point x="591" y="36" type="curve"/>
      <point x="497" y="36"/>
      <point x="401" y="238"/>
      <point x="401" y="461" type="curve"/>
      <point x="401" y="686"/>
      <point x="498" y="897"/>
      <point x="591" y="897" type="curve"/>
      <point x="684" y="897"/>
      <point x="783" y="684"/>
      <point x="783" y="461" type="curve"/>
      <point x="783" y="239"/>
      <point x="685" y="36"/>
    </contour>
  </outline>
</glyph>
<glyph name="r" format="2">
  <advance width="935"/>
  <unicode hex="0072"/>
  <note>
r
</note>
  <anchor x="246" y="0" name="bottom"/>
  <anchor x="650" y="934" name="top"/>
  <outline>
    <contour>
      <point x="123" y="0" type="line"/>
      <point x="455" y="0" type="line"/>
      <point x="455" y="582" type="line"/>
      <point x="455" y="731"/>
      <point x="560" y="881"/>
      <point x="642" y="881" type="curve"/>
      <point x="669" y="881"/>
      <point x="682" y="845"/>
      <point x="682" y="781" type="curve"/>
      <point x="682" y="715"/>
      <point x="668" y="688"/>
      <point x="650" y="662" type="curve"/>
      <point x="874" y="612" type="line"/>
      <point x="887" y="681"/>
      <point x="892" y="723"/>
      <point x="892" y="752" type="curve"/>
      <point x="892" y="880"/>
      <point x="773" y="955"/>
      <point x="648" y="955" type="curve"/>
      <point x="482" y="955"/>
      <point x="431" y="822"/>
      <point x="369" y="565" type="curve"/>
      <point x="455" y="648" type="line"/>
      <point x="455" y="945" type="line"/>
      <point x="123" y="945" type="line"/>
    </contour>
  </outline>
</glyph>
<glyph name="v" format="2">
  <advance width="1034"/>
  <unicode hex="0076"/>
  <note>
v
</note>
  <anchor x="518" y="0" name="bottom"/>
  <anchor x="518" y="919" name="top"/>
  <outline>
    <contour>
      <point x="448" y="-26" type="line"/>
      <point x="577" y="-26" type="line"/>
      <point x="1002" y="945" type="line"/>
      <point x="832" y="945" type="line"/>
      <point x="578" y="355" type="line"/>
      <point x="615" y="355" type="line"/>
      <point x="366" y="945" type="line"/>
      <point x="33" y="945" type="line"/>
    </contour>
  </outline>
</glyph>
<glyph name="w" format="2">
  <advance width="1592"/>
  <unicode hex="0077"/>
  <note>
w
</note>
  <anchor x="796" y="0" name="bottom"/>
  <anchor x="796" y="944" name="top"/>
  <outline>
    <contour>
      <point x="1016" y="-5" type="line"/>
      <point x="1144" y="-5" type="line"/>
      <point x="1560" y="945" type="line"/>
      <point x="1390" y="945" type="line"/>
      <point x="1145" y="380" type="line"/>
      <point x="1182" y="380" type="line"/>
      <point x="942" y="945" type="line"/>
      <point x="609" y="945" type="line"/>
    </contour>
    <contour>
      <point x="439" y="-5" type="line"/>
      <point x="568" y="-5" type="line"/>
      <point x="827" y="574" type="line"/>
      <point x="738" y="756" type="line"/>
      <point x="569" y="380" type="line"/>
      <point x="605" y="380" type="line"/>
      <point x="365" y="945" type="line"/>
      <point x="33" y="945" type="line"/>
    </contour>
    <contour>
      <point x="962" y="747" type="line"/>
      <point x="1046" y="945" type="line"/>
      <point x="970" y="945" type="line"/>
      <point x="926" y="826" type="line"/>
    </contour>
  </outline>
</glyph>
<glyph name="x" format="2">
  <advance width="1016"/>
  <unicode hex="0078"/>
  <note>
x
</note>
  <anchor x="498" y="0" name="bottom"/>
  <anchor x="498" y="944" name="top"/>
  <outline>
    <contour>
      <point x="613" y="0" type="line"/>
      <point x="966" y="0" type="line"/>
      <point x="388" y="945" type="line"/>
      <point x="34" y="945" type="line"/>
    </contour>
    <contour>
      <point x="42" y="0" type="line"/>
      <point x="210" y="0" type="line"/>
      <point x="503" y="380" type="line"/>
      <point x="430" y="503" type="line"/>
    </contour>
    <contour>
      <point x="576" y="433" type="line"/>
      <point x="944" y="945" type="line"/>
      <point x="779" y="945" type="line"/>
      <point x="498" y="551" type="line"/>
    </contour>
  </outline>
</glyph>
<glyph name="z" format="2">
  <advance width="1020"/>
  <unicode hex="007A"/>
  <note>
z
</note>
  <anchor x="511" y="0" name="bottom"/>
  <anchor x="511" y="472" name="center"/>
  <anchor x="511" y="944" name="top"/>
  <outline>
    <contour>
      <point x="42" y="0" type="line"/>
      <point x="954" y="0" type="line"/>
      <point x="954" y="72" type="line"/>
      <point x="405" y="72" type="line"/>
      <point x="427" y="33" type="line"/>
      <point x="974" y="945" type="line"/>
      <point x="78" y="945" type="line"/>
      <point x="78" y="873" type="line"/>
      <point x="611" y="873" type="line"/>
      <point x="589" y="912" type="line"/>
    </contour>
  </outline>
</glyph>
<glyph name="braceleft" format="2">
  <advance width="677"/>
  <unicode hex="007B"/>
  <note>
braceleft
</note>
  <outline>
    <contour>
      <point x="610" y="-414" type="curve"/>
      <point x="610" y="-309" type="line"/>
      <point x="443" y="-346"/>
      <point x="364" y="-253"/>
      <point x="364" y="8" type="curve" smooth="yes"/>
      <point x="364" y="330" type="line" smooth="yes"/>
      <point x="364" y="384"/>
      <point x="329" y="423"/>
      <point x="254" y="478" type="curve"/>
      <point x="332" y="538"/>
      <point x="364" y="573"/>
      <point x="364" y="626" type="curve" smooth="yes"/>
      <point x="364" y="1052" type="line" smooth="yes"/>
      <point x="364" y="1313"/>
      <point x="443" y="1406"/>
      <point x="610" y="1369" type="curve"/>
      <point x="610" y="1474" type="line"/>
      <point x="339" y="1501"/>
      <point x="164" y="1361"/>
      <point x="164" y="1122" type="curve" smooth="yes"/>
      <point x="164" y="626" type="line" smooth="yes"/>
      <point x="164" y="563"/>
      <point x="136" y="520"/>
      <point x="73" y="478" type="curve"/>
      <point x="136" y="436"/>
      <point x="164" y="393"/>
      <point x="164" y="330" type="curve" smooth="yes"/>
      <point x="164" y="-62" type="line" smooth="yes"/>
      <point x="164" y="-302"/>
      <point x="338" y="-440"/>
    </contour>
  </outline>
</glyph>
<glyph name="bar" format="2">
  <advance width="678"/>
  <unicode hex="007C"/>
  <note>
bar
</note>
  <outline>
    <contour>
      <point x="209" y="-300" type="line"/>
      <point x="469" y="-300" type="line"/>
      <point x="469" y="1664" type="line"/>
      <point x="209" y="1664" type="line"/>
    </contour>
  </outline>
</glyph>
<glyph name="braceright" format="2">
  <advance width="677"/>
  <unicode hex="007D"/>
  <note>
braceright
</note>
  <outline>
    <contour>
      <point x="67" y="-414" type="line"/>
      <point x="339" y="-440"/>
      <point x="513" y="-302"/>
      <point x="513" y="-62" type="curve" smooth="yes"/>
      <point x="513" y="330" type="line" smooth="yes"/>
      <point x="513" y="393"/>
      <point x="541" y="436"/>
      <point x="604" y="478" type="curve"/>
      <point x="541" y="520"/>
      <point x="513" y="563"/>
      <point x="513" y="626" type="curve" smooth="yes"/>
      <point x="513" y="1122" type="line" smooth="yes"/>
      <point x="513" y="1361"/>
      <point x="338" y="1501"/>
      <point x="67" y="1474" type="curve"/>
      <point x="67" y="1369" type="line"/>
      <point x="234" y="1406"/>
      <point x="313" y="1313"/>
      <point x="313" y="1052" type="curve" smooth="yes"/>
      <point x="313" y="626" type="line" smooth="yes"/>
      <point x="313" y="573"/>
      <point x="345" y="538"/>
      <point x="423" y="478" type="curve"/>
      <point x="348" y="423"/>
      <point x="313" y="384"/>
      <point x="313" y="330" type="curve" smooth="yes"/>
      <point x="313" y="8" type="line" smooth="yes"/>
      <point x="313" y="-253"/>
      <point x="234" y="-346"/>
      <point x="67" y="-309" type="curve"/>
    </contour>
  </outline>
</glyph>
<glyph name="asciitilde" format="2">
  <advance width="1397"/>
  <unicode hex="007E"/>
  <note>
asciitilde
</note>
  <outline>
    <contour>
      <point x="912" y="549" type="curve" smooth="yes"/>
      <point x="1048" y="549"/>
      <point x="1206" y="634"/>
      <point x="1279" y="683" type="curve"/>
      <point x="1194" y="818" type="line"/>
      <point x="1034" y="726"/>
      <point x="953" y="715"/>
      <point x="912" y="715" type="curve" smooth="yes"/>
      <point x="843" y="715"/>
      <point x="790" y="752"/>
      <point x="732" y="783" type="curve" smooth="yes"/>
      <point x="625" y="840"/>
      <point x="536" y="859"/>
      <point x="486" y="859" type="curve" smooth="yes"/>
      <point x="382" y="859"/>
      <point x="217" y="783"/>
      <point x="118" y="704" type="curve"/>
      <point x="204" y="569" type="line"/>
      <point x="364" y="670"/>
      <point x="439" y="693"/>
      <point x="485" y="693" type="curve" smooth="yes"/>
      <point x="549" y="693"/>
      <point x="649" y="639"/>
      <point x="684" y="620" type="curve" smooth="yes"/>
      <point x="821" y="546"/>
      <point x="897" y="549"/>
    </contour>
  </outline>
</glyph>
<glyph name=".notdef" format="2">
  <advance width="1478"/>
  <unicode hex="007F"/>
  <note>
.notdef
</note>
  <outline>
    <contour>
      <point x="174" y="-369" type="line"/>
      <point x="1304" y="-369" type="line"/>
      <point x="1304" y="1425" type="line"/>
      <point x="174" y="1425" type="line"/>
    </contour>
    <contour>
      <point x="416" y="-227" type="line"/>
      <point x="416" y="1283" type="line"/>
      <point x="1062" y="1283" type="line"/>
      <point x="1062" y="-227" type="line"/>
    </contour>
  </outline>
</glyph>
<glyph name="Euro" format="2">
  <advance width="1627"/>
  <unicode hex="0080"/>
  <note>
Euro
</note>
  <outline>
    <contour>
      <point x="977" y="-53" type="curve" smooth="yes"/>
      <point x="1283" y="-53"/>
      <point x="1460" y="133"/>
      <point x="1501" y="291" type="curve"/>
      <point x="1252" y="291" type="line"/>
      <point x="1171" y="133"/>
      <point x="1053" y="13"/>
      <point x="987" y="13" type="curve" smooth="yes"/>
      <point x="778" y="13"/>
      <point x="580" y="346"/>
      <point x="580" y="704" type="curve" smooth="yes"/>
      <point x="580" y="1072"/>
      <point x="773" y="1393"/>
      <point x="991" y="1393" type="curve" smooth="yes"/>
      <point x="1049" y="1393"/>
      <point x="1168" y="1266"/>
      <point x="1252" y="1103" type="curve"/>
      <point x="1501" y="1103" type="line"/>
      <point x="1460" y="1260"/>
      <point x="1284" y="1459"/>
      <point x="977" y="1459" type="curve" smooth="yes"/>
      <point x="566" y="1459"/>
      <point x="272" y="1143"/>
      <point x="272" y="704" type="curve"/>
      <point x="292" y="241"/>
      <point x="564" y="-53"/>
    </contour>
    <contour>
      <point x="117" y="517" type="line"/>
      <point x="1116" y="517" type="line"/>
      <point x="1131" y="583" type="line"/>
      <point x="132" y="583" type="line"/>
    </contour>
    <contour>
      <point x="165" y="817" type="line"/>
      <point x="1164" y="817" type="line"/>
      <point x="1179" y="883" type="line"/>
      <point x="180" y="883" type="line"/>
    </contour>
  </outline>
</glyph>
<glyph name="sterling" format="2">
  <advance width="1362"/>
  <unicode hex="00A3"/>
  <note>
sterling
</note>
  <outline>
    <contour>
      <point x="517" y="121" type="curve"/>
      <point x="674" y="121"/>
      <point x="858" y="284"/>
      <point x="858" y="476" type="curve" smooth="yes"/>
      <point x="858" y="597"/>
      <point x="767" y="698"/>
      <point x="654" y="793" type="curve" smooth="yes"/>
      <point x="493" y="930"/>
      <point x="454" y="1032"/>
      <point x="454" y="1147" type="curve" smooth="yes"/>
      <point x="454" y="1315"/>
      <point x="540" y="1419"/>
      <point x="636" y="1419" type="curve" smooth="yes"/>
      <point x="752" y="1419"/>
      <point x="874" y="1265"/>
      <point x="879" y="1105" type="curve"/>
      <point x="1162" y="1105" type="line"/>
      <point x="1129" y="1333"/>
      <point x="924" y="1479"/>
      <point x="653" y="1479" type="curve" smooth="yes"/>
      <point x="360" y="1479"/>
      <point x="166" y="1317"/>
      <point x="166" y="1060" type="curve" smooth="yes"/>
      <point x="166" y="910"/>
      <point x="262" y="771"/>
      <point x="388" y="680" type="curve" smooth="yes"/>
      <point x="480" y="614"/>
      <point x="564" y="582"/>
      <point x="564" y="468" type="curve" smooth="yes"/>
      <point x="564" y="308"/>
      <point x="398" y="150"/>
      <point x="249" y="151" type="curve"/>
      <point x="338" y="141"/>
      <point x="428" y="131"/>
    </contour>
    <contour>
      <point x="167" y="0" type="line"/>
      <point x="1237" y="0" type="line"/>
      <point x="1237" y="166" type="line"/>
      <point x="167" y="166" type="line"/>
    </contour>
    <contour>
      <point x="167" y="659" type="line"/>
      <point x="1037" y="659" type="line"/>
      <point x="1037" y="728" type="line"/>
      <point x="167" y="728" type="line"/>
    </contour>
  </outline>
</glyph>
<glyph name="currency" format="2">
  <advance width="1501"/>
  <unicode hex="00A4"/>
  <note>
currency
</note>
  <outline>
    <contour>
      <point x="255" y="69" type="line"/>
      <point x="448" y="260" type="line"/>
      <point x="533" y="199"/>
      <point x="637" y="164"/>
      <point x="749" y="164" type="curve" smooth="yes"/>
      <point x="864" y="164"/>
      <point x="970" y="201"/>
      <point x="1056" y="264" type="curve"/>
      <point x="1254" y="68" type="line"/>
      <point x="1372" y="189" type="line"/>
      <point x="1175" y="385" type="line"/>
      <point x="1235" y="470"/>
      <point x="1270" y="573"/>
      <point x="1270" y="685" type="curve" smooth="yes"/>
      <point x="1270" y="797"/>
      <point x="1235" y="900"/>
      <point x="1176" y="984" type="curve"/>
      <point x="1372" y="1179" type="line"/>
      <point x="1252" y="1302" type="line"/>
      <point x="1055" y="1107" type="line"/>
      <point x="969" y="1169"/>
      <point x="863" y="1206"/>
      <point x="749" y="1206" type="curve" smooth="yes"/>
      <point x="634" y="1206"/>
      <point x="529" y="1169"/>
      <point x="443" y="1107" type="curve"/>
      <point x="248" y="1303" type="line"/>
      <point x="128" y="1179" type="line"/>
      <point x="322" y="985" type="line"/>
      <point x="263" y="900"/>
      <point x="228" y="797"/>
      <point x="228" y="685" type="curve" smooth="yes"/>
      <point x="228" y="571"/>
      <point x="265" y="465"/>
      <point x="327" y="379" type="curve"/>
      <point x="134" y="189" type="line"/>
    </contour>
    <contour>
      <point x="749" y="315" type="curve" smooth="yes"/>
      <point x="544" y="315"/>
      <point x="379" y="480"/>
      <point x="379" y="685" type="curve" smooth="yes"/>
      <point x="379" y="890"/>
      <point x="544" y="1055"/>
      <point x="749" y="1055" type="curve" smooth="yes"/>
      <point x="954" y="1055"/>
      <point x="1119" y="890"/>
      <point x="1119" y="685" type="curve" smooth="yes"/>
      <point x="1119" y="480"/>
      <point x="954" y="315"/>
    </contour>
  </outline>
</glyph>
<glyph name="brokenbar" format="2">
  <advance width="678"/>
  <unicode hex="00A6"/>
  <note>
brokenbar
</note>
  <outline>
    <contour>
      <point x="209" y="-300" type="line"/>
      <point x="469" y="-300" type="line"/>
      <point x="469" y="511" type="line"/>
      <point x="209" y="511" type="line"/>
    </contour>
    <contour>
      <point x="209" y="881" type="line"/>
      <point x="469" y="881" type="line"/>
      <point x="469" y="1664" type="line"/>
      <point x="209" y="1664" type="line"/>
    </contour>
  </outline>
</glyph>
<glyph name="copyright" format="2">
  <advance width="1815"/>
  <unicode hex="00A9"/>
  <note>
copyright
</note>
  <outline>
    <contour>
      <point x="906" y="-25" type="curve" smooth="yes"/>
      <point x="1123" y="-25"/>
      <point x="1336" y="69"/>
      <point x="1463" y="193" type="curve" smooth="yes"/>
      <point x="1619" y="345"/>
      <point x="1689" y="509"/>
      <point x="1689" y="708" type="curve" smooth="yes"/>
      <point x="1689" y="909"/>
      <point x="1617" y="1074"/>
      <point x="1464" y="1227" type="curve" smooth="yes"/>
      <point x="1337" y="1353"/>
      <point x="1124" y="1441"/>
      <point x="906" y="1441" type="curve" smooth="yes"/>
      <point x="711" y="1441"/>
      <point x="496" y="1369"/>
      <point x="358" y="1228" type="curve" smooth="yes"/>
      <point x="203" y="1070"/>
      <point x="125" y="906"/>
      <point x="125" y="708" type="curve" smooth="yes"/>
      <point x="125" y="511"/>
      <point x="200" y="346"/>
      <point x="356" y="191" type="curve" smooth="yes"/>
      <point x="490" y="58"/>
      <point x="699" y="-25"/>
    </contour>
    <contour>
      <point x="904" y="253" type="curve" smooth="yes"/>
      <point x="1133" y="253"/>
      <point x="1311" y="384"/>
      <point x="1316" y="563" type="curve"/>
      <point x="1062" y="563" type="line"/>
      <point x="1043" y="443"/>
      <point x="994" y="385"/>
      <point x="910" y="385" type="curve" smooth="yes"/>
      <point x="806" y="385"/>
      <point x="733" y="513"/>
      <point x="733" y="706" type="curve" smooth="yes"/>
      <point x="733" y="908"/>
      <point x="804" y="1035"/>
      <point x="910" y="1035" type="curve" smooth="yes"/>
      <point x="991" y="1035"/>
      <point x="1033" y="986"/>
      <point x="1053" y="875" type="curve"/>
      <point x="1306" y="875" type="line"/>
      <point x="1302" y="1039"/>
      <point x="1129" y="1165"/>
      <point x="914" y="1165" type="curve" smooth="yes"/>
      <point x="640" y="1165"/>
      <point x="463" y="985"/>
      <point x="463" y="704" type="curve" smooth="yes"/>
      <point x="463" y="427"/>
      <point x="634" y="253"/>
    </contour>
    <contour>
      <point x="906" y="93" type="curve" smooth="yes"/>
      <point x="752" y="93"/>
      <point x="629" y="153"/>
      <point x="508" y="275" type="curve" smooth="yes"/>
      <point x="414" y="370"/>
      <point x="341" y="537"/>
      <point x="341" y="708" type="curve" smooth="yes"/>
      <point x="341" y="872"/>
      <point x="407" y="1043"/>
      <point x="510" y="1147" type="curve" smooth="yes"/>
      <point x="631" y="1270"/>
      <point x="746" y="1325"/>
      <point x="906" y="1325" type="curve" smooth="yes"/>
      <point x="1063" y="1325"/>
      <point x="1185" y="1270"/>
      <point x="1310" y="1145" type="curve" smooth="yes"/>
      <point x="1408" y="1047"/>
      <point x="1475" y="872"/>
      <point x="1475" y="708" type="curve" smooth="yes"/>
      <point x="1475" y="536"/>
      <point x="1407" y="369"/>
      <point x="1313" y="277" type="curve" smooth="yes"/>
      <point x="1189" y="156"/>
      <point x="1059" y="93"/>
    </contour>
  </outline>
</glyph>
<glyph name="ordfeminine" format="2">
  <advance width="945"/>
  <unicode hex="00AA"/>
  <note>
ordfeminine
</note>
  <outline>
    <contour>
      <point x="422" y="825" type="curve" smooth="yes"/>
      <point x="473" y="825"/>
      <point x="519" y="834"/>
      <point x="559" y="851" type="curve"/>
      <point x="559" y="833" type="line"/>
      <point x="817" y="833" type="line"/>
      <point x="817" y="1455" type="line"/>
      <point x="557" y="1455" type="line"/>
      <point x="557" y="1444" type="line"/>
      <point x="517" y="1462"/>
      <point x="470" y="1471"/>
      <point x="418" y="1471" type="curve" smooth="yes"/>
      <point x="221" y="1471"/>
      <point x="89" y="1341"/>
      <point x="89" y="1146" type="curve" smooth="yes"/>
      <point x="89" y="953"/>
      <point x="223" y="825"/>
    </contour>
    <contour>
      <point x="438" y="881" type="curve" smooth="yes"/>
      <point x="394" y="881"/>
      <point x="349" y="1004"/>
      <point x="349" y="1158" type="curve" smooth="yes"/>
      <point x="349" y="1295"/>
      <point x="395" y="1415"/>
      <point x="436" y="1415" type="curve" smooth="yes"/>
      <point x="489" y="1415"/>
      <point x="559" y="1272"/>
      <point x="559" y="1144" type="curve" smooth="yes"/>
      <point x="559" y="1016"/>
      <point x="492" y="881"/>
    </contour>
    <contour>
      <point x="79" y="647" type="line"/>
      <point x="843" y="647" type="line"/>
      <point x="843" y="757" type="line"/>
      <point x="79" y="757" type="line"/>
    </contour>
  </outline>
</glyph>
<glyph name="degree" format="2">
  <advance width="875"/>
  <unicode hex="00B0"/>
  <note>
degree
</note>
  <outline>
    <contour>
      <point x="438" y="831" type="curve" smooth="yes"/>
      <point x="605" y="831"/>
      <point x="741" y="967"/>
      <point x="741" y="1135" type="curve" smooth="yes"/>
      <point x="741" y="1302"/>
      <point x="605" y="1438"/>
      <point x="438" y="1438" type="curve" smooth="yes"/>
      <point x="270" y="1438"/>
      <point x="134" y="1302"/>
      <point x="134" y="1135" type="curve" smooth="yes"/>
      <point x="134" y="967"/>
      <point x="270" y="831"/>
    </contour>
    <contour>
      <point x="438" y="927" type="curve" smooth="yes"/>
      <point x="323" y="927"/>
      <point x="230" y="1020"/>
      <point x="230" y="1135" type="curve" smooth="yes"/>
      <point x="230" y="1249"/>
      <point x="323" y="1342"/>
      <point x="438" y="1342" type="curve" smooth="yes"/>
      <point x="552" y="1342"/>
      <point x="645" y="1249"/>
      <point x="645" y="1135" type="curve" smooth="yes"/>
      <point x="645" y="1020"/>
      <point x="552" y="927"/>
    </contour>
  </outline>
</glyph>
<glyph name="plusminus" format="2">
  <advance width="1088"/>
  <unicode hex="00B1"/>
  <note>
plusminus
</note>
  <outline>
    <contour>
      <point x="476" y="345" type="line"/>
      <point x="678" y="345" type="line"/>
      <point x="678" y="567" type="line"/>
      <point x="1000" y="567" type="line"/>
      <point x="1000" y="769" type="line"/>
      <point x="678" y="769" type="line"/>
      <point x="678" y="991" type="line"/>
      <point x="476" y="991" type="line"/>
      <point x="476" y="769" type="line"/>
      <point x="154" y="769" type="line"/>
      <point x="154" y="567" type="line"/>
      <point x="476" y="567" type="line"/>
    </contour>
    <contour>
      <point x="153" y="27" type="line"/>
      <point x="999" y="27" type="line"/>
      <point x="999" y="229" type="line"/>
      <point x="153" y="229" type="line"/>
    </contour>
  </outline>
</glyph>
<glyph name="paragraph" format="2">
  <advance width="1301"/>
  <unicode hex="00B6"/>
  <note>
paragraph
</note>
  <outline>
    <contour>
      <point x="482" y="0" type="line"/>
      <point x="706" y="0" type="line"/>
      <point x="706" y="1353" type="line"/>
      <point x="844" y="1353" type="line"/>
      <point x="844" y="0" type="line"/>
      <point x="1066" y="0" type="line"/>
      <point x="1066" y="1353" type="line"/>
      <point x="1188" y="1353" type="line"/>
      <point x="1188" y="1459" type="line"/>
      <point x="565" y="1459" type="line" smooth="yes"/>
      <point x="301" y="1459"/>
      <point x="116" y="1279"/>
      <point x="116" y="1047" type="curve" smooth="yes"/>
      <point x="116" y="841"/>
      <point x="259" y="640"/>
      <point x="482" y="640" type="curve"/>
    </contour>
  </outline>
</glyph>
<glyph name="ordmasculine" format="2">
  <advance width="915"/>
  <unicode hex="00BA"/>
  <note>
ordmasculine
</note>
  <outline>
    <contour>
      <point x="458" y="825" type="curve" smooth="yes"/>
      <point x="676" y="825"/>
      <point x="827" y="954"/>
      <point x="827" y="1146" type="curve" smooth="yes"/>
      <point x="827" y="1340"/>
      <point x="677" y="1471"/>
      <point x="458" y="1471" type="curve" smooth="yes"/>
      <point x="239" y="1471"/>
      <point x="89" y="1340"/>
      <point x="89" y="1146" type="curve" smooth="yes"/>
      <point x="89" y="954"/>
      <point x="240" y="825"/>
    </contour>
    <contour>
      <point x="456" y="881" type="curve" smooth="yes"/>
      <point x="412" y="881"/>
      <point x="347" y="1026"/>
      <point x="347" y="1146" type="curve" smooth="yes"/>
      <point x="347" y="1267"/>
      <point x="413" y="1415"/>
      <point x="456" y="1415" type="curve" smooth="yes"/>
      <point x="500" y="1415"/>
      <point x="567" y="1266"/>
      <point x="567" y="1146" type="curve" smooth="yes"/>
      <point x="567" y="1026"/>
      <point x="501" y="881"/>
    </contour>
    <contour>
      <point x="75" y="647" type="line"/>
      <point x="839" y="647" type="line"/>
      <point x="839" y="757" type="line"/>
      <point x="75" y="757" type="line"/>
    </contour>
  </outline>
</glyph>
<glyph name="AE" format="2">
  <advance width="2010"/>
  <unicode hex="00C6"/>
  <note>
AE
</note>
  <anchor x="1031" y="0" name="bottom"/>
  <anchor x="1031" y="1430" name="top"/>
  <outline>
    <contour>
      <point x="59" y="0" type="line"/>
      <point x="215" y="0" type="line"/>
      <point x="1093" y="1445" type="line"/>
      <point x="937" y="1445" type="line"/>
    </contour>
    <contour>
      <point x="437" y="451" type="line"/>
      <point x="1191" y="451" type="line"/>
      <point x="1191" y="517" type="line"/>
      <point x="437" y="517" type="line"/>
    </contour>
    <contour>
      <point x="937" y="0" type="line"/>
      <point x="1917" y="0" type="line"/>
      <point x="1917" y="66" type="line"/>
      <point x="980" y="66" type="line"/>
      <point x="1273" y="14" type="line"/>
      <point x="1273" y="756" type="line"/>
      <point x="1092" y="703" type="line"/>
      <point x="1917" y="703" type="line"/>
      <point x="1917" y="769" type="line"/>
      <point x="1092" y="769" type="line"/>
      <point x="1273" y="716" type="line"/>
      <point x="1273" y="1431" type="line"/>
      <point x="980" y="1379" type="line"/>
      <point x="1917" y="1379" type="line"/>
      <point x="1917" y="1445" type="line"/>
      <point x="937" y="1445" type="line"/>
    </contour>
  </outline>
</glyph>
<glyph name="Thorn" format="2">
  <advance width="1231"/>
  <unicode hex="00DE"/>
  <note>
Thorn
</note>
  <anchor x="617" y="0" name="bottom"/>
  <anchor x="617" y="1430" name="top"/>
  <outline>
    <contour>
      <point x="489" y="325" type="line"/>
      <point x="582" y="325" type="line" smooth="yes"/>
      <point x="802" y="325"/>
      <point x="912" y="344"/>
      <point x="983" y="400" type="curve" smooth="yes"/>
      <point x="1102" y="495"/>
      <point x="1153" y="599"/>
      <point x="1153" y="734" type="curve" smooth="yes"/>
      <point x="1153" y="873"/>
      <point x="1100" y="976"/>
      <point x="982" y="1068" type="curve" smooth="yes"/>
      <point x="915" y="1120"/>
      <point x="790" y="1143"/>
      <point x="582" y="1143" type="curve" smooth="yes"/>
      <point x="489" y="1143" type="line"/>
      <point x="489" y="1077" type="line"/>
      <point x="534" y="1077" type="line" smooth="yes"/>
      <point x="723" y="1077"/>
      <point x="805" y="970"/>
      <point x="805" y="724" type="curve" smooth="yes"/>
      <point x="805" y="488"/>
      <point x="726" y="391"/>
      <point x="534" y="391" type="curve" smooth="yes"/>
      <point x="489" y="391" type="line"/>
    </contour>
    <contour>
      <point x="169" y="0" type="line"/>
      <point x="505" y="0" type="line"/>
      <point x="505" y="1445" type="line"/>
      <point x="169" y="1445" type="line"/>
    </contour>
  </outline>
</glyph>
<glyph name="germandbls" format="2">
  <advance width="1455"/>
  <unicode hex="00DF"/>
  <note>
germandbls
</note>
  <anchor x="727" y="0" name="bottom"/>
  <anchor x="727" y="919" name="top"/>
  <outline>
    <contour>
      <point x="984" y="-61" type="curve" smooth="yes"/>
      <point x="1221" y="-61"/>
      <point x="1406" y="16"/>
      <point x="1406" y="245" type="curve" smooth="yes"/>
      <point x="1406" y="424"/>
      <point x="1281" y="563"/>
      <point x="1061" y="596" type="curve" smooth="yes"/>
      <point x="954" y="612"/>
      <point x="860" y="657"/>
      <point x="860" y="742" type="curve" smooth="yes"/>
      <point x="860" y="815"/>
      <point x="914" y="852"/>
      <point x="979" y="893" type="curve" smooth="yes"/>
      <point x="1074" y="952"/>
      <point x="1192" y="1018"/>
      <point x="1192" y="1211" type="curve" smooth="yes"/>
      <point x="1192" y="1468"/>
      <point x="983" y="1579"/>
      <point x="693" y="1579" type="curve" smooth="yes"/>
      <point x="360" y="1579"/>
      <point x="204" y="1436"/>
      <point x="204" y="1152" type="curve" smooth="yes"/>
      <point x="204" y="0" type="line"/>
      <point x="536" y="0" type="line"/>
      <point x="536" y="1152" type="line" smooth="yes"/>
      <point x="536" y="1406"/>
      <point x="590" y="1505"/>
      <point x="706" y="1505" type="curve" smooth="yes"/>
      <point x="841" y="1505"/>
      <point x="952" y="1376"/>
      <point x="952" y="1224" type="curve" smooth="yes"/>
      <point x="952" y="1119"/>
      <point x="899" y="1066"/>
      <point x="836" y="1020" type="curve" smooth="yes"/>
      <point x="743" y="952"/>
      <point x="626" y="901"/>
      <point x="626" y="725" type="curve" smooth="yes"/>
      <point x="626" y="588"/>
      <point x="697" y="451"/>
      <point x="975" y="385" type="curve" smooth="yes"/>
      <point x="1009" y="377"/>
      <point x="1156" y="351"/>
      <point x="1156" y="206" type="curve" smooth="yes"/>
      <point x="1156" y="92"/>
      <point x="1090" y="13"/>
      <point x="984" y="13" type="curve" smooth="yes"/>
      <point x="854" y="13"/>
      <point x="778" y="63"/>
      <point x="610" y="306" type="curve"/>
      <point x="610" y="93" type="line"/>
      <point x="644" y="44"/>
      <point x="707" y="-61"/>
    </contour>
    <contour>
      <point x="30" y="875" type="line"/>
      <point x="422" y="875" type="line"/>
      <point x="422" y="945" type="line"/>
      <point x="30" y="945" type="line"/>
    </contour>
  </outline>
</glyph>
<glyph name="eth" format="2">
  <advance width="1242"/>
  <unicode hex="00F0"/>
  <note>
eth
</note>
  <outline>
    <contour>
      <point x="617" y="-61" type="curve"/>
      <point x="798" y="-61"/>
      <point x="911" y="-5"/>
      <point x="1007" y="96" type="curve"/>
      <point x="1105" y="198"/>
      <point x="1167" y="312"/>
      <point x="1167" y="501" type="curve"/>
      <point x="1167" y="654"/>
      <point x="1118" y="857"/>
      <point x="1049" y="993" type="curve"/>
      <point x="907" y="1273"/>
      <point x="578" y="1470"/>
      <point x="184" y="1535" type="curve"/>
      <point x="137" y="1466" type="line"/>
      <point x="484" y="1414"/>
      <point x="744" y="1162"/>
      <point x="849" y="716" type="curve"/>
      <point x="984" y="814" type="line"/>
      <point x="886" y="901"/>
      <point x="762" y="955"/>
      <point x="617" y="955" type="curve"/>
      <point x="473" y="955"/>
      <point x="310" y="933"/>
      <point x="197" y="814" type="curve"/>
      <point x="115" y="727"/>
      <point x="65" y="588"/>
      <point x="65" y="443" type="curve"/>
      <point x="65" y="315"/>
      <point x="115" y="164"/>
      <point x="206" y="69" type="curve"/>
      <point x="325" y="-54"/>
      <point x="494" y="-61"/>
    </contour>
    <contour>
      <point x="616" y="11" type="curve"/>
      <point x="514" y="11"/>
      <point x="401" y="230"/>
      <point x="401" y="444" type="curve"/>
      <point x="401" y="658"/>
      <point x="515" y="883"/>
      <point x="616" y="883" type="curve"/>
      <point x="717" y="883"/>
      <point x="831" y="658"/>
      <point x="831" y="444" type="curve"/>
      <point x="831" y="230"/>
      <point x="718" y="11"/>
    </contour>
    <contour>
      <point x="176" y="1081" type="line"/>
      <point x="351" y="1081" type="line"/>
      <point x="854" y="1562" type="line"/>
      <point x="679" y="1562" type="line"/>
    </contour>
  </outline>
</glyph>
<glyph name="divide" format="2">
  <advance width="1088"/>
  <unicode hex="00F7"/>
  <note>
divide
</note>
  <outline>
    <contour>
      <point x="108" y="525" type="line"/>
      <point x="1408" y="525" type="line"/>
      <point x="1408" y="669" type="line"/>
      <point x="108" y="669" type="line"/>
    </contour>
    <contour>
      <point x="758" y="21" type="curve" smooth="yes"/>
      <point x="855" y="21"/>
      <point x="933" y="99"/>
      <point x="933" y="196" type="curve" smooth="yes"/>
      <point x="933" y="293"/>
      <point x="855" y="371"/>
      <point x="758" y="371" type="curve" smooth="yes"/>
      <point x="661" y="371"/>
      <point x="583" y="293"/>
      <point x="583" y="196" type="curve" smooth="yes"/>
      <point x="583" y="99"/>
      <point x="661" y="21"/>
    </contour>
    <contour>
      <point x="758" y="823" type="curve" smooth="yes"/>
      <point x="855" y="823"/>
      <point x="933" y="901"/>
      <point x="933" y="998" type="curve" smooth="yes"/>
      <point x="933" y="1095"/>
      <point x="855" y="1173"/>
      <point x="758" y="1173" type="curve" smooth="yes"/>
      <point x="661" y="1173"/>
      <point x="583" y="1095"/>
      <point x="583" y="998" type="curve" smooth="yes"/>
      <point x="583" y="901"/>
      <point x="661" y="823"/>
    </contour>
  </outline>
</glyph>
<glyph name="lslash" format="2">
  <advance width="822"/>
  <unicode hex="0142"/>
  <outline>
    <contour>
      <point x="245" y="0" type="line"/>
      <point x="577" y="0" type="line"/>
      <point x="577" y="1529" type="line"/>
      <point x="245" y="1529" type="line"/>
    </contour>
    <contour>
      <point x="73" y="453" type="line"/>
      <point x="796" y="888" type="line"/>
      <point x="749" y="967" type="line"/>
      <point x="26" y="532" type="line"/>
    </contour>
  </outline>
</glyph>
<glyph name="Eng" format="2">
  <advance width="1530"/>
  <unicode hex="014A"/>
  <outline>
    <contour>
      <point x="1056" y="-411" type="curve" smooth="yes"/>
      <point x="1233" y="-411"/>
      <point x="1353" y="-311"/>
      <point x="1353" y="-112" type="curve" smooth="yes"/>
      <point x="1353" y="1445" type="line"/>
      <point x="1191" y="1445" type="line"/>
      <point x="1191" y="276" type="line"/>
      <point x="1285" y="309" type="line"/>
      <point x="379" y="1445" type="line"/>
      <point x="169" y="1445" type="line"/>
      <point x="169" y="-15" type="line"/>
      <point x="331" y="-15" type="line"/>
      <point x="331" y="1052" type="line"/>
      <point x="303" y="1042" type="line"/>
      <point x="1068" y="83" type="line" smooth="yes"/>
      <point x="1123" y="14"/>
      <point x="1150" y="-30"/>
      <point x="1150" y="-146" type="curve" smooth="yes"/>
      <point x="1150" y="-298"/>
      <point x="1103" y="-351"/>
      <point x="1047" y="-351" type="curve" smooth="yes"/>
      <point x="1001" y="-351"/>
      <point x="904" y="-316"/>
      <point x="786" y="-92" type="curve"/>
      <point x="786" y="-300" type="line"/>
      <point x="817" y="-348"/>
      <point x="916" y="-411"/>
    </contour>
  </outline>
</glyph>
<glyph name="eng" format="2">
  <advance width="1224"/>
  <unicode hex="014B"/>
  <outline>
    <contour>
      <point x="817" y="-461" type="curve"/>
      <point x="1035" y="-461"/>
      <point x="1121" y="-350"/>
      <point x="1121" y="-34" type="curve"/>
      <point x="1121" y="608" type="line"/>
      <point x="1121" y="818"/>
      <point x="958" y="955"/>
      <point x="714" y="955" type="curve"/>
      <point x="604" y="955"/>
      <point x="504" y="923"/>
      <point x="430" y="867" type="curve"/>
      <point x="453" y="838" type="line"/>
      <point x="453" y="945" type="line"/>
      <point x="123" y="945" type="line"/>
      <point x="123" y="0" type="line"/>
      <point x="455" y="0" type="line"/>
      <point x="455" y="462" type="line"/>
      <point x="455" y="702"/>
      <point x="561" y="883"/>
      <point x="690" y="883" type="curve"/>
      <point x="755" y="883"/>
      <point x="789" y="781"/>
      <point x="789" y="526" type="curve"/>
      <point x="789" y="66" type="line"/>
      <point x="789" y="-67"/>
      <point x="855" y="-317"/>
      <point x="767" y="-370" type="curve"/>
      <point x="693" y="-354"/>
      <point x="716" y="-329"/>
      <point x="716" y="-281" type="curve"/>
      <point x="716" y="-253"/>
      <point x="724" y="-196"/>
      <point x="734" y="-156" type="curve"/>
      <point x="517" y="-156" type="line"/>
      <point x="509" y="-208"/>
      <point x="506" y="-239"/>
      <point x="506" y="-258" type="curve"/>
      <point x="506" y="-386"/>
      <point x="638" y="-461"/>
    </contour>
  </outline>
</glyph>
<glyph name="OE" format="2">
  <advance width="2237"/>
  <unicode hex="0152"/>
  <note>
OE
</note>
  <anchor x="1145" y="0" name="bottom"/>
  <anchor x="1145" y="1430" name="top"/>
  <outline>
    <contour>
      <point x="812" y="-41" type="curve" smooth="yes"/>
      <point x="1223" y="-41"/>
      <point x="1531" y="286"/>
      <point x="1531" y="712" type="curve" smooth="yes"/>
      <point x="1531" y="1144"/>
      <point x="1213" y="1475"/>
      <point x="812" y="1475" type="curve" smooth="yes"/>
      <point x="407" y="1475"/>
      <point x="92" y="1140"/>
      <point x="92" y="712" type="curve" smooth="yes"/>
      <point x="92" y="287"/>
      <point x="401" y="-41"/>
    </contour>
    <contour>
      <point x="812" y="19" type="curve" smooth="yes"/>
      <point x="590" y="19"/>
      <point x="428" y="303"/>
      <point x="428" y="712" type="curve" smooth="yes"/>
      <point x="428" y="1121"/>
      <point x="590" y="1415"/>
      <point x="812" y="1415" type="curve" smooth="yes"/>
      <point x="1034" y="1415"/>
      <point x="1199" y="1120"/>
      <point x="1199" y="712" type="curve" smooth="yes"/>
      <point x="1199" y="305"/>
      <point x="1035" y="19"/>
    </contour>
    <contour>
      <point x="1204" y="-15" type="line"/>
      <point x="2144" y="-15" type="line"/>
      <point x="2144" y="51" type="line"/>
      <point x="1143" y="51" type="line"/>
      <point x="1540" y="-2" type="line"/>
      <point x="1540" y="751" type="line"/>
      <point x="1272" y="695" type="line"/>
      <point x="2144" y="695" type="line"/>
      <point x="2144" y="761" type="line"/>
      <point x="1243" y="761" type="line"/>
      <point x="1540" y="708" type="line"/>
      <point x="1540" y="1420" type="line"/>
      <point x="1236" y="1379" type="line"/>
      <point x="2144" y="1379" type="line"/>
      <point x="2144" y="1445" type="line"/>
      <point x="1204" y="1445" type="line"/>
    </contour>
  </outline>
</glyph>
<glyph name="Schwa" format="2">
  <advance width="1669"/>
  <unicode hex="018F"/>
  <anchor x="835" y="0" name="bottom"/>
  <anchor x="835" y="1430" name="top"/>
  <outline>
    <contour>
      <point x="826" y="-41" type="curve" smooth="yes"/>
      <point x="1254" y="-41"/>
      <point x="1577" y="287"/>
      <point x="1577" y="712" type="curve" smooth="yes"/>
      <point x="1577" y="1143"/>
      <point x="1243" y="1475"/>
      <point x="826" y="1475" type="curve" smooth="yes"/>
      <point x="572" y="1475"/>
      <point x="351" y="1353"/>
      <point x="215" y="1163" type="curve"/>
      <point x="503" y="1163" type="line"/>
      <point x="577" y="1320"/>
      <point x="691" y="1415"/>
      <point x="826" y="1415" type="curve" smooth="yes"/>
      <point x="1063" y="1415"/>
      <point x="1235" y="1121"/>
      <point x="1235" y="712" type="curve" smooth="yes"/>
      <point x="1235" y="303"/>
      <point x="1064" y="19"/>
      <point x="826" y="19" type="curve" smooth="yes"/>
      <point x="589" y="19"/>
      <point x="415" y="302"/>
      <point x="415" y="712" type="curve"/>
      <point x="73" y="712" type="line"/>
      <point x="73" y="288"/>
      <point x="397" y="-41"/>
    </contour>
    <contour>
      <point x="382" y="646" type="line"/>
      <point x="1288" y="646" type="line"/>
      <point x="1288" y="712" type="line"/>
      <point x="382" y="712" type="line"/>
    </contour>
  </outline>
</glyph>
<glyph name="primemod" format="2">
  <advance width="364"/>
  <unicode hex="02B9"/>
  <outline>
    <contour>
      <point x="364" y="1351" type="curve"/>
      <point x="98" y="1351" type="line"/>
      <point x="61" y="1250"/>
      <point x="12" y="1061"/>
      <point x="0" y="982" type="curve"/>
      <point x="232" y="982" type="line"/>
      <point x="292" y="1114"/>
      <point x="340" y="1256"/>
    </contour>
  </outline>
</glyph>
<glyph name="gravecomb" format="2">
  <unicode hex="0300"/>
  <note>
grave
</note>
  <anchor x="270" y="919" name="_top"/>
  <anchor x="270" y="1395" name="top"/>
  <outline>
    <contour>
      <point x="336" y="1079" type="curve"/>
      <point x="492" y="1079" type="line"/>
      <point x="426" y="1219"/>
      <point x="368" y="1320"/>
      <point x="324" y="1395" type="curve"/>
      <point x="58" y="1395" type="line"/>
      <point x="108" y="1325"/>
      <point x="217" y="1191"/>
    </contour>
  </outline>
</glyph>
<glyph name="circumflexcomb" format="2">
  <unicode hex="0302"/>
  <note>
circumflex
</note>
  <anchor x="405" y="919" name="_top"/>
  <anchor x="405" y="1513" name="top"/>
  <outline>
    <contour>
      <point x="62" y="1105" type="line"/>
      <point x="197" y="1105" type="line"/>
      <point x="399" y="1349" type="line"/>
      <point x="615" y="1105" type="line"/>
      <point x="748" y="1105" type="line"/>
      <point x="494" y="1513" type="line"/>
      <point x="314" y="1513" type="line"/>
    </contour>
  </outline>
</glyph>
<glyph name="tildecomb" format="2">
  <unicode hex="0303"/>
  <note>
tilde
</note>
  <anchor x="389" y="919" name="_top"/>
  <anchor x="399" y="1403" name="top"/>
  <outline>
    <contour>
      <point x="525" y="1107" type="curve" smooth="yes"/>
      <point x="627" y="1107"/>
      <point x="709" y="1182"/>
      <point x="761" y="1328" type="curve"/>
      <point x="727" y="1369" type="line"/>
      <point x="646" y="1259"/>
      <point x="574" y="1257"/>
      <point x="551" y="1257" type="curve" smooth="yes"/>
      <point x="428" y="1257"/>
      <point x="451" y="1403"/>
      <point x="275" y="1403" type="curve" smooth="yes"/>
      <point x="170" y="1403"/>
      <point x="90" y="1327"/>
      <point x="37" y="1180" type="curve"/>
      <point x="71" y="1139" type="line"/>
      <point x="156" y="1249"/>
      <point x="214" y="1251"/>
      <point x="247" y="1251" type="curve" smooth="yes"/>
      <point x="370" y="1251"/>
      <point x="354" y="1107"/>
    </contour>
  </outline>
</glyph>
<glyph name="macroncomb" format="2">
  <unicode hex="0304"/>
  <note>
macron
</note>
  <anchor x="470" y="919" name="_top"/>
  <anchor x="470" y="1271" name="top"/>
  <outline>
    <contour>
      <point x="94" y="1151" type="line"/>
      <point x="846" y="1151" type="line"/>
      <point x="846" y="1271" type="line"/>
      <point x="94" y="1271" type="line"/>
    </contour>
  </outline>
</glyph>
<glyph name="dotaccentcomb" format="2">
  <unicode hex="0307"/>
  <anchor x="228" y="919" name="_top"/>
  <anchor x="228" y="1364" name="top"/>
  <outline>
    <contour>
      <point x="228" y="1047" type="curve" smooth="yes"/>
      <point x="316" y="1047"/>
      <point x="387" y="1118"/>
      <point x="387" y="1206" type="curve" smooth="yes"/>
      <point x="387" y="1294"/>
      <point x="316" y="1364"/>
      <point x="228" y="1364" type="curve" smooth="yes"/>
      <point x="140" y="1364"/>
      <point x="69" y="1294"/>
      <point x="69" y="1206" type="curve" smooth="yes"/>
      <point x="69" y="1118"/>
      <point x="140" y="1047"/>
    </contour>
  </outline>
</glyph>
<glyph name="hookabovecomb" format="2">
  <unicode hex="0309"/>
  <anchor x="188" y="919" name="_top"/>
  <anchor x="188" y="1501" name="top"/>
  <outline>
    <contour>
      <point x="118" y="1134" type="line"/>
      <point x="300" y="1157"/>
      <point x="392" y="1223"/>
      <point x="392" y="1323" type="curve" smooth="yes"/>
      <point x="392" y="1426"/>
      <point x="294" y="1501"/>
      <point x="172" y="1501" type="curve" smooth="yes"/>
      <point x="82" y="1501"/>
      <point x="22" y="1460"/>
      <point x="-16" y="1421" type="curve"/>
      <point x="9" y="1384" type="line"/>
      <point x="45" y="1414"/>
      <point x="104" y="1440"/>
      <point x="162" y="1440" type="curve" smooth="yes"/>
      <point x="225" y="1440"/>
      <point x="262" y="1400"/>
      <point x="262" y="1325" type="curve" smooth="yes"/>
      <point x="262" y="1213"/>
      <point x="180" y="1194"/>
      <point x="118" y="1177" type="curve"/>
    </contour>
    <contour>
      <point x="118" y="1048" type="line"/>
      <point x="232" y="1048" type="line"/>
      <point x="232" y="1188" type="line"/>
      <point x="118" y="1164" type="line"/>
    </contour>
  </outline>
</glyph>
<glyph name="ringcomb" format="2">
  <unicode hex="030A"/>
  <note>
ring
</note>
  <anchor x="284" y="919" name="_top"/>
  <anchor x="284" y="1457" name="top"/>
  <outline>
    <contour>
      <point x="284" y="1031" type="curve" smooth="yes"/>
      <point x="399" y="1031"/>
      <point x="493" y="1125"/>
      <point x="493" y="1240" type="curve" smooth="yes"/>
      <point x="493" y="1355"/>
      <point x="399" y="1450"/>
      <point x="284" y="1450" type="curve" smooth="yes"/>
      <point x="169" y="1450"/>
      <point x="75" y="1355"/>
      <point x="75" y="1240" type="curve" smooth="yes"/>
      <point x="75" y="1125"/>
      <point x="169" y="1031"/>
    </contour>
    <contour>
      <point x="284" y="1129" type="curve" smooth="yes"/>
      <point x="223" y="1129"/>
      <point x="173" y="1179"/>
      <point x="173" y="1240" type="curve" smooth="yes"/>
      <point x="173" y="1301"/>
      <point x="223" y="1351"/>
      <point x="284" y="1351" type="curve" smooth="yes"/>
      <point x="345" y="1351"/>
      <point x="395" y="1301"/>
      <point x="395" y="1240" type="curve" smooth="yes"/>
      <point x="395" y="1179"/>
      <point x="345" y="1129"/>
    </contour>
  </outline>
</glyph>
<glyph name="horncomb" format="2">
  <unicode hex="031B"/>
  <anchor x="337" y="1239" name="_topright"/>
  <anchor x="333" y="1323" name="topright"/>
  <outline>
    <contour>
      <point x="313" y="1393" type="curve"/>
      <point x="191" y="1393" type="line"/>
      <point x="191" y="1343"/>
      <point x="187" y="1219"/>
      <point x="57" y="1212" type="curve"/>
      <point x="57" y="1129" type="line"/>
      <point x="185" y="1126"/>
      <point x="313" y="1223"/>
    </contour>
  </outline>
</glyph>
<glyph name="cedillacomb" format="2">
  <unicode hex="0327"/>
  <anchor x="251" y="0" name="_bottom"/>
  <anchor x="281" y="-421" name="bottom"/>
  <outline>
    <contour>
      <point x="268" y="-451" type="curve" smooth="yes"/>
      <point x="456" y="-451"/>
      <point x="547" y="-399"/>
      <point x="547" y="-292" type="curve" smooth="yes"/>
      <point x="547" y="-161"/>
      <point x="441" y="-88"/>
      <point x="314" y="-132" type="curve" smooth="yes"/>
      <point x="331" y="-126"/>
      <point x="258" y="-163"/>
      <point x="225" y="-177" type="curve"/>
      <point x="112" y="-245" type="line"/>
      <point x="232" y="-221"/>
      <point x="220" y="-223"/>
      <point x="264" y="-223" type="curve" smooth="yes"/>
      <point x="328" y="-223"/>
      <point x="367" y="-249"/>
      <point x="367" y="-292" type="curve" smooth="yes"/>
      <point x="367" y="-344"/>
      <point x="320" y="-377"/>
      <point x="246" y="-377" type="curve" smooth="yes"/>
      <point x="186" y="-377"/>
      <point x="141" y="-368"/>
      <point x="50" y="-339" type="curve"/>
      <point x="50" y="-403" type="line"/>
      <point x="134" y="-437"/>
      <point x="198" y="-451"/>
    </contour>
    <contour>
      <point x="112" y="-245" type="line"/>
      <point x="298" y="-182" type="line"/>
      <point x="396" y="0" type="line"/>
      <point x="241" y="0" type="line"/>
    </contour>
  </outline>
</glyph>
<glyph name="ogonekcomb" format="2">
  <unicode hex="0328"/>
  <anchor x="454" y="0" name="_ogonek"/>
  <outline>
    <contour>
      <point x="307" y="-436" type="curve" smooth="yes"/>
      <point x="400" y="-436"/>
      <point x="504" y="-405"/>
      <point x="604" y="-364" type="curve"/>
      <point x="604" y="-280" type="line"/>
      <point x="431" y="-347"/>
      <point x="389" y="-362"/>
      <point x="349" y="-362" type="curve" smooth="yes"/>
      <point x="308" y="-362"/>
      <point x="278" y="-315"/>
      <point x="278" y="-257" type="curve" smooth="yes"/>
      <point x="278" y="-163"/>
      <point x="375" y="-81"/>
      <point x="542" y="0" type="curve"/>
      <point x="391" y="0" type="line" smooth="yes"/>
      <point x="281" y="0"/>
      <point x="38" y="-121"/>
      <point x="38" y="-247" type="curve" smooth="yes"/>
      <point x="38" y="-374"/>
      <point x="161" y="-436"/>
    </contour>
  </outline>
</glyph>
<glyph name="strokelongcomb" format="2">
  <unicode hex="0336"/>
  <anchor x="516" y="752" name="_center"/>
  <outline>
    <contour>
      <point x="59" y="717" type="line"/>
      <point x="969" y="717" type="line"/>
      <point x="969" y="785" type="line"/>
      <point x="59" y="785" type="line"/>
    </contour>
  </outline>
</glyph>
<glyph name="slashshortcomb" format="2">
  <unicode hex="0337"/>
  <anchor x="406" y="710" name="_center"/>
  <outline>
    <contour>
      <point x="68" y="453" type="line"/>
      <point x="791" y="888" type="line"/>
      <point x="744" y="967" type="line"/>
      <point x="21" y="532" type="line"/>
    </contour>
  </outline>
</glyph>
<glyph name="slashlongcomb" format="2">
  <unicode hex="0338"/>
  <anchor x="424" y="469" name="_center"/>
  <outline>
    <contour>
      <point x="11" y="-113" type="line"/>
      <point x="141" y="-113" type="line"/>
      <point x="836" y="1051" type="line"/>
      <point x="706" y="1051" type="line"/>
    </contour>
  </outline>
</glyph>
<glyph name="Dje-cy" format="2">
  <advance width="1597"/>
  <unicode hex="0402"/>
  <outline>
    <contour>
      <point x="934" y="-40" type="line"/>
      <point x="1323" y="-40"/>
      <point x="1491" y="120"/>
      <point x="1491" y="437" type="curve" smooth="yes"/>
      <point x="1491" y="771"/>
      <point x="1302" y="912"/>
      <point x="1056" y="912" type="curve" smooth="yes"/>
      <point x="919" y="912"/>
      <point x="782" y="868"/>
      <point x="688" y="755" type="curve"/>
      <point x="690" y="1445" type="line"/>
      <point x="363" y="1445" type="line"/>
      <point x="363" y="0" type="line"/>
      <point x="687" y="0" type="line"/>
      <point x="687" y="458" type="line" smooth="yes"/>
      <point x="687" y="783"/>
      <point x="907" y="805"/>
      <point x="963" y="805" type="curve" smooth="yes"/>
      <point x="1112" y="805"/>
      <point x="1165" y="649"/>
      <point x="1165" y="434" type="curve" smooth="yes"/>
      <point x="1165" y="181"/>
      <point x="1092" y="26"/>
      <point x="948" y="26" type="curve"/>
    </contour>
    <contour>
      <point x="71" y="1379" type="line"/>
      <point x="985" y="1379" type="line"/>
      <point x="985" y="1445" type="line"/>
      <point x="71" y="1445" type="line"/>
    </contour>
  </outline>
</glyph>
<glyph name="Lje-cy" format="2">
  <advance width="2299"/>
  <unicode hex="0409"/>
  <outline>
    <contour>
      <point x="1201" y="66" type="line"/>
      <point x="1168" y="0" type="line"/>
      <point x="1651" y="0" type="line" smooth="yes"/>
      <point x="1837" y="0"/>
      <point x="1981" y="53"/>
      <point x="2076" y="138" type="curve" smooth="yes"/>
      <point x="2162" y="215"/>
      <point x="2210" y="319"/>
      <point x="2210" y="446" type="curve" smooth="yes"/>
      <point x="2210" y="524"/>
      <point x="2187" y="692"/>
      <point x="2038" y="798" type="curve" smooth="yes"/>
      <point x="1961" y="853"/>
      <point x="1855" y="894"/>
      <point x="1698" y="894" type="curve" smooth="yes"/>
      <point x="1343" y="894" type="line"/>
      <point x="1420" y="817" type="line"/>
      <point x="1651" y="817" type="line" smooth="yes"/>
      <point x="1817" y="817"/>
      <point x="1882" y="613"/>
      <point x="1882" y="466" type="curve" smooth="yes"/>
      <point x="1882" y="339"/>
      <point x="1844" y="66"/>
      <point x="1651" y="66" type="curve" smooth="yes"/>
    </contour>
    <contour>
      <point x="530" y="1445" type="line"/>
      <point x="530" y="1143"/>
      <point x="511" y="888"/>
      <point x="471" y="670" type="curve" smooth="yes"/>
      <point x="396" y="263"/>
      <point x="293" y="206"/>
      <point x="150" y="206" type="curve" smooth="yes"/>
      <point x="91" y="206" type="line"/>
      <point x="91" y="0" type="line"/>
      <point x="151" y="0" type="line" smooth="yes"/>
      <point x="396" y="0"/>
      <point x="471" y="302"/>
      <point x="525" y="644" type="curve" smooth="yes"/>
      <point x="586" y="1040"/>
      <point x="584" y="1239"/>
      <point x="582" y="1427" type="curve"/>
      <point x="552" y="1379" type="line"/>
      <point x="1319" y="1379" type="line"/>
      <point x="1168" y="1430" type="line"/>
      <point x="1168" y="0" type="line"/>
      <point x="1494" y="0" type="line"/>
      <point x="1494" y="1445" type="line"/>
    </contour>
  </outline>
</glyph>
<glyph name="Nje-cy" format="2">
  <advance width="2255"/>
  <unicode hex="040A"/>
  <outline>
    <contour>
      <point x="168" y="0" type="line"/>
      <point x="494" y="0" type="line"/>
      <point x="494" y="781" type="line"/>
      <point x="201" y="709" type="line"/>
      <point x="1417" y="709" type="line"/>
      <point x="1124" y="781" type="line"/>
      <point x="1124" y="0" type="line"/>
      <point x="1450" y="0" type="line"/>
      <point x="1450" y="1445" type="line"/>
      <point x="1124" y="1445" type="line"/>
      <point x="1124" y="703" type="line"/>
      <point x="1417" y="775" type="line"/>
      <point x="201" y="775" type="line"/>
      <point x="494" y="703" type="line"/>
      <point x="494" y="1445" type="line"/>
      <point x="168" y="1445" type="line"/>
    </contour>
    <contour>
      <point x="1157" y="66" type="line"/>
      <point x="1124" y="0" type="line"/>
      <point x="1607" y="0" type="line" smooth="yes"/>
      <point x="1793" y="0"/>
      <point x="1937" y="53"/>
      <point x="2032" y="138" type="curve" smooth="yes"/>
      <point x="2118" y="215"/>
      <point x="2166" y="319"/>
      <point x="2166" y="446" type="curve" smooth="yes"/>
      <point x="2166" y="524"/>
      <point x="2143" y="692"/>
      <point x="1994" y="798" type="curve" smooth="yes"/>
      <point x="1917" y="853"/>
      <point x="1811" y="894"/>
      <point x="1654" y="894" type="curve" smooth="yes"/>
      <point x="1299" y="894" type="line"/>
      <point x="1376" y="817" type="line"/>
      <point x="1607" y="817" type="line" smooth="yes"/>
      <point x="1773" y="817"/>
      <point x="1838" y="613"/>
      <point x="1838" y="466" type="curve" smooth="yes"/>
      <point x="1838" y="339"/>
      <point x="1800" y="66"/>
      <point x="1607" y="66" type="curve" smooth="yes"/>
    </contour>
  </outline>
</glyph>
<glyph name="Tshe-cy" format="2">
  <advance width="1597"/>
  <unicode hex="040B"/>
  <outline>
    <contour>
      <point x="690" y="1445" type="line"/>
      <point x="363" y="1445" type="line"/>
      <point x="363" y="0" type="line"/>
      <point x="687" y="0" type="line"/>
      <point x="687" y="458" type="line" smooth="yes"/>
      <point x="687" y="783"/>
      <point x="870" y="805"/>
      <point x="963" y="805" type="curve" smooth="yes"/>
      <point x="1075" y="805"/>
      <point x="1155" y="651"/>
      <point x="1155" y="434" type="curve" smooth="yes"/>
      <point x="1155" y="0" type="line"/>
      <point x="1481" y="0" type="line"/>
      <point x="1481" y="527" type="line" smooth="yes"/>
      <point x="1481" y="752"/>
      <point x="1305" y="912"/>
      <point x="1056" y="912" type="curve" smooth="yes"/>
      <point x="863" y="912"/>
      <point x="658" y="820"/>
      <point x="594" y="564" type="curve"/>
      <point x="686" y="295" type="line"/>
    </contour>
    <contour>
      <point x="71" y="1379" type="line"/>
      <point x="985" y="1379" type="line"/>
      <point x="985" y="1445" type="line"/>
      <point x="71" y="1445" type="line"/>
    </contour>
  </outline>
</glyph>
<glyph name="Be-cy" format="2">
  <advance width="1349"/>
  <unicode hex="0411"/>
  <outline>
    <contour>
      <point x="176" y="0" type="line"/>
      <point x="791" y="0" type="line" smooth="yes"/>
      <point x="1113" y="0"/>
      <point x="1260" y="163"/>
      <point x="1260" y="399" type="curve" smooth="yes"/>
      <point x="1260" y="635"/>
      <point x="1113" y="802"/>
      <point x="791" y="802" type="curve" smooth="yes"/>
      <point x="361" y="802" type="line"/>
      <point x="512" y="647" type="line"/>
      <point x="512" y="1461" type="line"/>
      <point x="176" y="1461" type="line"/>
    </contour>
    <contour>
      <point x="512" y="25" type="line"/>
      <point x="512" y="883" type="line"/>
      <point x="361" y="737" type="line"/>
      <point x="658" y="737" type="line" smooth="yes"/>
      <point x="822" y="737"/>
      <point x="926" y="589"/>
      <point x="926" y="399" type="curve" smooth="yes"/>
      <point x="926" y="209"/>
      <point x="822" y="66"/>
      <point x="658" y="66" type="curve" smooth="yes"/>
      <point x="361" y="66" type="line"/>
    </contour>
    <contour>
      <point x="1077" y="1395" type="line"/>
      <point x="1077" y="1461" type="line"/>
      <point x="177" y="1461" type="line"/>
      <point x="177" y="1395" type="line"/>
    </contour>
  </outline>
</glyph>
<glyph name="De-cy" format="2">
  <advance width="1811"/>
  <unicode hex="0414"/>
  <outline>
    <contour>
      <point x="100" y="0" type="line"/>
      <point x="1701" y="0" type="line"/>
      <point x="1701" y="66" type="line"/>
      <point x="1242" y="66" type="line"/>
      <point x="1531" y="17" type="line"/>
      <point x="1531" y="1430" type="line"/>
      <point x="457" y="1430" type="line"/>
      <point x="457" y="1364" type="line"/>
      <point x="1494" y="1364" type="line"/>
      <point x="1205" y="1409" type="line"/>
      <point x="1205" y="17" type="line"/>
      <point x="1494" y="66" type="line"/>
      <point x="100" y="66" type="line"/>
    </contour>
    <contour>
      <point x="456" y="25" type="line"/>
      <point x="698" y="575"/>
      <point x="649" y="941"/>
      <point x="648" y="1401" type="curve"/>
      <point x="457" y="1401" type="line"/>
      <point x="458" y="942"/>
      <point x="514" y="574"/>
      <point x="245" y="25" type="curve"/>
    </contour>
    <component base="_cyrillicdescender01.case" xOffset="1509"/>
    <component base="_cyrillicdescender01.case" xScale="-1" xOffset="302"/>
  </outline>
</glyph>
<glyph name="Zhe-cy" format="2">
  <advance width="2155"/>
  <unicode hex="0416"/>
  <anchor x="2135" y="0" name="bottomright"/>
  <anchor x="1078" y="1445" name="top"/>
  <outline>
    <contour>
      <point x="1806" y="0" type="line"/>
      <point x="2083" y="0" type="line"/>
      <point x="1497" y="840" type="line"/>
      <point x="1314" y="722" type="line"/>
    </contour>
    <contour>
      <point x="915" y="0" type="line"/>
      <point x="1240" y="0" type="line"/>
      <point x="1240" y="1445" type="line"/>
      <point x="915" y="1445" type="line"/>
    </contour>
    <contour>
      <point x="1027" y="710" type="line"/>
      <point x="1548" y="710" type="line"/>
      <point x="1548" y="776" type="line"/>
      <point x="1027" y="776" type="line"/>
    </contour>
    <contour>
      <point x="1346" y="771" type="line"/>
      <point x="1499" y="705" type="line"/>
      <point x="2017" y="1445" type="line"/>
      <point x="1817" y="1445" type="line"/>
    </contour>
    <contour>
      <point x="349" y="0" type="line"/>
      <point x="841" y="722" type="line"/>
      <point x="658" y="840" type="line"/>
      <point x="72" y="0" type="line"/>
    </contour>
    <contour>
      <point x="1128" y="710" type="line"/>
      <point x="1128" y="776" type="line"/>
      <point x="607" y="776" type="line"/>
      <point x="607" y="710" type="line"/>
    </contour>
    <contour>
      <point x="809" y="771" type="line"/>
      <point x="338" y="1445" type="line"/>
      <point x="138" y="1445" type="line"/>
      <point x="656" y="705" type="line"/>
    </contour>
  </outline>
</glyph>
<glyph name="Ze-cy" format="2">
  <advance width="1353"/>
  <unicode hex="0417"/>
  <anchor x="677" y="0" name="bottom"/>
  <anchor x="677" y="1445" name="top"/>
  <outline>
    <contour>
      <point x="625" y="-26" type="curve" smooth="yes"/>
      <point x="1017" y="-26"/>
      <point x="1269" y="114"/>
      <point x="1269" y="387" type="curve" smooth="yes"/>
      <point x="1269" y="605"/>
      <point x="1146" y="703"/>
      <point x="860" y="768" type="curve"/>
      <point x="859" y="749" type="line"/>
      <point x="1082" y="799"/>
      <point x="1178" y="905"/>
      <point x="1178" y="1107" type="curve" smooth="yes"/>
      <point x="1178" y="1364"/>
      <point x="985" y="1475"/>
      <point x="662" y="1475" type="curve" smooth="yes"/>
      <point x="400" y="1475"/>
      <point x="264" y="1402"/>
      <point x="175" y="1276" type="curve"/>
      <point x="375" y="1196" type="line"/>
      <point x="431" y="1308"/>
      <point x="524" y="1425"/>
      <point x="658" y="1425" type="curve" smooth="yes"/>
      <point x="783" y="1425"/>
      <point x="859" y="1316"/>
      <point x="859" y="1092" type="curve" smooth="yes"/>
      <point x="859" y="869"/>
      <point x="784" y="783"/>
      <point x="610" y="783" type="curve" smooth="yes"/>
      <point x="518" y="783" type="line"/>
      <point x="518" y="729" type="line"/>
      <point x="614" y="729" type="line" smooth="yes"/>
      <point x="827" y="729"/>
      <point x="919" y="645"/>
      <point x="919" y="393" type="curve" smooth="yes"/>
      <point x="919" y="149"/>
      <point x="792" y="25"/>
      <point x="631" y="25" type="curve" smooth="yes"/>
      <point x="449" y="25"/>
      <point x="329" y="186"/>
      <point x="319" y="318" type="curve"/>
      <point x="61" y="264" type="line"/>
      <point x="81" y="116"/>
      <point x="231" y="-26"/>
    </contour>
  </outline>
</glyph>
<glyph name="Ii-cy" format="2">
  <advance width="1550"/>
  <unicode hex="0418"/>
  <anchor x="775" y="0" name="bottom"/>
  <anchor x="1530" y="0" name="bottomright"/>
  <anchor x="775" y="1445" name="top"/>
  <outline>
    <contour>
      <point x="1372" y="0" type="line"/>
      <point x="1382" y="1445" type="line"/>
      <point x="1362" y="1445" type="line"/>
      <point x="181" y="346" type="line"/>
      <point x="250" y="109" type="line"/>
      <point x="250" y="1445" type="line"/>
      <point x="168" y="1445" type="line"/>
      <point x="168" y="0" type="line"/>
      <point x="184" y="0" type="line"/>
      <point x="1356" y="1091" type="line"/>
      <point x="1290" y="1310" type="line"/>
      <point x="1290" y="0" type="line"/>
    </contour>
  </outline>
</glyph>
<glyph name="Ka-cy" format="2">
  <advance width="1449"/>
  <unicode hex="041A"/>
  <anchor x="1569" y="0" name="bottomright"/>
  <anchor x="725" y="1445" name="top"/>
  <outline>
    <contour>
      <point x="167" y="0" type="line"/>
      <point x="493" y="0" type="line"/>
      <point x="493" y="1430" type="line"/>
      <point x="167" y="1430" type="line"/>
    </contour>
    <contour>
      <point x="614" y="654" type="line"/>
      <point x="1338" y="1430" type="line"/>
      <point x="1099" y="1430" type="line"/>
      <point x="424" y="703" type="line"/>
    </contour>
    <contour>
      <point x="1028" y="0" type="line"/>
      <point x="1388" y="0" type="line"/>
      <point x="696" y="739" type="line"/>
      <point x="353" y="722" type="line"/>
    </contour>
  </outline>
</glyph>
<glyph name="El-cy" format="2">
  <advance width="1661"/>
  <unicode hex="041B"/>
  <outline>
    <contour>
      <point x="530" y="1445" type="line"/>
      <point x="530" y="1143"/>
      <point x="511" y="888"/>
      <point x="471" y="670" type="curve" smooth="yes"/>
      <point x="396" y="263"/>
      <point x="293" y="206"/>
      <point x="150" y="206" type="curve" smooth="yes"/>
      <point x="91" y="206" type="line"/>
      <point x="91" y="0" type="line"/>
      <point x="151" y="0" type="line" smooth="yes"/>
      <point x="396" y="0"/>
      <point x="471" y="302"/>
      <point x="525" y="644" type="curve" smooth="yes"/>
      <point x="586" y="1040"/>
      <point x="584" y="1239"/>
      <point x="582" y="1427" type="curve"/>
      <point x="552" y="1379" type="line"/>
      <point x="1319" y="1379" type="line"/>
      <point x="1168" y="1430" type="line"/>
      <point x="1168" y="0" type="line"/>
      <point x="1494" y="0" type="line"/>
      <point x="1494" y="1445" type="line"/>
    </contour>
  </outline>
</glyph>
<glyph name="Pe-cy" format="2">
  <advance width="1588"/>
  <unicode hex="041F"/>
  <anchor x="1568" y="0" name="bottomright"/>
  <outline>
    <contour>
      <point x="168" y="0" type="line"/>
      <point x="494" y="0" type="line"/>
      <point x="494" y="1379" type="line"/>
      <point x="1094" y="1379" type="line"/>
      <point x="1094" y="0" type="line"/>
      <point x="1420" y="0" type="line"/>
      <point x="1420" y="1445" type="line"/>
      <point x="168" y="1445" type="line"/>
    </contour>
  </outline>
</glyph>
<glyph name="U-cy" format="2">
  <advance width="1161"/>
  <unicode hex="0423"/>
  <guideline x="827" y="946" angle="67.9228"/>
  <guideline x="729" y="1094" angle="247.9604"/>
  <anchor x="581" y="1445" name="top"/>
  <outline>
    <contour>
      <point x="231" y="0" type="line"/>
      <point x="268" y="0" type="line" smooth="yes"/>
      <point x="489" y="0"/>
      <point x="552" y="46"/>
      <point x="673" y="349" type="curve" smooth="yes"/>
      <point x="1107" y="1437" type="line"/>
      <point x="973" y="1437" type="line"/>
      <point x="537" y="319" type="line" smooth="yes"/>
      <point x="493" y="207"/>
      <point x="435" y="99"/>
      <point x="284" y="99" type="curve" smooth="yes"/>
      <point x="231" y="99" type="line"/>
    </contour>
    <contour>
      <point x="580" y="369" type="line"/>
      <point x="724" y="771" type="line"/>
      <point x="404" y="1437" type="line"/>
      <point x="61" y="1437" type="line"/>
    </contour>
  </outline>
</glyph>
<glyph name="Ef-cy" format="2">
  <advance width="1697"/>
  <unicode hex="0424"/>
  <outline>
    <contour>
      <point x="759" y="176" type="curve"/>
      <point x="759" y="238" type="line"/>
      <point x="542" y="238"/>
      <point x="405" y="421"/>
      <point x="405" y="713" type="curve" smooth="yes"/>
      <point x="405" y="1012"/>
      <point x="542" y="1199"/>
      <point x="759" y="1199" type="curve"/>
      <point x="759" y="1261" type="line"/>
      <point x="344" y="1261"/>
      <point x="84" y="1050"/>
      <point x="84" y="714" type="curve" smooth="yes"/>
      <point x="84" y="384"/>
      <point x="344" y="176"/>
    </contour>
    <contour>
      <point x="686" y="0" type="line"/>
      <point x="1011" y="0" type="line"/>
      <point x="1011" y="1437" type="line"/>
      <point x="686" y="1437" type="line"/>
    </contour>
    <contour>
      <point x="939" y="176" type="line"/>
      <point x="1353" y="176"/>
      <point x="1613" y="384"/>
      <point x="1613" y="714" type="curve" smooth="yes"/>
      <point x="1613" y="1050"/>
      <point x="1353" y="1261"/>
      <point x="939" y="1261" type="curve"/>
      <point x="939" y="1199" type="line"/>
      <point x="1158" y="1199"/>
      <point x="1296" y="1012"/>
      <point x="1296" y="714" type="curve" smooth="yes"/>
      <point x="1296" y="422"/>
      <point x="1158" y="238"/>
      <point x="939" y="238" type="curve"/>
    </contour>
  </outline>
</glyph>
<glyph name="Che-cy" format="2">
  <advance width="1393"/>
  <unicode hex="0427"/>
  <anchor x="1413" y="0" name="bottomright"/>
  <anchor x="697" y="1445" name="top"/>
  <outline>
    <contour>
      <point x="898" y="0" type="line"/>
      <point x="1225" y="0" type="line"/>
      <point x="1225" y="1445" type="line"/>
      <point x="901" y="1445" type="line"/>
      <point x="901" y="987" type="line" smooth="yes"/>
      <point x="901" y="662"/>
      <point x="718" y="640"/>
      <point x="625" y="640" type="curve" smooth="yes"/>
      <point x="513" y="640"/>
      <point x="433" y="794"/>
      <point x="433" y="1011" type="curve" smooth="yes"/>
      <point x="433" y="1445" type="line"/>
      <point x="107" y="1445" type="line"/>
      <point x="107" y="918" type="line" smooth="yes"/>
      <point x="107" y="693"/>
      <point x="283" y="533"/>
      <point x="532" y="533" type="curve" smooth="yes"/>
      <point x="725" y="533"/>
      <point x="930" y="625"/>
      <point x="994" y="881" type="curve"/>
      <point x="902" y="1150" type="line"/>
    </contour>
  </outline>
</glyph>
<glyph name="Sha-cy" format="2">
  <advance width="2002"/>
  <unicode hex="0428"/>
  <outline>
    <contour>
      <point x="175" y="0" type="line"/>
      <point x="1827" y="0" type="line"/>
      <point x="1827" y="1445" type="line"/>
      <point x="1511" y="1445" type="line"/>
      <point x="1511" y="66" type="line"/>
      <point x="491" y="66" type="line"/>
      <point x="491" y="1445" type="line"/>
      <point x="175" y="1445" type="line"/>
    </contour>
    <contour>
      <point x="838" y="0" type="line"/>
      <point x="1164" y="0" type="line"/>
      <point x="1164" y="1445" type="line"/>
      <point x="838" y="1445" type="line"/>
    </contour>
  </outline>
</glyph>
<glyph name="Softsign-cy" format="2">
  <advance width="1290"/>
  <unicode hex="042C"/>
  <outline>
    <contour>
      <point x="175" y="0" type="line"/>
      <point x="642" y="0" type="line" smooth="yes"/>
      <point x="828" y="0"/>
      <point x="972" y="52"/>
      <point x="1067" y="138" type="curve" smooth="yes"/>
      <point x="1153" y="215"/>
      <point x="1201" y="319"/>
      <point x="1201" y="446" type="curve" smooth="yes"/>
      <point x="1201" y="524"/>
      <point x="1178" y="692"/>
      <point x="1029" y="798" type="curve" smooth="yes"/>
      <point x="952" y="852"/>
      <point x="846" y="894"/>
      <point x="689" y="894" type="curve" smooth="yes"/>
      <point x="350" y="894" type="line"/>
      <point x="501" y="883" type="line"/>
      <point x="501" y="1445" type="line"/>
      <point x="175" y="1445" type="line"/>
    </contour>
    <contour>
      <point x="501" y="18" type="line"/>
      <point x="501" y="866" type="line"/>
      <point x="427" y="828" type="line"/>
      <point x="642" y="828" type="line" smooth="yes"/>
      <point x="808" y="828"/>
      <point x="873" y="613"/>
      <point x="873" y="466" type="curve" smooth="yes"/>
      <point x="873" y="339"/>
      <point x="835" y="66"/>
      <point x="642" y="66" type="curve" smooth="yes"/>
      <point x="208" y="66" type="line"/>
    </contour>
  </outline>
</glyph>
<glyph name="be-cy" format="2">
  <advance width="1196"/>
  <unicode hex="0431"/>
  <outline>
    <contour>
      <point x="607" y="-36" type="curve" smooth="yes"/>
      <point x="922" y="-36"/>
      <point x="1137" y="145"/>
      <point x="1137" y="437" type="curve" smooth="yes"/>
      <point x="1137" y="729"/>
      <point x="922" y="921"/>
      <point x="607" y="921" type="curve" smooth="yes"/>
      <point x="528" y="921"/>
      <point x="455" y="908"/>
      <point x="394" y="888" type="curve"/>
      <point x="428" y="777" type="line"/>
      <point x="454" y="1009"/>
      <point x="550" y="1228"/>
      <point x="731" y="1241" type="curve" smooth="yes"/>
      <point x="818" y="1248"/>
      <point x="992" y="1310"/>
      <point x="1073" y="1451" type="curve"/>
      <point x="951" y="1476" type="line"/>
      <point x="896" y="1351"/>
      <point x="781" y="1342"/>
      <point x="731" y="1337" type="curve" smooth="yes"/>
      <point x="261" y="1286"/>
      <point x="79" y="936"/>
      <point x="79" y="437" type="curve" smooth="yes"/>
      <point x="79" y="145"/>
      <point x="292" y="-36"/>
    </contour>
    <contour>
      <point x="607" y="32" type="curve" smooth="yes"/>
      <point x="513" y="32"/>
      <point x="417" y="225"/>
      <point x="417" y="437" type="curve" smooth="yes"/>
      <point x="417" y="651"/>
      <point x="514" y="852"/>
      <point x="607" y="852" type="curve" smooth="yes"/>
      <point x="700" y="852"/>
      <point x="800" y="649"/>
      <point x="800" y="437" type="curve" smooth="yes"/>
      <point x="800" y="226"/>
      <point x="701" y="32"/>
    </contour>
  </outline>
</glyph>
<glyph name="ve-cy" format="2">
  <advance width="1102"/>
  <unicode hex="0432"/>
  <outline>
    <contour>
      <point x="123" y="0" type="line"/>
      <point x="614" y="0" type="line" smooth="yes"/>
      <point x="943" y="0"/>
      <point x="1045" y="131"/>
      <point x="1045" y="274" type="curve" smooth="yes"/>
      <point x="1045" y="403"/>
      <point x="962" y="488"/>
      <point x="792" y="506" type="curve"/>
      <point x="792" y="501" type="line"/>
      <point x="937" y="532"/>
      <point x="990" y="598"/>
      <point x="990" y="690" type="curve" smooth="yes"/>
      <point x="990" y="827"/>
      <point x="873" y="944"/>
      <point x="604" y="944" type="curve" smooth="yes"/>
      <point x="123" y="944" type="line"/>
    </contour>
    <contour>
      <point x="455" y="10" type="line"/>
      <point x="455" y="496" type="line"/>
      <point x="369" y="470" type="line"/>
      <point x="569" y="470" type="line" smooth="yes"/>
      <point x="659" y="470"/>
      <point x="727" y="389"/>
      <point x="727" y="274" type="curve" smooth="yes"/>
      <point x="727" y="136"/>
      <point x="628" y="68"/>
      <point x="534" y="68" type="curve" smooth="yes"/>
      <point x="170" y="68" type="line"/>
    </contour>
    <contour>
      <point x="455" y="505" type="line"/>
      <point x="455" y="923" type="line"/>
      <point x="170" y="876" type="line"/>
      <point x="534" y="876" type="line" smooth="yes"/>
      <point x="644" y="876"/>
      <point x="684" y="791"/>
      <point x="684" y="697" type="curve" smooth="yes"/>
      <point x="684" y="569"/>
      <point x="611" y="531"/>
      <point x="534" y="531" type="curve" smooth="yes"/>
      <point x="411" y="531" type="line"/>
    </contour>
  </outline>
</glyph>
<glyph name="ge-cy" format="2">
  <advance width="975"/>
  <unicode hex="0433"/>
  <anchor x="955" y="0" name="bottomright"/>
  <anchor x="279" y="495" name="center"/>
  <anchor x="488" y="988" name="top"/>
  <outline>
    <contour>
      <point x="112" y="944" type="line"/>
      <point x="112" y="0" type="line"/>
      <point x="451" y="0" type="line"/>
      <point x="451" y="925" type="line"/>
      <point x="164" y="850" type="line"/>
      <point x="924" y="849" type="line"/>
      <point x="924" y="944" type="line"/>
    </contour>
  </outline>
</glyph>
<glyph name="de-cy" format="2">
  <advance width="1336"/>
  <unicode hex="0434"/>
  <outline>
    <contour>
      <point x="51" y="0" type="line"/>
      <point x="1242" y="0" type="line"/>
      <point x="1242" y="54" type="line"/>
      <point x="868" y="54" type="line"/>
      <point x="1123" y="11" type="line"/>
      <point x="1123" y="944" type="line"/>
      <point x="313" y="944" type="line"/>
      <point x="313" y="874" type="line"/>
      <point x="1098" y="874" type="line"/>
      <point x="842" y="927" type="line"/>
      <point x="842" y="11" type="line"/>
      <point x="1098" y="70" type="line"/>
      <point x="51" y="70" type="line"/>
    </contour>
    <contour>
      <point x="339" y="19" type="line"/>
      <point x="498" y="405"/>
      <point x="472" y="627"/>
      <point x="476" y="920" type="curve"/>
      <point x="313" y="920" type="line"/>
      <point x="308" y="626"/>
      <point x="343" y="406"/>
      <point x="158" y="19" type="curve"/>
    </contour>
    <component base="_cyrillicdescender02" xOffset="984"/>
    <component base="_cyrillicdescender02" xScale="-1" xOffset="352"/>
  </outline>
</glyph>
<glyph name="zhe-cy" format="2">
  <advance width="1631"/>
  <unicode hex="0436"/>
  <anchor x="1611" y="0" name="bottomright"/>
  <anchor x="816" y="944" name="top"/>
  <outline>
    <contour>
      <point x="1296" y="0" type="line"/>
      <point x="1600" y="0" type="line"/>
      <point x="1211" y="556" type="line"/>
      <point x="975" y="476" type="line"/>
    </contour>
    <contour>
      <point x="665" y="0" type="line"/>
      <point x="966" y="0" type="line"/>
      <point x="966" y="944" type="line"/>
      <point x="665" y="944" type="line"/>
    </contour>
    <contour>
      <point x="768" y="428" type="line"/>
      <point x="1204" y="428" type="line"/>
      <point x="1208" y="522" type="line"/>
      <point x="772" y="522" type="line"/>
    </contour>
    <contour>
      <point x="1019" y="505" type="line"/>
      <point x="1167" y="445" type="line"/>
      <point x="1540" y="944" type="line"/>
      <point x="1349" y="944" type="line"/>
    </contour>
    <contour>
      <point x="335" y="0" type="line"/>
      <point x="656" y="476" type="line"/>
      <point x="420" y="556" type="line"/>
      <point x="31" y="0" type="line"/>
    </contour>
    <contour>
      <point x="862" y="428" type="line"/>
      <point x="858" y="522" type="line"/>
      <point x="422" y="522" type="line"/>
      <point x="426" y="428" type="line"/>
    </contour>
    <contour>
      <point x="612" y="505" type="line"/>
      <point x="282" y="944" type="line"/>
      <point x="91" y="944" type="line"/>
      <point x="464" y="445" type="line"/>
    </contour>
  </outline>
</glyph>
<glyph name="ze-cy" format="2">
  <advance width="1106"/>
  <unicode hex="0437"/>
  <anchor x="553" y="23" name="bottom"/>
  <anchor x="553" y="964" name="top"/>
  <outline>
    <contour>
      <point x="534" y="-34" type="curve" smooth="yes"/>
      <point x="855" y="-31"/>
      <point x="1017" y="40"/>
      <point x="1017" y="250" type="curve" smooth="yes"/>
      <point x="1017" y="397"/>
      <point x="944" y="464"/>
      <point x="725" y="494" type="curve"/>
      <point x="723" y="469" type="line"/>
      <point x="892" y="507"/>
      <point x="970" y="564"/>
      <point x="970" y="697" type="curve" smooth="yes"/>
      <point x="970" y="880"/>
      <point x="819" y="966"/>
      <point x="553" y="968" type="curve" smooth="yes"/>
      <point x="310" y="970"/>
      <point x="197" y="900"/>
      <point x="128" y="761" type="curve"/>
      <point x="296" y="732" type="line"/>
      <point x="320" y="795"/>
      <point x="379" y="898"/>
      <point x="530" y="898" type="curve" smooth="yes"/>
      <point x="659" y="898"/>
      <point x="689" y="815"/>
      <point x="689" y="707" type="curve" smooth="yes"/>
      <point x="689" y="529"/>
      <point x="607" y="516"/>
      <point x="493" y="516" type="curve" smooth="yes"/>
      <point x="346" y="516" type="line"/>
      <point x="346" y="459" type="line"/>
      <point x="498" y="459" type="line" smooth="yes"/>
      <point x="631" y="459"/>
      <point x="700" y="420"/>
      <point x="700" y="257" type="curve" smooth="yes"/>
      <point x="700" y="178"/>
      <point x="685" y="34"/>
      <point x="506" y="34" type="curve" smooth="yes"/>
      <point x="357" y="34"/>
      <point x="275" y="133"/>
      <point x="254" y="234" type="curve"/>
      <point x="49" y="218" type="line"/>
      <point x="118" y="37"/>
      <point x="202" y="-37"/>
    </contour>
  </outline>
</glyph>
<glyph name="ii-cy" format="2">
  <advance width="1232"/>
  <unicode hex="0438"/>
  <anchor x="1212" y="0" name="bottomright"/>
  <anchor x="616" y="944" name="top"/>
  <outline>
    <contour>
      <point x="123" y="0" type="line"/>
      <point x="397" y="0" type="line"/>
      <point x="864" y="637" type="line"/>
      <point x="831" y="844" type="line"/>
      <point x="832" y="0" type="line"/>
      <point x="1109" y="0" type="line"/>
      <point x="1109" y="944" type="line"/>
      <point x="851" y="944" type="line"/>
      <point x="386" y="300" type="line"/>
      <point x="401" y="63" type="line"/>
      <point x="400" y="944" type="line"/>
      <point x="123" y="944" type="line"/>
    </contour>
  </outline>
</glyph>
<glyph name="ka-cy" format="2">
  <advance width="1186"/>
  <unicode hex="043A"/>
  <anchor x="1166" y="0" name="bottomright"/>
  <anchor x="593" y="944" name="top"/>
  <outline>
    <contour>
      <point x="123" y="0" type="line"/>
      <point x="450" y="0" type="line"/>
      <point x="450" y="944" type="line"/>
      <point x="123" y="944" type="line"/>
    </contour>
    <contour>
      <point x="664" y="493" type="line"/>
      <point x="1121" y="944" type="line"/>
      <point x="897" y="944" type="line"/>
      <point x="430" y="482" type="line"/>
    </contour>
    <contour>
      <point x="782" y="0" type="line"/>
      <point x="1153" y="0" type="line"/>
      <point x="708" y="540" type="line"/>
      <point x="398" y="481" type="line"/>
    </contour>
  </outline>
</glyph>
<glyph name="el-cy" format="2">
  <advance width="1223"/>
  <unicode hex="043B"/>
  <outline>
    <contour>
      <point x="767" y="0" type="line"/>
      <point x="1099" y="0" type="line"/>
      <point x="1099" y="946" type="line"/>
      <point x="352" y="946" type="line"/>
      <point x="352" y="876" type="line"/>
      <point x="1052" y="876" type="line"/>
      <point x="767" y="930" type="line"/>
    </contour>
    <contour>
      <point x="38" y="0" type="line"/>
      <point x="124" y="0" type="line" smooth="yes"/>
      <point x="276" y="0"/>
      <point x="333" y="195"/>
      <point x="368" y="425" type="curve" smooth="yes"/>
      <point x="399" y="625"/>
      <point x="409" y="823"/>
      <point x="415" y="922" type="curve"/>
      <point x="352" y="922" type="line"/>
      <point x="355" y="850"/>
      <point x="333" y="613"/>
      <point x="306" y="447" type="curve" smooth="yes"/>
      <point x="264" y="188"/>
      <point x="216" y="144"/>
      <point x="118" y="144" type="curve" smooth="yes"/>
      <point x="38" y="144" type="line"/>
    </contour>
  </outline>
</glyph>
<glyph name="em-cy" format="2">
  <advance width="1421"/>
  <unicode hex="043C"/>
  <outline>
    <contour>
      <point x="123" y="0" type="line"/>
      <point x="336" y="0" type="line"/>
      <point x="336" y="690" type="line"/>
      <point x="240" y="701" type="line"/>
      <point x="669" y="37" type="line"/>
      <point x="1069" y="730" type="line"/>
      <point x="1020" y="699" type="line"/>
      <point x="1020" y="0" type="line"/>
      <point x="1298" y="0" type="line"/>
      <point x="1298" y="944" type="line"/>
      <point x="1016" y="944" type="line"/>
      <point x="680" y="356" type="line"/>
      <point x="749" y="333" type="line"/>
      <point x="366" y="944" type="line"/>
      <point x="123" y="944" type="line"/>
    </contour>
  </outline>
</glyph>
<glyph name="en-cy" format="2">
  <advance width="1277"/>
  <unicode hex="043D"/>
  <anchor x="1237" y="0" name="bottomright"/>
  <outline>
    <contour>
      <point x="123" y="0" type="line"/>
      <point x="446" y="0" type="line"/>
      <point x="446" y="564" type="line"/>
      <point x="166" y="446" type="line"/>
      <point x="1115" y="446" type="line"/>
      <point x="831" y="564" type="line"/>
      <point x="831" y="0" type="line"/>
      <point x="1154" y="0" type="line"/>
      <point x="1154" y="944" type="line"/>
      <point x="831" y="944" type="line"/>
      <point x="831" y="396" type="line"/>
      <point x="1115" y="540" type="line"/>
      <point x="166" y="540" type="line"/>
      <point x="446" y="396" type="line"/>
      <point x="446" y="944" type="line"/>
      <point x="123" y="944" type="line"/>
    </contour>
  </outline>
</glyph>
<glyph name="te-cy" format="2">
  <advance width="1051"/>
  <unicode hex="0442"/>
  <anchor x="1031" y="0" name="bottomright"/>
  <outline>
    <contour>
      <point x="360" y="0" type="line"/>
      <point x="691" y="0" type="line"/>
      <point x="691" y="876" type="line"/>
      <point x="405" y="850" type="line"/>
      <point x="1016" y="850" type="line"/>
      <point x="1016" y="944" type="line"/>
      <point x="35" y="944" type="line"/>
      <point x="35" y="850" type="line"/>
      <point x="646" y="850" type="line"/>
      <point x="360" y="876" type="line"/>
    </contour>
  </outline>
</glyph>
<glyph name="ef-cy" format="2">
  <advance width="1622"/>
  <unicode hex="0444"/>
  <outline>
    <contour>
      <point x="1012" y="-36" type="curve" smooth="yes"/>
      <point x="1377" y="-36"/>
      <point x="1555" y="130"/>
      <point x="1555" y="467" type="curve" smooth="yes"/>
      <point x="1555" y="804"/>
      <point x="1377" y="970"/>
      <point x="1012" y="970" type="curve" smooth="yes"/>
      <point x="993" y="970"/>
      <point x="972" y="969"/>
      <point x="950" y="967" type="curve"/>
      <point x="949" y="882" type="line"/>
      <point x="974" y="895"/>
      <point x="985" y="899"/>
      <point x="1012" y="899" type="curve" smooth="yes"/>
      <point x="1161" y="899"/>
      <point x="1255" y="737"/>
      <point x="1255" y="467" type="curve" smooth="yes"/>
      <point x="1255" y="197"/>
      <point x="1161" y="35"/>
      <point x="1012" y="35" type="curve" smooth="yes"/>
      <point x="985" y="35"/>
      <point x="974" y="39"/>
      <point x="949" y="52" type="curve"/>
      <point x="950" y="-33" type="line"/>
      <point x="972" y="-35"/>
      <point x="993" y="-36"/>
    </contour>
    <contour>
      <point x="610" y="-36" type="curve" smooth="yes"/>
      <point x="629" y="-36"/>
      <point x="650" y="-35"/>
      <point x="672" y="-33" type="curve"/>
      <point x="673" y="52" type="line"/>
      <point x="648" y="39"/>
      <point x="637" y="35"/>
      <point x="610" y="35" type="curve" smooth="yes"/>
      <point x="461" y="35"/>
      <point x="367" y="197"/>
      <point x="367" y="467" type="curve" smooth="yes"/>
      <point x="367" y="737"/>
      <point x="461" y="899"/>
      <point x="610" y="899" type="curve" smooth="yes"/>
      <point x="637" y="899"/>
      <point x="648" y="895"/>
      <point x="673" y="882" type="curve"/>
      <point x="672" y="967" type="line"/>
      <point x="650" y="969"/>
      <point x="629" y="970"/>
      <point x="610" y="970" type="curve" smooth="yes"/>
      <point x="245" y="970"/>
      <point x="67" y="804"/>
      <point x="67" y="467" type="curve" smooth="yes"/>
      <point x="67" y="130"/>
      <point x="245" y="-36"/>
    </contour>
    <contour>
      <point x="665" y="-526" type="line"/>
      <point x="957" y="-526" type="line"/>
      <point x="957" y="1445" type="line"/>
      <point x="665" y="1445" type="line"/>
    </contour>
  </outline>
</glyph>
<glyph name="che-cy" format="2">
  <advance width="1150"/>
  <unicode hex="0447"/>
  <anchor x="1110" y="0" name="bottomright"/>
  <anchor x="575" y="944" name="top"/>
  <outline>
    <contour>
      <point x="701" y="0" type="line"/>
      <point x="1027" y="0" type="line"/>
      <point x="1027" y="944" type="line"/>
      <point x="704" y="944" type="line"/>
      <point x="704" y="570" type="line" smooth="yes"/>
      <point x="704" y="507"/>
      <point x="617" y="402"/>
      <point x="529" y="402" type="curve" smooth="yes"/>
      <point x="440" y="402"/>
      <point x="396" y="507"/>
      <point x="396" y="634" type="curve" smooth="yes"/>
      <point x="396" y="944" type="line"/>
      <point x="73" y="944" type="line"/>
      <point x="73" y="585" type="line" smooth="yes"/>
      <point x="73" y="387"/>
      <point x="221" y="287"/>
      <point x="429" y="287" type="curve" smooth="yes"/>
      <point x="589" y="287"/>
      <point x="729" y="346"/>
      <point x="769" y="507" type="curve"/>
      <point x="705" y="691" type="line"/>
    </contour>
  </outline>
</glyph>
<glyph name="sha-cy" format="2">
  <advance width="1550"/>
  <unicode hex="0448"/>
  <anchor x="1488" y="0" name="bottomright"/>
  <outline>
    <contour>
      <point x="111" y="0" type="line"/>
      <point x="1438" y="0" type="line"/>
      <point x="1438" y="944" type="line"/>
      <point x="1138" y="944" type="line"/>
      <point x="1138" y="94" type="line"/>
      <point x="411" y="94" type="line"/>
      <point x="411" y="944" type="line"/>
      <point x="111" y="944" type="line"/>
    </contour>
    <contour>
      <point x="625" y="0" type="line"/>
      <point x="925" y="0" type="line"/>
      <point x="925" y="944" type="line"/>
      <point x="625" y="944" type="line"/>
    </contour>
  </outline>
</glyph>
<glyph name="softsign-cy" format="2">
  <advance width="1051"/>
  <unicode hex="044C"/>
  <outline>
    <contour>
      <point x="123" y="0" type="line"/>
      <point x="609" y="0" type="line" smooth="yes"/>
      <point x="845" y="0"/>
      <point x="1000" y="83"/>
      <point x="1000" y="315" type="curve" smooth="yes"/>
      <point x="1000" y="539"/>
      <point x="855" y="636"/>
      <point x="611" y="636" type="curve" smooth="yes"/>
      <point x="323" y="636" type="line"/>
      <point x="455" y="578" type="line"/>
      <point x="455" y="944" type="line"/>
      <point x="124" y="944" type="line"/>
    </contour>
    <contour>
      <point x="455" y="12" type="line"/>
      <point x="455" y="617" type="line"/>
      <point x="411" y="565" type="line"/>
      <point x="542" y="566" type="line" smooth="yes"/>
      <point x="635" y="567"/>
      <point x="693" y="465"/>
      <point x="693" y="315" type="curve" smooth="yes"/>
      <point x="693" y="164"/>
      <point x="635" y="70"/>
      <point x="542" y="70" type="curve" smooth="yes"/>
      <point x="150" y="69" type="line"/>
    </contour>
  </outline>
</glyph>
<glyph name="ereversed-cy" format="2">
  <advance width="1160"/>
  <unicode hex="044D"/>
  <anchor x="580" y="463" name="top"/>
  <outline>
    <contour>
      <point x="551" y="-42" type="curve" smooth="yes"/>
      <point x="897" y="-42"/>
      <point x="1097" y="154"/>
      <point x="1097" y="461" type="curve" smooth="yes"/>
      <point x="1097" y="778"/>
      <point x="883" y="968"/>
      <point x="553" y="968" type="curve" smooth="yes"/>
      <point x="311" y="968"/>
      <point x="137" y="866"/>
      <point x="53" y="711" type="curve"/>
      <point x="386" y="708" type="line"/>
      <point x="430" y="831"/>
      <point x="488" y="900"/>
      <point x="562" y="900" type="curve" smooth="yes"/>
      <point x="679" y="900"/>
      <point x="760" y="731"/>
      <point x="760" y="459" type="curve" smooth="yes"/>
      <point x="760" y="195"/>
      <point x="684" y="27"/>
      <point x="563" y="27" type="curve" smooth="yes"/>
      <point x="482" y="27"/>
      <point x="415" y="101"/>
      <point x="375" y="235" type="curve"/>
      <point x="41" y="232" type="line"/>
      <point x="115" y="62"/>
      <point x="299" y="-42"/>
    </contour>
    <contour>
      <point x="381" y="432" type="line"/>
      <point x="857" y="432" type="line"/>
      <point x="857" y="494" type="line"/>
      <point x="381" y="494" type="line"/>
    </contour>
  </outline>
</glyph>
<glyph name="ia-cy" format="2">
  <advance width="1121"/>
  <unicode hex="044F"/>
  <anchor x="561" y="941" name="top"/>
  <outline>
    <contour>
      <point x="687" y="0" type="line"/>
      <point x="1009" y="0" type="line"/>
      <point x="1009" y="944" type="line"/>
      <point x="564" y="944" type="line" smooth="yes"/>
      <point x="313" y="944"/>
      <point x="141" y="839"/>
      <point x="141" y="651" type="curve" smooth="yes"/>
      <point x="141" y="461"/>
      <point x="323" y="382"/>
      <point x="546" y="382" type="curve" smooth="yes"/>
      <point x="593" y="382" type="line"/>
      <point x="822" y="381" type="line"/>
      <point x="687" y="446" type="line"/>
    </contour>
    <contour>
      <point x="687" y="415" type="line"/>
      <point x="759" y="451" type="line"/>
      <point x="599" y="451" type="line" smooth="yes"/>
      <point x="482" y="451"/>
      <point x="427" y="518"/>
      <point x="427" y="644" type="curve" smooth="yes"/>
      <point x="427" y="764"/>
      <point x="475" y="881"/>
      <point x="609" y="881" type="curve" smooth="yes"/>
      <point x="957" y="881" type="line"/>
      <point x="687" y="938" type="line"/>
    </contour>
    <contour>
      <point x="77" y="0" type="curve"/>
      <point x="394" y="0" type="line"/>
      <point x="407" y="50"/>
      <point x="408" y="75"/>
      <point x="426" y="140" type="curve" smooth="yes"/>
      <point x="454" y="232"/>
      <point x="478" y="284"/>
      <point x="521" y="319" type="curve" smooth="yes"/>
      <point x="569" y="358"/>
      <point x="636" y="380"/>
      <point x="722" y="385" type="curve"/>
      <point x="420" y="425" type="line"/>
      <point x="359" y="429"/>
      <point x="274" y="393"/>
      <point x="223" y="350" type="curve" smooth="yes"/>
      <point x="185" y="318"/>
      <point x="151" y="281"/>
      <point x="126" y="183" type="curve" smooth="yes"/>
      <point x="114" y="136"/>
      <point x="94" y="51"/>
    </contour>
  </outline>
</glyph>
<glyph name="dje-cy" format="2">
  <advance width="1249"/>
  <unicode hex="0452"/>
  <outline>
    <contour>
      <point x="136" y="0" type="line"/>
      <point x="470" y="0" type="line"/>
      <point x="470" y="462" type="line"/>
      <point x="470" y="702"/>
      <point x="594" y="883"/>
      <point x="705" y="883" type="curve"/>
      <point x="788" y="883"/>
      <point x="804" y="781"/>
      <point x="804" y="526" type="curve"/>
      <point x="804" y="0" type="line"/>
      <point x="1136" y="0" type="line"/>
      <point x="1136" y="608" type="line"/>
      <point x="1136" y="818"/>
      <point x="969" y="955"/>
      <point x="730" y="955" type="curve"/>
      <point x="524" y="955"/>
      <point x="375" y="854"/>
      <point x="317" y="685" type="curve"/>
      <point x="468" y="471" type="line"/>
      <point x="468" y="1529" type="line"/>
      <point x="136" y="1529" type="line"/>
    </contour>
    <contour>
      <point x="22" y="1298" type="line"/>
      <point x="606" y="1298" type="line"/>
      <point x="606" y="1364" type="line"/>
      <point x="22" y="1364" type="line"/>
    </contour>
    <contour>
      <point x="832" y="-560" type="curve"/>
      <point x="1050" y="-560"/>
      <point x="1136" y="-449"/>
      <point x="1136" y="-133" type="curve"/>
      <point x="1136" y="345" type="line"/>
      <point x="804" y="345" type="line"/>
      <point x="804" y="-33" type="line"/>
      <point x="804" y="-166"/>
      <point x="870" y="-416"/>
      <point x="782" y="-469" type="curve"/>
      <point x="708" y="-453"/>
      <point x="731" y="-428"/>
      <point x="731" y="-380" type="curve"/>
      <point x="731" y="-352"/>
      <point x="739" y="-295"/>
      <point x="749" y="-255" type="curve"/>
      <point x="532" y="-255" type="line"/>
      <point x="524" y="-307"/>
      <point x="521" y="-338"/>
      <point x="521" y="-357" type="curve"/>
      <point x="521" y="-485"/>
      <point x="653" y="-560"/>
    </contour>
  </outline>
</glyph>
<glyph name="Yat-cy" format="2">
  <advance width="1251"/>
  <unicode hex="0462"/>
  <outline>
    <contour>
      <point x="258" y="0" type="line"/>
      <point x="696" y="-2" type="line" smooth="yes"/>
      <point x="838" y="-2"/>
      <point x="960" y="40"/>
      <point x="1035" y="105" type="curve" smooth="yes"/>
      <point x="1130" y="186"/>
      <point x="1162" y="310"/>
      <point x="1162" y="405" type="curve" smooth="yes"/>
      <point x="1162" y="496"/>
      <point x="1130" y="623"/>
      <point x="1035" y="705" type="curve" smooth="yes"/>
      <point x="960" y="769"/>
      <point x="838" y="812"/>
      <point x="696" y="812" type="curve" smooth="yes"/>
      <point x="433" y="813" type="line"/>
      <point x="584" y="783" type="line"/>
      <point x="584" y="1445" type="line"/>
      <point x="258" y="1445" type="line"/>
    </contour>
    <contour>
      <point x="584" y="18" type="line"/>
      <point x="584" y="766" type="line"/>
      <point x="497" y="746" type="line"/>
      <point x="676" y="745" type="line" smooth="yes"/>
      <point x="826" y="744"/>
      <point x="869" y="530"/>
      <point x="869" y="405" type="curve" smooth="yes"/>
      <point x="869" y="280"/>
      <point x="826" y="60"/>
      <point x="676" y="63" type="curve" smooth="yes"/>
      <point x="291" y="71" type="line"/>
    </contour>
    <contour>
      <point x="60" y="1243" type="line"/>
      <point x="784" y="1243" type="line"/>
      <point x="784" y="1309" type="line"/>
      <point x="60" y="1309" type="line"/>
    </contour>
  </outline>
</glyph>
<glyph name="yat-cy" format="2">
  <advance width="1064"/>
  <unicode hex="0463"/>
  <anchor x="310" y="1234" name="center"/>
  <outline>
    <contour>
      <point x="136" y="0" type="line"/>
      <point x="622" y="0" type="line" smooth="yes"/>
      <point x="858" y="0"/>
      <point x="1013" y="83"/>
      <point x="1013" y="315" type="curve" smooth="yes"/>
      <point x="1013" y="539"/>
      <point x="868" y="636"/>
      <point x="624" y="636" type="curve" smooth="yes"/>
      <point x="336" y="636" type="line"/>
      <point x="468" y="578" type="line"/>
      <point x="468" y="1524" type="line"/>
      <point x="137" y="1524" type="line"/>
    </contour>
    <contour>
      <point x="468" y="12" type="line"/>
      <point x="468" y="617" type="line"/>
      <point x="424" y="565" type="line"/>
      <point x="555" y="566" type="line" smooth="yes"/>
      <point x="648" y="567"/>
      <point x="706" y="465"/>
      <point x="706" y="315" type="curve" smooth="yes"/>
      <point x="706" y="164"/>
      <point x="648" y="70"/>
      <point x="555" y="70" type="curve" smooth="yes"/>
      <point x="163" y="69" type="line"/>
    </contour>
    <component base="_cyrillic_bar" xOffset="13" yOffset="740"/>
  </outline>
</glyph>
<glyph name="Fita-cy" format="2">
  <advance width="1688"/>
  <unicode hex="0472"/>
  <anchor x="844" y="0" name="bottom"/>
  <anchor x="844" y="715" name="center"/>
  <anchor x="990" y="0" name="ogonek"/>
  <anchor x="844" y="1430" name="top"/>
  <anchor x="42" y="1430" name="topleft"/>
  <anchor x="1456" y="1430" name="topright"/>
  <outline>
    <contour>
      <point x="1003" y="616" type="curve" smooth="yes"/>
      <point x="1085" y="616"/>
      <point x="1249" y="638"/>
      <point x="1283" y="796" type="curve"/>
      <point x="1283" y="870" type="line"/>
      <point x="1264" y="772"/>
      <point x="1166" y="734"/>
      <point x="1093" y="734" type="curve" smooth="yes"/>
      <point x="895" y="734"/>
      <point x="852" y="822"/>
      <point x="686" y="822" type="curve" smooth="yes"/>
      <point x="602" y="822"/>
      <point x="439" y="798"/>
      <point x="405" y="640" type="curve"/>
      <point x="405" y="564" type="line"/>
      <point x="423" y="656"/>
      <point x="493" y="700"/>
      <point x="641" y="700" type="curve" smooth="yes"/>
      <point x="724" y="700"/>
      <point x="858" y="616"/>
    </contour>
    <component base="O"/>
  </outline>
</glyph>
<glyph name="Izhitsa-cy" format="2">
  <advance width="1615"/>
  <unicode hex="0474"/>
  <anchor x="808" y="1445" name="top"/>
  <outline>
    <contour>
      <point x="669" y="-40" type="line"/>
      <point x="1071" y="949" type="line" smooth="yes"/>
      <point x="1125" y="1081"/>
      <point x="1181" y="1405"/>
      <point x="1306" y="1405" type="curve" smooth="yes"/>
      <point x="1344" y="1405"/>
      <point x="1407" y="1369"/>
      <point x="1407" y="1296" type="curve" smooth="yes"/>
      <point x="1407" y="1270"/>
      <point x="1399" y="1211"/>
      <point x="1379" y="1171" type="curve"/>
      <point x="1536" y="1171" type="line"/>
      <point x="1544" y="1223"/>
      <point x="1547" y="1251"/>
      <point x="1547" y="1273" type="curve" smooth="yes"/>
      <point x="1547" y="1398"/>
      <point x="1450" y="1476"/>
      <point x="1326" y="1476" type="curve" smooth="yes"/>
      <point x="1158" y="1476"/>
      <point x="1068" y="1333"/>
      <point x="954" y="1053" type="curve" smooth="yes"/>
      <point x="710" y="453" type="line"/>
      <point x="823" y="453" type="line"/>
      <point x="427" y="1445" type="line"/>
      <point x="64" y="1445" type="line"/>
    </contour>
  </outline>
</glyph>
<glyph name="izhitsa-cy" format="2">
  <advance width="1268"/>
  <unicode hex="0475"/>
  <anchor x="634" y="944" name="top"/>
  <outline>
    <contour>
      <point x="448" y="-26" type="line"/>
      <point x="577" y="-26" type="line"/>
      <point x="787" y="455" type="line" smooth="yes"/>
      <point x="847" y="592"/>
      <point x="940" y="879"/>
      <point x="1093" y="879" type="curve" smooth="yes"/>
      <point x="1149" y="879"/>
      <point x="1159" y="840"/>
      <point x="1163" y="828" type="curve"/>
      <point x="1245" y="916" type="line"/>
      <point x="1182" y="957"/>
      <point x="1129" y="970"/>
      <point x="1076" y="970" type="curve" smooth="yes"/>
      <point x="900" y="970"/>
      <point x="781" y="828"/>
      <point x="659" y="543" type="curve" smooth="yes"/>
      <point x="538" y="259" type="line"/>
      <point x="656" y="259" type="line"/>
      <point x="366" y="945" type="line"/>
      <point x="33" y="945" type="line"/>
    </contour>
  </outline>
</glyph>
<glyph name="Shha-cy" format="2">
  <advance width="1370"/>
  <unicode hex="04BA"/>
  <anchor x="1350" y="0" name="bottomright"/>
  <outline>
    <contour>
      <point x="168" y="0" type="line"/>
      <point x="494" y="0" type="line"/>
      <point x="494" y="362" type="line" smooth="yes"/>
      <point x="494" y="611"/>
      <point x="616" y="785"/>
      <point x="747" y="785" type="curve" smooth="yes"/>
      <point x="872" y="785"/>
      <point x="944" y="647"/>
      <point x="944" y="356" type="curve" smooth="yes"/>
      <point x="944" y="0" type="line"/>
      <point x="1270" y="0" type="line"/>
      <point x="1270" y="388" type="line" smooth="yes"/>
      <point x="1270" y="757"/>
      <point x="1005" y="855"/>
      <point x="773" y="855" type="curve" smooth="yes"/>
      <point x="574" y="855"/>
      <point x="514" y="723"/>
      <point x="457" y="551" type="curve"/>
      <point x="494" y="604" type="line"/>
      <point x="494" y="1445" type="line"/>
      <point x="168" y="1445" type="line"/>
    </contour>
  </outline>
</glyph>
<glyph name="Germandbls" format="2">
  <advance width="1700"/>
  <unicode hex="1E9E"/>
  <anchor x="850" y="0" name="bottom"/>
  <anchor x="850" y="1430" name="top"/>
  <outline>
    <contour>
      <point x="1073" y="-40" type="curve" smooth="yes"/>
      <point x="1462" y="-40"/>
      <point x="1620" y="101"/>
      <point x="1620" y="426" type="curve" smooth="yes"/>
      <point x="1620" y="708"/>
      <point x="1286" y="836"/>
      <point x="1082" y="899" type="curve" smooth="yes"/>
      <point x="1020" y="918"/>
      <point x="964" y="933"/>
      <point x="940" y="943" type="curve"/>
      <point x="1105" y="696" type="line"/>
      <point x="1347" y="1480" type="line"/>
      <point x="1304" y="1491"/>
      <point x="1119" y="1529"/>
      <point x="837" y="1529" type="curve" smooth="yes"/>
      <point x="463" y="1529"/>
      <point x="154" y="1400"/>
      <point x="154" y="1167" type="curve" smooth="yes"/>
      <point x="154" y="0" type="line"/>
      <point x="490" y="0" type="line"/>
      <point x="490" y="1268" type="line" smooth="yes"/>
      <point x="490" y="1390"/>
      <point x="684" y="1463"/>
      <point x="837" y="1463" type="curve" smooth="yes"/>
      <point x="942" y="1463"/>
      <point x="1049" y="1457"/>
      <point x="1255" y="1447" type="curve"/>
      <point x="1012" y="1504" type="line"/>
      <point x="776" y="742" type="line"/>
      <point x="852" y="719"/>
      <point x="936" y="692"/>
      <point x="1003" y="672" type="curve" smooth="yes"/>
      <point x="1202" y="611"/>
      <point x="1346" y="502"/>
      <point x="1346" y="368" type="curve" smooth="yes"/>
      <point x="1346" y="183"/>
      <point x="1231" y="26"/>
      <point x="1087" y="26" type="curve" smooth="yes"/>
      <point x="960" y="26"/>
      <point x="861" y="118"/>
      <point x="753" y="332" type="curve"/>
      <point x="679" y="93" type="line"/>
      <point x="740" y="10"/>
      <point x="902" y="-40"/>
    </contour>
  </outline>
</glyph>
<glyph name="emdash" format="2">
  <advance width="1640"/>
  <unicode hex="2014"/>
  <note>
emdash
</note>
  <outline>
    <contour>
      <point x="67" y="447" type="line"/>
      <point x="1511" y="447" type="line"/>
      <point x="1573" y="617" type="line"/>
      <point x="129" y="617" type="line"/>
    </contour>
  </outline>
</glyph>
<glyph name="dagger" format="2">
  <advance width="1206"/>
  <unicode hex="2020"/>
  <note>
dagger
</note>
  <outline>
    <contour>
      <point x="603" y="-300" type="curve" smooth="yes"/>
      <point x="678" y="-300"/>
      <point x="733" y="-21"/>
      <point x="733" y="58" type="curve" smooth="yes"/>
      <point x="733" y="617" type="line" smooth="yes"/>
      <point x="733" y="807"/>
      <point x="688" y="972"/>
      <point x="658" y="942" type="curve" smooth="yes"/>
      <point x="628" y="912"/>
      <point x="780" y="866"/>
      <point x="975" y="866" type="curve" smooth="yes"/>
      <point x="1004" y="866"/>
      <point x="1113" y="898"/>
      <point x="1113" y="941" type="curve" smooth="yes"/>
      <point x="1113" y="984"/>
      <point x="1004" y="1016"/>
      <point x="975" y="1016" type="curve" smooth="yes"/>
      <point x="760" y="1016"/>
      <point x="622" y="977"/>
      <point x="658" y="941" type="curve" smooth="yes"/>
      <point x="695" y="904"/>
      <point x="733" y="1038"/>
      <point x="733" y="1186" type="curve" smooth="yes"/>
      <point x="733" y="1285"/>
      <point x="678" y="1394"/>
      <point x="603" y="1394" type="curve" smooth="yes"/>
      <point x="528" y="1394"/>
      <point x="473" y="1285"/>
      <point x="473" y="1186" type="curve" smooth="yes"/>
      <point x="473" y="1038"/>
      <point x="511" y="904"/>
      <point x="548" y="941" type="curve" smooth="yes"/>
      <point x="584" y="977"/>
      <point x="446" y="1016"/>
      <point x="231" y="1016" type="curve" smooth="yes"/>
      <point x="202" y="1016"/>
      <point x="93" y="984"/>
      <point x="93" y="941" type="curve" smooth="yes"/>
      <point x="93" y="898"/>
      <point x="202" y="866"/>
      <point x="231" y="866" type="curve" smooth="yes"/>
      <point x="426" y="866"/>
      <point x="578" y="912"/>
      <point x="548" y="942" type="curve" smooth="yes"/>
      <point x="518" y="972"/>
      <point x="473" y="807"/>
      <point x="473" y="617" type="curve" smooth="yes"/>
      <point x="473" y="58" type="line" smooth="yes"/>
      <point x="473" y="-21"/>
      <point x="528" y="-300"/>
    </contour>
  </outline>
</glyph>
<glyph name="daggerdbl" format="2">
  <advance width="1228"/>
  <unicode hex="2021"/>
  <note>
daggerdbl
</note>
  <outline>
    <contour>
      <point x="614" y="-300" type="curve" smooth="yes"/>
      <point x="689" y="-300"/>
      <point x="744" y="-191"/>
      <point x="744" y="-92" type="curve" smooth="yes"/>
      <point x="744" y="-15"/>
      <point x="734" y="59"/>
      <point x="718" y="106" type="curve"/>
      <point x="774" y="90"/>
      <point x="869" y="78"/>
      <point x="986" y="78" type="curve" smooth="yes"/>
      <point x="1015" y="78"/>
      <point x="1124" y="110"/>
      <point x="1124" y="153" type="curve" smooth="yes"/>
      <point x="1124" y="196"/>
      <point x="1015" y="228"/>
      <point x="986" y="228" type="curve" smooth="yes"/>
      <point x="864" y="228"/>
      <point x="760" y="210"/>
      <point x="705" y="189" type="curve"/>
      <point x="726" y="247"/>
      <point x="744" y="357"/>
      <point x="744" y="477" type="curve" smooth="yes"/>
      <point x="744" y="617" type="line" smooth="yes"/>
      <point x="744" y="737"/>
      <point x="726" y="847"/>
      <point x="705" y="905" type="curve"/>
      <point x="760" y="884"/>
      <point x="864" y="866"/>
      <point x="986" y="866" type="curve" smooth="yes"/>
      <point x="1015" y="866"/>
      <point x="1124" y="898"/>
      <point x="1124" y="941" type="curve" smooth="yes"/>
      <point x="1124" y="984"/>
      <point x="1015" y="1016"/>
      <point x="986" y="1016" type="curve" smooth="yes"/>
      <point x="869" y="1016"/>
      <point x="774" y="1004"/>
      <point x="718" y="988" type="curve"/>
      <point x="734" y="1035"/>
      <point x="744" y="1109"/>
      <point x="744" y="1186" type="curve" smooth="yes"/>
      <point x="744" y="1285"/>
      <point x="689" y="1394"/>
      <point x="614" y="1394" type="curve" smooth="yes"/>
      <point x="539" y="1394"/>
      <point x="484" y="1285"/>
      <point x="484" y="1186" type="curve" smooth="yes"/>
      <point x="484" y="1109"/>
      <point x="494" y="1035"/>
      <point x="510" y="988" type="curve"/>
      <point x="454" y="1004"/>
      <point x="359" y="1016"/>
      <point x="242" y="1016" type="curve" smooth="yes"/>
      <point x="213" y="1016"/>
      <point x="104" y="984"/>
      <point x="104" y="941" type="curve" smooth="yes"/>
      <point x="104" y="898"/>
      <point x="213" y="866"/>
      <point x="242" y="866" type="curve" smooth="yes"/>
      <point x="364" y="866"/>
      <point x="468" y="884"/>
      <point x="523" y="905" type="curve"/>
      <point x="502" y="847"/>
      <point x="484" y="737"/>
      <point x="484" y="617" type="curve" smooth="yes"/>
      <point x="484" y="477" type="line" smooth="yes"/>
      <point x="484" y="357"/>
      <point x="502" y="247"/>
      <point x="523" y="189" type="curve"/>
      <point x="468" y="210"/>
      <point x="364" y="228"/>
      <point x="242" y="228" type="curve" smooth="yes"/>
      <point x="213" y="228"/>
      <point x="104" y="196"/>
      <point x="104" y="153" type="curve" smooth="yes"/>
      <point x="104" y="110"/>
      <point x="213" y="78"/>
      <point x="242" y="78" type="curve" smooth="yes"/>
      <point x="359" y="78"/>
      <point x="454" y="90"/>
      <point x="510" y="106" type="curve"/>
      <point x="494" y="59"/>
      <point x="484" y="-15"/>
      <point x="484" y="-92" type="curve" smooth="yes"/>
      <point x="484" y="-191"/>
      <point x="539" y="-300"/>
    </contour>
  </outline>
</glyph>
<glyph name="guilsinglleft" format="2">
  <advance width="576"/>
  <unicode hex="2039"/>
  <note>
guilsinglleft
</note>
  <outline>
    <contour>
      <point x="389" y="-11" type="line"/>
      <point x="499" y="80" type="line"/>
      <point x="259" y="442" type="line"/>
      <point x="497" y="812" type="line"/>
      <point x="372" y="889" type="line"/>
      <point x="60" y="442" type="line"/>
    </contour>
  </outline>
</glyph>
<glyph name="guilsinglright" format="2">
  <advance width="575"/>
  <unicode hex="203A"/>
  <note>
guilsinglright
</note>
  <outline>
    <contour>
      <point x="186" y="-11" type="line"/>
      <point x="515" y="442" type="line"/>
      <point x="203" y="889" type="line"/>
      <point x="78" y="812" type="line"/>
      <point x="316" y="442" type="line"/>
      <point x="76" y="80" type="line"/>
    </contour>
  </outline>
</glyph>
<glyph name="franc" format="2">
  <advance width="1699"/>
  <unicode hex="20A3"/>
  <note>
franc
</note>
  <outline>
    <contour>
      <point x="220" y="-1" type="line"/>
      <point x="556" y="-1" type="line"/>
      <point x="556" y="848" type="line"/>
      <point x="405" y="697" type="line"/>
      <point x="1140" y="697" type="line"/>
      <point x="1140" y="761" type="line"/>
      <point x="405" y="761" type="line"/>
      <point x="556" y="610" type="line"/>
      <point x="556" y="1430" type="line"/>
      <point x="405" y="1379" type="line"/>
      <point x="1140" y="1379" type="line"/>
      <point x="1140" y="1445" type="line"/>
      <point x="220" y="1445" type="line"/>
    </contour>
    <contour>
      <point x="808" y="0" type="line"/>
      <point x="1140" y="0" type="line"/>
      <point x="1140" y="414" type="line" smooth="yes"/>
      <point x="1140" y="563"/>
      <point x="1245" y="713"/>
      <point x="1327" y="713" type="curve" smooth="yes"/>
      <point x="1354" y="713"/>
      <point x="1367" y="677"/>
      <point x="1367" y="613" type="curve" smooth="yes"/>
      <point x="1367" y="547"/>
      <point x="1353" y="520"/>
      <point x="1335" y="494" type="curve"/>
      <point x="1559" y="444" type="line"/>
      <point x="1572" y="513"/>
      <point x="1577" y="555"/>
      <point x="1577" y="584" type="curve" smooth="yes"/>
      <point x="1577" y="712"/>
      <point x="1458" y="787"/>
      <point x="1333" y="787" type="curve" smooth="yes"/>
      <point x="1167" y="787"/>
      <point x="1116" y="654"/>
      <point x="1054" y="397" type="curve"/>
      <point x="1140" y="480" type="line"/>
      <point x="1140" y="761" type="line"/>
      <point x="808" y="761" type="line"/>
    </contour>
  </outline>
</glyph>
<glyph name="lira" format="2">
  <advance width="1386"/>
  <unicode hex="20A4"/>
  <outline>
    <contour>
      <point x="163" y="-20" type="line"/>
      <point x="1249" y="-20" type="line"/>
      <point x="1249" y="77" type="line"/>
      <point x="163" y="77" type="line"/>
    </contour>
    <contour>
      <point x="163" y="757" type="line"/>
      <point x="1119" y="757" type="line"/>
      <point x="1119" y="823" type="line"/>
      <point x="163" y="823" type="line"/>
    </contour>
    <contour>
      <point x="163" y="77" type="curve"/>
      <point x="327" y="64" type="line"/>
      <point x="537" y="228"/>
      <point x="625" y="318"/>
      <point x="663" y="625" type="curve" smooth="yes"/>
      <point x="701" y="931"/>
      <point x="524" y="863"/>
      <point x="524" y="1170" type="curve" smooth="yes"/>
      <point x="524" y="1337"/>
      <point x="582" y="1418"/>
      <point x="699" y="1418" type="curve" smooth="yes"/>
      <point x="840" y="1418"/>
      <point x="962" y="1305"/>
      <point x="946" y="1108" type="curve"/>
      <point x="1255" y="1108" type="line"/>
      <point x="1262" y="1327"/>
      <point x="1002" y="1484"/>
      <point x="706" y="1484" type="curve" smooth="yes"/>
      <point x="414" y="1484"/>
      <point x="200" y="1345"/>
      <point x="200" y="1152" type="curve" smooth="yes"/>
      <point x="200" y="840"/>
      <point x="412" y="872"/>
      <point x="375" y="615" type="curve" smooth="yes"/>
      <point x="351" y="451"/>
      <point x="267" y="169"/>
    </contour>
    <contour>
      <point x="163" y="547" type="line"/>
      <point x="1119" y="547" type="line"/>
      <point x="1119" y="613" type="line"/>
      <point x="163" y="613" type="line"/>
    </contour>
  </outline>
</glyph>
<glyph name="kip" format="2">
  <advance width="1710"/>
  <unicode hex="20AD"/>
  <outline>
    <contour>
      <point x="1222" y="0" type="line"/>
      <point x="1599" y="0" type="line"/>
      <point x="953" y="820" type="line"/>
      <point x="670" y="702" type="line"/>
    </contour>
    <contour>
      <point x="220" y="0" type="line"/>
      <point x="556" y="0" type="line"/>
      <point x="556" y="1445" type="line"/>
      <point x="220" y="1445" type="line"/>
    </contour>
    <contour>
      <point x="323" y="640" type="line"/>
      <point x="964" y="640" type="line"/>
      <point x="964" y="806" type="line"/>
      <point x="323" y="806" type="line"/>
    </contour>
    <contour>
      <point x="855" y="685" type="line"/>
      <point x="1523" y="1445" type="line"/>
      <point x="1323" y="1445" type="line"/>
      <point x="712" y="751" type="line"/>
    </contour>
  </outline>
</glyph>
<glyph name="peso" format="2">
  <advance width="1644"/>
  <unicode hex="20B1"/>
  <anchor x="812" y="0" name="_bottom"/>
  <anchor x="812" y="515" name="bar"/>
  <anchor x="812" y="-326" name="bottom"/>
  <anchor x="812" y="1430" name="top"/>
  <outline>
    <contour>
      <point x="122" y="1089" type="line"/>
      <point x="1522" y="1089" type="line"/>
      <point x="1522" y="1126" type="line"/>
      <point x="122" y="1126" type="line"/>
    </contour>
    <contour>
      <point x="122" y="889" type="line"/>
      <point x="1522" y="889" type="line"/>
      <point x="1522" y="926" type="line"/>
      <point x="122" y="926" type="line"/>
    </contour>
    <component base="P" xOffset="175"/>
  </outline>
</glyph>
<glyph name="guarani" format="2">
  <advance width="1758"/>
  <unicode hex="20B2"/>
  <anchor x="882" y="0" name="bottom"/>
  <anchor x="890" y="1430" name="top"/>
  <outline>
    <contour>
      <point x="892" y="-41" type="curve" smooth="yes"/>
      <point x="1292" y="-41"/>
      <point x="1607" y="248"/>
      <point x="1640" y="645" type="curve"/>
      <point x="1298" y="645" type="line"/>
      <point x="1280" y="271"/>
      <point x="1113" y="19"/>
      <point x="889" y="19" type="curve" smooth="yes"/>
      <point x="650" y="19"/>
      <point x="479" y="306"/>
      <point x="479" y="714" type="curve" smooth="yes"/>
      <point x="479" y="1124"/>
      <point x="652" y="1415"/>
      <point x="890" y="1415" type="curve" smooth="yes"/>
      <point x="1038" y="1415"/>
      <point x="1155" y="1310"/>
      <point x="1235" y="1103" type="curve"/>
      <point x="1539" y="1103" type="line"/>
      <point x="1431" y="1314"/>
      <point x="1149" y="1475"/>
      <point x="889" y="1475" type="curve" smooth="yes"/>
      <point x="475" y="1475"/>
      <point x="137" y="1134"/>
      <point x="137" y="718" type="curve" smooth="yes"/>
      <point x="137" y="282"/>
      <point x="459" y="-41"/>
    </contour>
    <contour>
      <point x="1079" y="579" type="line"/>
      <point x="1473" y="579" type="line"/>
      <point x="1473" y="645" type="line"/>
      <point x="1079" y="645" type="line"/>
    </contour>
    <contour>
      <point x="797" y="-187" type="line"/>
      <point x="943" y="-187" type="line"/>
      <point x="943" y="1599" type="line"/>
      <point x="797" y="1599" type="line"/>
    </contour>
  </outline>
</glyph>
<glyph name="rupeeIndian" format="2">
  <advance width="1433"/>
  <unicode hex="20B9"/>
  <outline>
    <contour>
      <point x="410" y="705" type="line"/>
      <point x="526" y="705"/>
      <point x="547" y="705"/>
      <point x="600" y="591" type="curve" smooth="yes"/>
      <point x="618" y="553"/>
      <point x="628" y="514"/>
      <point x="695" y="215" type="curve" smooth="yes"/>
      <point x="715" y="126"/>
      <point x="727" y="84"/>
      <point x="748" y="0" type="curve"/>
      <point x="1098" y="0" type="line"/>
      <point x="1077" y="74"/>
      <point x="1055" y="147"/>
      <point x="1028" y="271" type="curve" smooth="yes"/>
      <point x="956" y="599"/>
      <point x="952" y="610"/>
      <point x="879" y="685" type="curve" smooth="yes"/>
      <point x="848" y="717"/>
      <point x="754" y="752"/>
      <point x="699" y="752" type="curve"/>
    </contour>
    <contour>
      <point x="142" y="771" type="line"/>
      <point x="142" y="705" type="line"/>
      <point x="410" y="705" type="line"/>
      <point x="682" y="706" type="line"/>
      <point x="883" y="718"/>
      <point x="1029" y="865"/>
      <point x="1029" y="1072" type="curve" smooth="yes"/>
      <point x="1029" y="1315"/>
      <point x="830" y="1445"/>
      <point x="460" y="1445" type="curve" smooth="yes"/>
      <point x="142" y="1445" type="line"/>
      <point x="142" y="1379" type="line"/>
      <point x="460" y="1379" type="line" smooth="yes"/>
      <point x="616" y="1379"/>
      <point x="681" y="1289"/>
      <point x="681" y="1076" type="curve" smooth="yes"/>
      <point x="681" y="857"/>
      <point x="619" y="771"/>
      <point x="460" y="771" type="curve" smooth="yes"/>
    </contour>
    <contour>
      <point x="142" y="1379" type="line"/>
      <point x="1307" y="1379" type="line"/>
      <point x="1307" y="1445" type="line"/>
      <point x="142" y="1445" type="line"/>
    </contour>
    <contour>
      <point x="142" y="1039" type="line"/>
      <point x="1307" y="1039" type="line"/>
      <point x="1307" y="1105" type="line"/>
      <point x="142" y="1105" type="line"/>
    </contour>
  </outline>
</glyph>
<glyph name="liraTurkish" format="2">
  <advance width="1339"/>
  <unicode hex="20BA"/>
  <outline>
    <contour>
      <point x="333" y="0" type="line"/>
      <point x="980" y="0"/>
      <point x="1086" y="0"/>
      <point x="1223" y="460" type="curve"/>
      <point x="1093" y="460" type="line"/>
      <point x="1054" y="0"/>
      <point x="758" y="81"/>
      <point x="376" y="51" type="curve"/>
      <point x="669" y="24" type="line"/>
      <point x="669" y="1445" type="line"/>
      <point x="333" y="1445" type="line"/>
    </contour>
    <contour>
      <point x="168" y="458" type="line"/>
      <point x="891" y="893" type="line"/>
      <point x="844" y="972" type="line"/>
      <point x="121" y="537" type="line"/>
    </contour>
    <contour>
      <point x="168" y="658" type="line"/>
      <point x="891" y="1093" type="line"/>
      <point x="844" y="1172" type="line"/>
      <point x="121" y="737" type="line"/>
    </contour>
  </outline>
</glyph>
<glyph name="ruble" format="2">
  <advance width="1558"/>
  <unicode hex="20BD"/>
  <anchor x="871" y="0" name="_bottom"/>
  <anchor x="871" y="515" name="bar"/>
  <anchor x="871" y="-326" name="bottom"/>
  <anchor x="871" y="1430" name="top"/>
  <outline>
    <contour>
      <point x="121" y="551" type="line"/>
      <point x="721" y="551" type="line"/>
      <point x="721" y="588" type="line"/>
      <point x="121" y="588" type="line"/>
    </contour>
    <contour>
      <point x="121" y="351" type="line"/>
      <point x="921" y="351" type="line"/>
      <point x="921" y="388" type="line"/>
      <point x="121" y="388" type="line"/>
    </contour>
    <component base="P" xOffset="234"/>
  </outline>
</glyph>
<glyph name="emptyset" format="2">
  <advance width="1200"/>
  <unicode hex="2205"/>
  <outline>
    <contour>
      <point x="551" y="-32" type="curve" smooth="yes"/>
      <point x="827" y="-32"/>
      <point x="1051" y="193"/>
      <point x="1051" y="470" type="curve" smooth="yes"/>
      <point x="1051" y="746"/>
      <point x="827" y="970"/>
      <point x="551" y="970" type="curve" smooth="yes"/>
      <point x="274" y="970"/>
      <point x="50" y="746"/>
      <point x="50" y="470" type="curve" smooth="yes"/>
      <point x="50" y="193"/>
      <point x="274" y="-32"/>
    </contour>
    <contour>
      <point x="551" y="136" type="curve" smooth="yes"/>
      <point x="366" y="136"/>
      <point x="217" y="285"/>
      <point x="217" y="470" type="curve" smooth="yes"/>
      <point x="217" y="654"/>
      <point x="366" y="803"/>
      <point x="551" y="803" type="curve" smooth="yes"/>
      <point x="735" y="803"/>
      <point x="884" y="654"/>
      <point x="884" y="470" type="curve" smooth="yes"/>
      <point x="884" y="285"/>
      <point x="735" y="136"/>
    </contour>
    <component base="slashlongcomb" xOffset="127"/>
  </outline>
</glyph>
<glyph name="product" format="2">
  <advance width="1726"/>
  <unicode hex="220F"/>
  <note>
product
</note>
  <outline>
    <contour>
      <point x="208" y="-399" type="line"/>
      <point x="532" y="-399" type="line"/>
      <point x="532" y="1255" type="line"/>
      <point x="1192" y="1255" type="line"/>
      <point x="1192" y="-399" type="line"/>
      <point x="1518" y="-399" type="line"/>
      <point x="1518" y="1453" type="line"/>
      <point x="208" y="1453" type="line"/>
    </contour>
  </outline>
</glyph>
<glyph name="minus" format="2">
  <advance width="1088"/>
  <unicode hex="2212"/>
  <note>
minus
</note>
  <outline>
    <contour>
      <point x="65" y="567" type="line"/>
      <point x="1011" y="567" type="line"/>
      <point x="1011" y="769" type="line"/>
      <point x="65" y="769" type="line"/>
    </contour>
  </outline>
</glyph>
<glyph name="fraction" format="2">
  <unicode hex="2215"/>
  <note>
fraction
</note>
  <outline>
    <contour>
      <point x="-573" y="-61" type="line"/>
      <point x="-373" y="-61" type="line"/>
      <point x="573" y="1471" type="line"/>
      <point x="373" y="1471" type="line"/>
    </contour>
  </outline>
</glyph>
<glyph name="radical" format="2">
  <advance width="1525"/>
  <unicode hex="221A"/>
  <note>
radical
</note>
  <outline>
    <contour>
      <point x="555" y="-55" type="line"/>
      <point x="722" y="-55" type="line"/>
      <point x="1302" y="1513" type="line"/>
      <point x="1426" y="1513" type="line"/>
      <point x="1426" y="1623" type="line"/>
      <point x="1126" y="1623" type="line"/>
      <point x="674" y="406" type="line"/>
      <point x="464" y="985" type="line"/>
      <point x="96" y="856" type="line"/>
      <point x="131" y="750" type="line"/>
      <point x="248" y="792" type="line"/>
    </contour>
  </outline>
</glyph>
<glyph name="infinity" format="2">
  <advance width="1626"/>
  <unicode hex="221E"/>
  <note>
infinity
</note>
  <outline>
    <contour>
      <point x="512" y="209" type="curve" smooth="yes"/>
      <point x="641" y="209"/>
      <point x="742" y="264"/>
      <point x="826" y="381" type="curve"/>
      <point x="910" y="265"/>
      <point x="1007" y="213"/>
      <point x="1136" y="213" type="curve" smooth="yes"/>
      <point x="1350" y="213"/>
      <point x="1489" y="365"/>
      <point x="1489" y="602" type="curve" smooth="yes"/>
      <point x="1489" y="825"/>
      <point x="1330" y="989"/>
      <point x="1114" y="989" type="curve" smooth="yes"/>
      <point x="986" y="989"/>
      <point x="882" y="931"/>
      <point x="800" y="816" type="curve"/>
      <point x="719" y="931"/>
      <point x="620" y="985"/>
      <point x="492" y="985" type="curve" smooth="yes"/>
      <point x="277" y="985"/>
      <point x="137" y="832"/>
      <point x="137" y="596" type="curve" smooth="yes"/>
      <point x="137" y="374"/>
      <point x="296" y="209"/>
    </contour>
    <contour>
      <point x="474" y="359" type="curve" smooth="yes"/>
      <point x="396" y="359"/>
      <point x="331" y="461"/>
      <point x="331" y="588" type="curve" smooth="yes"/>
      <point x="331" y="726"/>
      <point x="400" y="821"/>
      <point x="498" y="821" type="curve" smooth="yes"/>
      <point x="579" y="821"/>
      <point x="636" y="774"/>
      <point x="702" y="651" type="curve"/>
      <point x="605" y="434"/>
      <point x="543" y="359"/>
    </contour>
    <contour>
      <point x="1132" y="377" type="curve" smooth="yes"/>
      <point x="1048" y="377"/>
      <point x="992" y="422"/>
      <point x="926" y="545" type="curve"/>
      <point x="1020" y="757"/>
      <point x="1087" y="839"/>
      <point x="1154" y="839" type="curve" smooth="yes"/>
      <point x="1232" y="839"/>
      <point x="1297" y="737"/>
      <point x="1297" y="608" type="curve" smooth="yes"/>
      <point x="1297" y="473"/>
      <point x="1228" y="377"/>
    </contour>
  </outline>
</glyph>
<glyph name="integral" format="2">
  <advance width="1406"/>
  <unicode hex="222B"/>
  <note>
integral
</note>
  <outline>
    <contour>
      <point x="377" y="-560" type="curve" smooth="yes"/>
      <point x="619" y="-560"/>
      <point x="708" y="-406"/>
      <point x="756" y="-133" type="curve" smooth="yes"/>
      <point x="964" y="1052" type="line" smooth="yes"/>
      <point x="987" y="1185"/>
      <point x="966" y="1435"/>
      <point x="1063" y="1488" type="curve"/>
      <point x="1101" y="1480"/>
      <point x="1111" y="1465"/>
      <point x="1111" y="1453" type="curve" smooth="yes"/>
      <point x="1111" y="1430"/>
      <point x="1078" y="1319"/>
      <point x="1059" y="1274" type="curve"/>
      <point x="1276" y="1274" type="line"/>
      <point x="1292" y="1322"/>
      <point x="1308" y="1368"/>
      <point x="1308" y="1406" type="curve" smooth="yes"/>
      <point x="1308" y="1509"/>
      <point x="1199" y="1579"/>
      <point x="1029" y="1579" type="curve" smooth="yes"/>
      <point x="786" y="1579"/>
      <point x="698" y="1426"/>
      <point x="650" y="1152" type="curve" smooth="yes"/>
      <point x="442" y="-33" type="line" smooth="yes"/>
      <point x="419" y="-166"/>
      <point x="440" y="-416"/>
      <point x="343" y="-469" type="curve"/>
      <point x="305" y="-461"/>
      <point x="295" y="-446"/>
      <point x="295" y="-434" type="curve" smooth="yes"/>
      <point x="295" y="-411"/>
      <point x="328" y="-300"/>
      <point x="347" y="-255" type="curve"/>
      <point x="130" y="-255" type="line"/>
      <point x="114" y="-304"/>
      <point x="97" y="-353"/>
      <point x="97" y="-391" type="curve" smooth="yes"/>
      <point x="97" y="-489"/>
      <point x="208" y="-560"/>
    </contour>
  </outline>
</glyph>
<glyph name="approxequal" format="2">
  <advance width="1088"/>
  <unicode hex="2248"/>
  <note>
approxequal
</note>
  <guideline x="1259" y="778" angle="302.4986"/>
  <outline>
    <contour>
      <point x="920" y="699" type="curve" smooth="yes"/>
      <point x="1056" y="699"/>
      <point x="1214" y="784"/>
      <point x="1287" y="833" type="curve"/>
      <point x="1202" y="968" type="line"/>
      <point x="1042" y="876"/>
      <point x="961" y="865"/>
      <point x="920" y="865" type="curve" smooth="yes"/>
      <point x="851" y="865"/>
      <point x="798" y="902"/>
      <point x="740" y="933" type="curve" smooth="yes"/>
      <point x="633" y="990"/>
      <point x="544" y="1009"/>
      <point x="494" y="1009" type="curve" smooth="yes"/>
      <point x="390" y="1009"/>
      <point x="225" y="933"/>
      <point x="126" y="854" type="curve"/>
      <point x="212" y="719" type="line"/>
      <point x="372" y="820"/>
      <point x="447" y="843"/>
      <point x="493" y="843" type="curve" smooth="yes"/>
      <point x="557" y="843"/>
      <point x="657" y="789"/>
      <point x="692" y="770" type="curve" smooth="yes"/>
      <point x="829" y="696"/>
      <point x="905" y="699"/>
    </contour>
    <contour>
      <point x="920" y="299" type="curve" smooth="yes"/>
      <point x="1056" y="299"/>
      <point x="1214" y="384"/>
      <point x="1287" y="433" type="curve"/>
      <point x="1202" y="568" type="line"/>
      <point x="1042" y="476"/>
      <point x="961" y="465"/>
      <point x="920" y="465" type="curve" smooth="yes"/>
      <point x="851" y="465"/>
      <point x="798" y="502"/>
      <point x="740" y="533" type="curve" smooth="yes"/>
      <point x="633" y="590"/>
      <point x="544" y="609"/>
      <point x="494" y="609" type="curve" smooth="yes"/>
      <point x="390" y="609"/>
      <point x="225" y="533"/>
      <point x="126" y="454" type="curve"/>
      <point x="212" y="319" type="line"/>
      <point x="372" y="420"/>
      <point x="447" y="443"/>
      <point x="493" y="443" type="curve" smooth="yes"/>
      <point x="557" y="443"/>
      <point x="657" y="389"/>
      <point x="692" y="370" type="curve" smooth="yes"/>
      <point x="829" y="296"/>
      <point x="905" y="299"/>
    </contour>
  </outline>
</glyph>
<glyph name="notequal" format="2">
  <advance width="1088"/>
  <unicode hex="2260"/>
  <note>
notequal
</note>
  <outline>
    <contour>
      <point x="672" y="1212" type="line"/>
      <point x="268" y="104" type="line"/>
      <point x="504" y="104" type="line"/>
      <point x="908" y="1212" type="line"/>
    </contour>
    <component base="equal"/>
  </outline>
</glyph>
<glyph name="lozenge" format="2">
  <advance width="1294"/>
  <unicode hex="25CA"/>
  <note>
lozenge
</note>
  <outline>
    <contour>
      <point x="647" y="-598" type="line"/>
      <point x="1197" y="578" type="line"/>
      <point x="647" y="1745" type="line"/>
      <point x="97" y="578" type="line"/>
    </contour>
    <contour>
      <point x="647" y="-95" type="line"/>
      <point x="333" y="578" type="line"/>
      <point x="647" y="1245" type="line"/>
      <point x="961" y="578" type="line"/>
    </contour>
  </outline>
</glyph>
<glyph name="apple" format="2">
  <advance width="1586"/>
  <unicode hex="F000"/>
  <note>
apple
</note>
  <outline>
    <contour>
      <point x="583" y="-34" type="curve" smooth="yes"/>
      <point x="609" y="-34"/>
      <point x="651" y="-24"/>
      <point x="707" y="-2" type="curve" smooth="yes"/>
      <point x="763" y="20"/>
      <point x="805" y="30"/>
      <point x="835" y="30" type="curve" smooth="yes"/>
      <point x="861" y="30"/>
      <point x="901" y="20"/>
      <point x="955" y="-2" type="curve" smooth="yes"/>
      <point x="1009" y="-24"/>
      <point x="1051" y="-34"/>
      <point x="1083" y="-34" type="curve" smooth="yes"/>
      <point x="1157" y="-34"/>
      <point x="1223" y="-2"/>
      <point x="1283" y="60" type="curve" smooth="yes"/>
      <point x="1343" y="122"/>
      <point x="1409" y="232"/>
      <point x="1483" y="394" type="curve"/>
      <point x="1335" y="460"/>
      <point x="1255" y="576"/>
      <point x="1255" y="724" type="curve" smooth="yes"/>
      <point x="1255" y="856"/>
      <point x="1319" y="958"/>
      <point x="1451" y="1044" type="curve"/>
      <point x="1357" y="1154"/>
      <point x="1245" y="1204"/>
      <point x="1101" y="1204" type="curve" smooth="yes"/>
      <point x="1059" y="1204"/>
      <point x="1009" y="1192"/>
      <point x="953" y="1170" type="curve" smooth="yes"/>
      <point x="895" y="1148"/>
      <point x="855" y="1136"/>
      <point x="833" y="1136" type="curve" smooth="yes"/>
      <point x="809" y="1136"/>
      <point x="769" y="1146"/>
      <point x="713" y="1168" type="curve" smooth="yes"/>
      <point x="648" y="1194"/>
      <point x="604" y="1202"/>
      <point x="561" y="1202" type="curve" smooth="yes"/>
      <point x="303" y="1202"/>
      <point x="123" y="1004"/>
      <point x="123" y="720" type="curve" smooth="yes"/>
      <point x="123" y="533"/>
      <point x="199" y="318"/>
      <point x="331" y="139" type="curve" smooth="yes"/>
      <point x="418" y="21"/>
      <point x="503" y="-34"/>
    </contour>
    <contour>
      <point x="839" y="1187" type="curve" smooth="yes"/>
      <point x="845" y="1187" type="line"/>
      <point x="853" y="1186" type="line" smooth="yes"/>
      <point x="983" y="1186"/>
      <point x="1153" y="1344"/>
      <point x="1153" y="1516" type="curve" smooth="yes"/>
      <point x="1153" y="1550"/>
      <point x="1151" y="1564"/>
      <point x="1151" y="1576" type="curve"/>
      <point x="967" y="1542"/>
      <point x="827" y="1384"/>
      <point x="827" y="1224" type="curve" smooth="yes"/>
      <point x="827" y="1204"/>
      <point x="829" y="1196"/>
      <point x="829" y="1188" type="curve"/>
      <point x="833" y="1188"/>
      <point x="835" y="1187"/>
    </contour>
  </outline>
</glyph>
<glyph name="fi" format="2">
  <advance width="1186"/>
  <unicode hex="F001"/>
  <note>
fi
</note>
  <anchor x="600" y="0" name="caret_1"/>
  <outline>
    <contour>
      <point x="202" y="1" type="line"/>
      <point x="538" y="1" type="line"/>
      <point x="538" y="919" type="line"/>
      <point x="493" y="874" type="line"/>
      <point x="782" y="874" type="line"/>
      <point x="782" y="944" type="line"/>
      <point x="493" y="944" type="line"/>
      <point x="538" y="899" type="line"/>
      <point x="538" y="1226" type="line" smooth="yes"/>
      <point x="538" y="1462"/>
      <point x="573" y="1511"/>
      <point x="665" y="1511" type="curve" smooth="yes"/>
      <point x="753" y="1511"/>
      <point x="784" y="1462"/>
      <point x="784" y="1396" type="curve" smooth="yes"/>
      <point x="784" y="1337"/>
      <point x="759" y="1277"/>
      <point x="749" y="1243" type="curve"/>
      <point x="1063" y="1243" type="line"/>
      <point x="1079" y="1295"/>
      <point x="1088" y="1364"/>
      <point x="1088" y="1392" type="curve" smooth="yes"/>
      <point x="1088" y="1528"/>
      <point x="862" y="1579"/>
      <point x="665" y="1579" type="curve" smooth="yes"/>
      <point x="313" y="1579"/>
      <point x="202" y="1417"/>
      <point x="202" y="1152" type="curve" smooth="yes"/>
      <point x="202" y="899" type="line"/>
      <point x="247" y="944" type="line"/>
      <point x="30" y="944" type="line"/>
      <point x="30" y="874" type="line"/>
      <point x="247" y="874" type="line"/>
      <point x="202" y="919" type="line"/>
    </contour>
    <contour>
      <point x="736" y="1" type="line"/>
      <point x="1068" y="1" type="line"/>
      <point x="1068" y="944" type="line"/>
      <point x="736" y="944" type="line"/>
    </contour>
  </outline>
</glyph>
<glyph name="fl" format="2">
  <advance width="1166"/>
  <unicode hex="F002"/>
  <note>
fl
</note>
  <anchor x="582" y="0" name="caret_1"/>
  <outline>
    <contour>
      <point x="204" y="0" type="line"/>
      <point x="536" y="0" type="line"/>
      <point x="536" y="1052" type="line" smooth="yes"/>
      <point x="536" y="1185"/>
      <point x="520" y="1435"/>
      <point x="558" y="1488" type="curve"/>
      <point x="682" y="1472"/>
      <point x="698" y="1140"/>
      <point x="698" y="1092" type="curve"/>
      <point x="808" y="1274" type="line"/>
      <point x="816" y="1326"/>
      <point x="819" y="1357"/>
      <point x="819" y="1376" type="curve" smooth="yes"/>
      <point x="819" y="1504"/>
      <point x="687" y="1579"/>
      <point x="508" y="1579" type="curve" smooth="yes"/>
      <point x="290" y="1579"/>
      <point x="204" y="1468"/>
      <point x="204" y="1152" type="curve" smooth="yes"/>
    </contour>
    <contour>
      <point x="30" y="859" type="line"/>
      <point x="722" y="859" type="line"/>
      <point x="722" y="929" type="line"/>
      <point x="30" y="929" type="line"/>
    </contour>
    <contour>
      <point x="698" y="-15" type="line"/>
      <point x="1030" y="-15" type="line"/>
      <point x="1030" y="1529" type="line"/>
      <point x="698" y="1529" type="line"/>
    </contour>
  </outline>
</glyph>
<glyph name="_cyrillic_bar.case" format="2">
  <advance width="1036"/>
  <anchor x="603" y="498" name="_center"/>
  <outline>
    <contour>
      <point x="206" y="465" type="line"/>
      <point x="1000" y="465" type="line"/>
      <point x="1000" y="531" type="line"/>
      <point x="206" y="531" type="line"/>
    </contour>
  </outline>
</glyph>
<glyph name="_cyrillic_bar" format="2">
  <advance width="584"/>
  <anchor x="292" y="498" name="_center"/>
  <outline>
    <contour>
      <point x="0" y="465" type="line"/>
      <point x="584" y="465" type="line"/>
      <point x="584" y="531" type="line"/>
      <point x="0" y="531" type="line"/>
    </contour>
  </outline>
</glyph>
<glyph name="_cyrillicdescender01" format="2">
  <advance width="1341"/>
  <outline>
    <contour>
      <point x="210" y="0" type="line"/>
      <point x="56" y="0" type="line"/>
      <point x="69" y="-208" type="line"/>
      <point x="197" y="-208" type="line"/>
    </contour>
  </outline>
</glyph>
<glyph name="_cyrillicdescender02" format="2">
  <advance width="1341"/>
  <anchor x="168" y="0" name="_bottomright"/>
  <outline>
    <contour>
      <point x="56" y="0" type="line"/>
      <point x="312" y="0" type="line"/>
      <point x="312" y="70" type="line"/>
      <point x="56" y="70" type="line"/>
    </contour>
    <component base="_cyrillicdescender01" xOffset="102"/>
  </outline>
</glyph>
<glyph name="brevecomb-cy" format="2">
  <anchor x="426" y="944" name="_top"/>
  <outline>
    <contour>
      <point x="426" y="1102" type="curve" smooth="yes"/>
      <point x="661" y="1102"/>
      <point x="750" y="1179"/>
      <point x="793" y="1420" type="curve"/>
      <point x="674" y="1420" type="line"/>
      <point x="615" y="1270"/>
      <point x="553" y="1222"/>
      <point x="426" y="1222" type="curve" smooth="yes"/>
      <point x="299" y="1222"/>
      <point x="237" y="1270"/>
      <point x="178" y="1420" type="curve"/>
      <point x="59" y="1420" type="line"/>
      <point x="102" y="1179"/>
      <point x="191" y="1102"/>
    </contour>
  </outline>
</glyph>
<glyph name="currency_horz_stroke.case" format="2">
  <advance width="1908"/>
  <anchor x="954" y="729" name="_bar"/>
  <anchor x="954" y="0" name="_bottom"/>
  <anchor x="954" y="515" name="bar"/>
  <anchor x="954" y="-326" name="bottom"/>
  <outline>
    <contour>
      <point x="404" y="658" type="line"/>
      <point x="1504" y="658" type="line"/>
      <point x="1504" y="794" type="line"/>
      <point x="404" y="794" type="line"/>
    </contour>
  </outline>
</glyph>
